<?xml version="1.0" encoding="utf-8"?>
<!-- Generator: Adobe Illustrator 19.2.1, SVG Export Plug-In . SVG Version: 6.00 Build 0)  -->
<svg version="1.1" id="layer" xmlns="http://www.w3.org/2000/svg" xmlns:xlink="http://www.w3.org/1999/xlink" x="0px" y="0px"
	 viewBox="0 0 652 652" style="enable-background:new 0 0 652 652;" xml:space="preserve">
<path d="M464.2,235.4v173.2c0,6.1-5,11.1-11.1,11.1s-11.1-5-11.1-11.1V235.4c0-6.1,5-11.1,11.1-11.1S464.2,229.2,464.2,235.4z
	 M558.2,286.1c-36.8,0-66.8,30-66.8,66.8s30,66.8,66.8,66.8c19.9,0,38.9-8,52.3-22c4.2-4.4,4.1-11.5-0.4-15.7
	c-4.4-4.2-11.5-4.1-15.7,0.4c-9.2,9.6-22.4,15.1-36.2,15.1c-24.6,0-44.5-20-44.5-44.5s20-44.5,44.5-44.5c19.1,0,35.2,13.2,39.6,30.9
	h-54.5c-6.1,0-11.1,5-11.1,11.1c0,6.1,5,11.1,11.1,11.1h66.8c6.1,0,11.1-5,11.1-11.1v-1.2C621.3,314.4,593,286.1,558.2,286.1z
	 M80.1,342c-29.8-4.6-35-8.4-35-17c0-8.3,10.9-16.7,31.7-16.7c10.2,0,24.9,2.1,36.7,11.8c4.7,3.9,11.8,3.2,15.7-1.5c0,0,0,0,0,0
	c3.9-4.8,3.2-11.8-1.5-15.7c-17-13.9-37-16.9-50.9-16.9c-37.1,0-54,20.2-54,39c0,9.6,3.5,22.8,20.3,30.7c9.8,4.6,21.9,6.5,33.6,8.3
	c29.6,4.5,34.8,8.3,34.8,16.7c0,10-12.5,16.7-31.1,16.7c-19.7,0-34.7-8-41.9-12.8c-5.1-3.4-12-2-15.4,3.1c0,0,0,0,0,0
	c-3.4,5.1-2,12,3.1,15.4c16,10.6,35.3,16.5,54.2,16.5c36.9,0,53.4-19.6,53.4-39C133.8,350.2,102.8,345.5,80.1,342z M215.5,308.4
	c13.7,0,26.4,6.8,34,18.3c3.4,5.1,10.3,6.5,15.4,3.1c5.1-3.4,6.5-10.3,3.1-15.4c-11.7-17.7-31.4-28.2-52.6-28.2
	c-36.8,0-66.8,30-66.8,66.8s30,66.8,66.8,66.8c21.2,0,40.8-10.6,52.6-28.2c3.4-5.1,2-12-3.1-15.4s-12-2-15.4,3.1
	c-7.6,11.4-20.3,18.3-34,18.3c-24.6,0-44.5-20-44.5-44.5S190.9,308.4,215.5,308.4L215.5,308.4z M351.6,286.1
	c-36.8,0-66.8,30-66.8,66.8s30,66.8,66.8,66.8h7.4c6.1,0,11.1-5,11.1-11.1c0-6.1-5-11.1-11.1-11.1h-7.4c-24.6,0-44.5-20-44.5-44.5
	s20-44.5,44.5-44.5c22.5,0,40.8,18.3,40.8,40.8v59.4c0,6.1,5,11.1,11.1,11.1s11.1-5,11.1-11.1v-59.4
	C414.7,314.4,386.4,286.1,351.6,286.1z"/>
</svg>
