<svg width="537" height="600" viewBox="0 0 537 600" fill="none" xmlns="http://www.w3.org/2000/svg">
<g id="Group">
<g id="Group_2">
<g id="Group_3">
<g id="Group_4">
<g id="Group_5">
<g id="Group_6">
<path id="Vector" d="M520.956 184.91C520.541 185.288 520.12 185.66 519.705 186.038C517.751 187.799 515.694 189.336 513.57 190.582L515.42 189.008C517.336 187.886 519.192 186.503 520.956 184.91Z" fill="#FF405D"/>
</g>
<g id="Group_7">
<path id="Vector_2" d="M536.153 157.287C536.037 157.844 535.922 158.396 535.806 158.954C536.312 156.524 536.575 154.119 536.569 151.8L536.996 149.364C537.008 151.93 536.715 154.596 536.153 157.287Z" fill="#FF405D"/>
</g>
<g id="Group_8">
<path id="Vector_3" d="M515.42 189.007L513.57 190.582L486.226 206.619L487.02 205.664L515.42 189.007Z" fill="#FF405D"/>
</g>
<g id="Group_9">
<path id="Vector_4" d="M536.459 110.973L536.89 108.536L537 149.364L536.574 151.8L536.459 110.973Z" fill="#FF405D"/>
</g>
<g id="Group_10">
<path id="Vector_5" d="M465.023 248.334L456.923 243.548L458.01 213.457L466.115 218.237L465.023 248.334Z" fill="#FF1F41"/>
</g>
<g id="Group_11">
<path id="Vector_6" d="M469.46 240.219L465.023 248.333L466.115 218.237L470.351 215.558L469.46 240.219Z" fill="#FF405D"/>
</g>
<g id="Group_12">
<path id="Vector_7" d="M521.926 88.4386L530.032 93.2243C525.759 90.7013 519.839 91.0546 513.302 94.8857L505.196 90.1C511.733 86.2689 517.654 85.9155 521.926 88.4386Z" fill="#FF1F41"/>
</g>
<g id="Group_13">
<path id="Vector_8" d="M515.169 98.6548L513.302 94.8857C526.284 87.2732 536.843 93.3856 536.886 108.536L536.459 110.973C536.422 97.2972 526.888 91.78 515.169 98.6548Z" fill="#FF405D"/>
</g>
<g id="Group_14">
<path id="Vector_9" d="M470.351 215.558L466.115 218.237C454.372 223.586 445.217 217.313 445.18 203.21L449.324 202.968C449.361 215.695 457.625 221.355 470.351 215.558Z" fill="#FF405D"/>
</g>
<g id="Group_15">
<path id="Vector_10" d="M452.034 218.522L443.929 213.736C439.711 211.244 437.092 205.95 437.074 198.424L445.18 203.21C445.198 210.736 447.816 216.03 452.034 218.522Z" fill="#FF1F41"/>
</g>
<g id="Group_16">
<path id="Vector_11" d="M445.174 203.21L437.075 198.424L436.959 157.596L445.064 162.382L445.174 203.21Z" fill="#FF1F41"/>
</g>
<g id="Group_17">
<path id="Vector_12" d="M449.324 202.962L445.174 203.21L445.064 162.382L449.208 162.134L449.324 202.962Z" fill="#FF405D"/>
</g>
<g id="Group_18">
<path id="Vector_13" d="M468.496 121.164L460.39 116.378L505.196 90.1L513.302 94.8856L468.496 121.164Z" fill="#FF1F41"/>
</g>
<g id="Group_19">
<path id="Vector_14" d="M470.357 124.933L468.496 121.164L513.302 94.8859L515.169 98.655L470.357 124.933Z" fill="#FF405D"/>
</g>
<g id="Group_20">
<path id="Vector_15" d="M437.807 149.668C437.868 149.364 437.935 149.054 437.996 148.75C438.051 148.502 438.1 148.248 438.155 148C440.145 138.454 445.809 128.541 453.005 122.051C453.42 121.672 453.841 121.301 454.256 120.922C446.285 128.107 440.011 139.092 437.807 149.668Z" fill="#FF405D"/>
</g>
<g id="Group_21">
<path id="Vector_16" d="M515.169 98.655C526.888 91.7802 536.422 97.2974 536.459 110.973L536.574 151.8C536.617 165.476 527.138 182.139 515.42 189.008L487.02 205.665L469.46 240.219L470.351 215.565C457.625 221.361 449.361 215.701 449.324 202.968L449.208 162.141C449.166 148.465 458.644 131.802 470.357 124.933L515.169 98.655Z" fill="#FF5F76"/>
</g>
<g id="Group_22">
<path id="Vector_17" d="M449.208 162.134L445.064 162.376C445.021 147.225 455.513 128.77 468.496 121.158L470.363 124.927C458.645 131.802 449.172 148.465 449.208 162.134Z" fill="#FF405D"/>
</g>
<g id="Group_23">
<path id="Vector_18" d="M445.064 162.382L436.959 157.597C436.916 142.446 447.408 123.991 460.39 116.379L468.496 121.164C455.507 128.777 445.021 147.232 445.064 162.382Z" fill="#FF1F41"/>
</g>
</g>
</g>
<g id="Group_24">
<g id="Group_25">
<g id="Group_26">
<path id="Vector_19" d="M494.753 171.098L499.19 173.714C497.957 172.983 496.188 173.175 494.094 174.402L489.657 171.786C491.75 170.559 493.514 170.367 494.753 171.098Z" fill="#FF1F41"/>
<g id="Clip path group">
<mask id="mask0_23_5801" style="mask-type:luminance" maskUnits="userSpaceOnUse" x="489" y="170" width="11" height="5">
<g id="SVGID_00000039820052587091691540000002101176557598864771_">
<path id="Vector_20" d="M494.753 171.098L499.19 173.714C497.957 172.983 496.188 173.175 494.094 174.402L489.657 171.786C491.75 170.559 493.514 170.367 494.753 171.098Z" fill="white"/>
</g>
</mask>
<g mask="url(#mask0_23_5801)">
<g id="Group_27">
<path id="Vector_21" d="M494.094 174.402L489.657 171.786C491.744 170.559 493.514 170.367 494.747 171.098L499.184 173.714C497.952 172.989 496.181 173.181 494.094 174.402Z" fill="#FF1F41"/>
</g>
</g>
</g>
</g>
<g id="Group_28">
<path id="Vector_22" d="M489.168 191.121L484.731 188.505C483.51 187.786 482.79 186.175 482.784 183.782C482.772 179.077 485.622 174.148 489.657 171.78L494.094 174.396C490.06 176.764 487.209 181.686 487.221 186.398C487.227 188.797 487.948 190.402 489.168 191.121Z" fill="#FF1F41"/>
<g id="Clip path group_2">
<mask id="mask1_23_5801" style="mask-type:luminance" maskUnits="userSpaceOnUse" x="482" y="171" width="13" height="21">
<g id="SVGID_00000160911921685085314710000004856415950354366397_">
<path id="Vector_23" d="M489.168 191.121L484.731 188.505C483.51 187.786 482.79 186.175 482.784 183.782C482.772 179.077 485.622 174.148 489.657 171.78L494.094 174.396C490.06 176.764 487.209 181.686 487.221 186.398C487.227 188.797 487.948 190.402 489.168 191.121Z" fill="white"/>
</g>
</mask>
<g mask="url(#mask1_23_5801)">
<g id="Group_29">
<path id="Vector_24" d="M489.168 191.121L484.731 188.505C483.51 187.786 482.79 186.175 482.784 183.782C482.772 179.077 485.622 174.148 489.657 171.78L494.094 174.396C490.06 176.764 487.209 181.686 487.221 186.398C487.227 188.797 487.948 190.402 489.168 191.121Z" fill="#FF1F41"/>
</g>
</g>
</g>
</g>
<g id="Group_30">
<path id="Vector_25" d="M494.094 174.402C498.196 171.997 501.064 173.572 501.077 178.277C501.089 183.069 498.238 188.084 494.143 190.483C490.108 192.851 487.24 191.19 487.228 186.398C487.209 181.693 490.06 176.771 494.094 174.402Z" fill="#FCFCFC"/>
</g>
</g>
<g id="Group_31">
<g id="Group_32">
<path id="Vector_26" d="M491.86 140.183L496.297 142.799C496.914 143.165 497.243 144.045 497.243 145.489C497.261 152.928 488.765 158.942 488.802 171.941L484.371 169.325C484.334 156.326 492.837 150.312 492.812 142.873C492.8 141.423 492.476 140.549 491.86 140.183Z" fill="#FF1F41"/>
<g id="Clip path group_3">
<mask id="mask2_23_5801" style="mask-type:luminance" maskUnits="userSpaceOnUse" x="484" y="140" width="14" height="32">
<g id="SVGID_00000119102930500167446840000017759925390909694115_">
<path id="Vector_27" d="M491.86 140.183L496.297 142.799C496.914 143.165 497.243 144.045 497.243 145.489C497.261 152.928 488.765 158.942 488.802 171.941L484.371 169.325C484.334 156.326 492.837 150.312 492.812 142.873C492.8 141.423 492.476 140.549 491.86 140.183Z" fill="white"/>
</g>
</mask>
<g mask="url(#mask2_23_5801)">
<g id="Group_33">
<path id="Vector_28" d="M488.797 171.941L484.366 169.325C484.329 156.326 492.832 150.312 492.807 142.873C492.801 141.423 492.478 140.549 491.861 140.183L496.298 142.799C496.915 143.165 497.244 144.045 497.244 145.489C497.263 152.928 488.76 158.942 488.797 171.941Z" fill="#FF1F41"/>
</g>
</g>
</g>
</g>
<g id="Group_34">
<path id="Vector_29" d="M503.103 123.817L507.54 126.433C504.732 124.778 500.252 125.646 494.478 129.031C483.486 135.478 477.059 146.952 477.022 160.088L472.585 157.472C472.628 144.342 479.049 132.862 490.041 126.415C495.815 123.03 500.295 122.162 503.103 123.817Z" fill="#FF1F41"/>
<g id="Clip path group_4">
<mask id="mask3_23_5801" style="mask-type:luminance" maskUnits="userSpaceOnUse" x="472" y="123" width="36" height="38">
<g id="SVGID_00000114048145194666505210000007683680899955650211_">
<path id="Vector_30" d="M503.103 123.817L507.54 126.433C504.732 124.778 500.252 125.646 494.478 129.031C483.486 135.478 477.059 146.952 477.022 160.088L472.585 157.472C472.628 144.342 479.049 132.862 490.041 126.415C495.815 123.03 500.295 122.162 503.103 123.817Z" fill="white"/>
</g>
</mask>
<g mask="url(#mask3_23_5801)">
<g id="Group_35">
<path id="Vector_31" d="M477.022 160.088L472.585 157.472C472.628 144.342 479.049 132.862 490.041 126.415C495.815 123.03 500.295 122.162 503.103 123.817L507.54 126.433C504.732 124.778 500.252 125.646 494.478 129.031C483.486 135.478 477.059 146.952 477.022 160.088Z" fill="#FF1F41"/>
</g>
</g>
</g>
</g>
<g id="Group_36">
<path id="Vector_32" d="M493.123 143.45C489.968 145.297 488.369 148.552 488.381 153.424L477.016 160.088C477.059 146.952 483.48 135.478 494.472 129.031C504.659 123.055 510.83 124.921 510.854 134.678C510.891 147.337 499.825 155.873 499.856 165.457L488.79 171.941C488.753 158.941 497.256 152.928 497.231 145.489C497.231 142.408 495.76 141.906 493.123 143.45Z" fill="#FCFCFC"/>
</g>
</g>
</g>
</g>
<g id="Group_37">
<path id="Vector_33" d="M424.898 273.229C430.88 272.907 440.712 289.465 441.469 307.362C442.232 325.259 446.163 362.051 444.643 368.231C443.123 374.412 426.265 373.507 422.713 361.536C419.173 349.559 424.898 273.229 424.898 273.229Z" fill="#75A5FF"/>
<path id="Vector_34" d="M440.468 349.69C442.116 355.095 445.412 360.891 444.649 368.231C443.886 375.571 430.324 414.471 424.117 418.389C417.903 422.306 405.611 412.003 409.541 396.685C413.472 381.367 428.554 349.696 428.554 349.696L440.468 349.69Z" fill="#75A5FF"/>
<path id="Vector_35" d="M373.75 620.003C374.763 620.264 378.145 626.438 378.145 626.438L377.553 633.133C377.553 633.133 373.665 638.539 364.961 636.567C356.257 634.596 353.132 628.329 353.132 628.329L352.455 626.444C352.455 626.444 346.541 622.836 342.567 622.756C338.594 622.669 331.245 619.495 327.443 614.17C323.64 608.851 324.318 604.115 324.397 603.346C324.482 602.584 324.483 599.063 327.443 597.773C330.397 596.49 373.75 620.003 373.75 620.003Z" fill="#2E3442"/>
<path id="Vector_36" d="M413.564 628.106C394.124 639.506 362.508 639.45 342.94 627.975C323.378 616.501 323.28 597.965 342.72 586.565C362.16 575.165 393.776 575.221 413.338 586.695C432.906 598.17 433.004 616.712 413.564 628.106Z" fill="#EEF1F5"/>
<path id="Vector_37" d="M419.722 597.302C420.314 598.331 423.525 601.164 423.781 603.222C424.037 605.28 423.445 610.605 423.445 610.605C423.445 610.605 419.893 614.381 411.446 613.265C402.999 612.149 400.038 600.476 398.091 599.187C396.15 597.897 392.769 593.694 389.894 592.752C387.02 591.81 381.423 584.426 379.573 582.021C377.724 579.616 377.223 576.845 378.145 575.153C379.066 573.46 378.652 572.233 382.71 571.29C386.763 570.354 419.722 597.302 419.722 597.302Z" fill="#2E3442"/>
<path id="Vector_38" d="M355.073 599.49C353.383 599.149 332.087 595.455 330.226 595.969C328.37 596.484 326.088 599.472 326.173 603.34C326.259 607.208 326.851 609.613 329.133 611.932C331.416 614.25 336.738 618.367 342.317 619.402C347.896 620.431 362.343 630.133 366.316 630.387C370.29 630.647 374.342 629.531 375.783 625.409C377.217 621.286 375.654 611.182 375.752 610.481C375.85 609.787 355.073 599.49 355.073 599.49Z" fill="#40485C"/>
<path id="Vector_39" d="M419.887 577.39C419.887 577.39 420.394 591.555 421.663 594.215C422.933 596.874 422.762 603.228 422.512 604.084C422.255 604.939 416.762 610.091 408.229 605.373C399.697 600.656 400.368 594.388 394.283 590.781C388.197 587.179 382.283 581.941 380.171 577.39C378.059 572.84 382.198 570.869 382.198 570.869C382.198 570.869 393.007 570.77 394.283 571.724C395.558 572.685 399.69 574.898 399.69 574.898L410.762 571.123L419.887 577.39Z" fill="#40485C"/>
<path id="Vector_40" d="M420.986 380.245C421.321 387.281 425.209 396.381 426.393 415.778C427.578 435.176 424.874 447.363 422.847 455.602C420.821 463.84 421.328 496.969 419.637 504.693C417.946 512.417 393.782 510.359 390.907 504.693C388.033 499.027 378.737 435.516 377.724 427.104C376.711 418.692 384.145 373.035 384.145 373.035L420.986 380.245Z" fill="#4D5C85"/>
<path id="Vector_41" d="M413.887 488.73C418.111 496.281 418.453 500.23 419.631 504.693C420.815 509.156 423.689 516.366 425.038 531.3C426.393 546.233 422.67 584.513 420.644 591.723C418.617 598.932 398.506 596.701 396.98 586.23C395.46 575.76 389.217 498.605 389.217 498.605L413.887 488.73Z" fill="#4D5C85"/>
<path id="Vector_42" d="M406.117 385.911C406.453 391.23 410.848 430.886 407.979 440.327C405.104 449.769 393.782 455.775 392.262 459.383C390.743 462.985 381.959 497.18 380.434 528.901C354.408 535.769 349 536.284 346.632 518.089C344.264 499.895 342.573 461.615 344.435 442.733C346.297 423.85 345.113 388.831 347.645 385.056C350.172 381.274 406.117 385.911 406.117 385.911Z" fill="#516A87"/>
<path id="Vector_43" d="M378.566 492.338C380.83 505.412 380.165 506.931 380.544 513.812C380.922 520.693 382.808 543.698 382.472 553.858C382.143 564.019 377.742 612.26 376.387 615.695C375.032 619.129 356.764 621.293 353.212 615.8C349.666 610.308 350.337 598.418 350.337 598.418C350.337 598.418 346.272 515.281 346.114 513.775C345.955 512.268 378.566 492.338 378.566 492.338Z" fill="#516A87"/>
<g id="Group_38">
<path id="Vector_44" d="M358.193 618.776L359.798 618.701C359.773 618.125 357.179 560.764 355.33 527.741C353.481 494.78 359.731 415.146 359.798 414.346L358.198 414.21C358.137 415.016 351.875 494.762 353.731 527.834C355.58 560.845 358.168 618.199 358.193 618.776Z" fill="#5E7A9C"/>
</g>
<g id="Group_39">
<path id="Vector_45" d="M385.835 461.156C383.754 460.574 373.274 457.573 371.785 455.652C370.302 453.748 371.278 437.147 371.614 432.107L371.663 431.388L403.066 429.559L402.962 430.52C402.944 430.681 401.192 446.725 400.99 450.029C400.771 453.674 388.808 459.886 386.409 461.094L386.134 461.231L385.835 461.156ZM373.164 432.938C372.536 442.813 372.316 453.463 373.042 454.647C373.805 455.633 380.153 457.871 385.963 459.501C392.525 456.166 399.275 451.721 399.379 449.936C399.55 447.028 400.868 434.86 401.253 431.307L373.164 432.938Z" fill="#5E7A9C"/>
</g>
<g id="Group_40">
<g id="Group_41">
<path id="Vector_46" d="M420.68 449.818L409.535 446.408L409.572 445.361C409.816 438.263 410.249 424.501 410.176 423.186L410.115 422.194L411.031 421.835C411.33 421.711 418.501 418.779 425.087 412.251L427.284 410.075L427.37 413.193C427.425 415.295 427.852 433.874 426.399 439.254C424.861 444.945 421.285 449.117 421.248 449.161L420.68 449.818ZM410.64 445.602L420.32 448.566L420.43 448.435C420.467 448.392 423.879 444.412 425.356 438.963C426.503 434.717 426.479 420.781 426.284 413.218L426.265 412.617L425.838 413.038C419.1 419.715 411.733 422.728 411.421 422.852L411.238 422.926L411.25 423.118C411.348 424.81 410.677 444.555 410.646 445.398L410.64 445.602ZM420.149 447.958L411.177 445.212L411.189 444.79C411.25 442.999 411.781 427.197 411.775 423.651V423.285L412.105 423.143C413.686 422.455 419.283 419.808 424.892 414.669L425.777 413.863L425.801 415.072C425.899 420.787 426.009 434.537 424.849 438.827C423.708 443.055 421.34 446.414 420.375 447.667L420.149 447.958ZM412.288 444.4L419.753 446.681C420.778 445.299 422.798 442.261 423.811 438.523C424.873 434.58 424.819 421.698 424.739 416.268C419.649 420.707 414.723 423.161 412.862 423.998C412.831 427.929 412.386 441.418 412.288 444.4Z" fill="#5E7A9C"/>
</g>
</g>
<path id="Vector_47" d="M424.282 386.419C424.282 386.419 425.6 399.332 424.886 401.645C424.172 403.963 412.947 417.651 389.418 420.787C365.889 423.924 346.883 414.824 345.692 412.245C344.502 409.666 350.655 396.629 350.655 396.629L424.282 386.419Z" fill="#2E3442"/>
<g id="Group_42">
<path id="Vector_48" d="M417.226 411.433L422.035 411.39C422.035 411.216 421.248 390.033 420.778 387.771L416.072 388.775C416.408 390.579 417.189 409.852 417.226 411.433Z" fill="#4D5C85"/>
</g>
<g id="Group_43">
<path id="Vector_49" d="M405.969 401.641L401.17 401.962L402.483 422.226L407.282 421.905L405.969 401.641Z" fill="#516A87"/>
</g>
<g id="Group_44">
<path id="Vector_50" d="M375.417 405.693H370.607V425.958H375.417V405.693Z" fill="#516A87"/>
</g>
<path id="Vector_51" d="M338.46 452.434C338.46 454.238 338.905 461.38 338.905 461.38C338.905 461.38 340.364 462.409 339.412 463.314C338.46 464.213 336.177 463.054 336.177 463.054L334.846 460.865L333.705 464.665C333.705 464.665 338.588 466.469 339.216 467.436C339.851 468.403 339.473 468.98 339.473 468.98L341.377 469.817C341.377 469.817 342.329 471.943 340.932 472.842C339.54 473.741 336.366 473.809 335.353 473.617C334.34 473.425 329.713 472.396 328.822 471.044C327.937 469.693 324.885 463.512 324.348 460.71C323.817 457.908 327.931 446.192 327.931 446.192L338.46 452.434Z" fill="#FFA698"/>
<path id="Vector_52" d="M400.075 407.968C409.004 404.546 421.883 395.799 423.043 391.8C424.202 387.796 430.745 354.562 434.969 336.795C439.192 319.028 437.221 296.29 434.011 284.45C430.8 272.603 420.998 272.088 419.478 271.921C417.958 271.748 401.18 276.942 397.969 277.457C394.759 277.971 377.003 287.624 370.412 292.254C363.82 296.891 344.722 305.303 343.88 309.761C343.037 314.224 345.466 393.666 346.046 398.799C346.626 403.932 367.567 419.765 400.075 407.968Z" fill="#5E8FFF"/>
<path id="Vector_53" d="M350.441 309.482C358.217 314.974 364.32 329.282 364.827 340.205C365.334 351.128 361.33 401.533 357.606 406.337C353.889 411.142 339.857 404.446 337.831 397.751C335.805 391.056 336.262 347.352 337.446 336.795C338.63 326.238 339.821 312.6 343.513 309.333C346.016 307.12 350.441 309.482 350.441 309.482Z" fill="#75A5FF"/>
<path id="Vector_54" d="M352.541 387.628C357.442 395.011 359.926 399.066 358.681 404.161C357.442 409.257 343.501 451.306 340.626 453.711C337.752 456.116 325.246 456.798 325.752 445.299C326.259 433.799 337.489 386.419 337.489 386.419L352.541 387.628Z" fill="#75A5FF"/>
<path id="Vector_55" d="M402.095 260.298C400.295 266.522 399.751 274.829 403.359 280.371C388.222 287.748 371.101 288.845 371.101 288.845C371.101 288.845 372.005 278.412 371.101 276.583C370.204 274.754 364.436 275.12 361.549 270.725C358.668 266.336 359.206 242.723 359.389 238.7C359.566 234.671 359.255 224.789 363.374 222.229C367.5 219.669 402.095 260.298 402.095 260.298Z" fill="#FFA698"/>
<path id="Vector_56" d="M396.285 270.911C388.85 272.423 382.228 274.345 378.444 267.204C374.66 260.068 371.822 250.732 368.239 249.499C364.656 248.265 365.199 257.254 365.132 257.595C365.132 257.595 362.092 256.15 361.891 255.19C361.69 254.229 361.958 246.201 361.348 243.455C360.738 240.708 359.407 237.751 359.462 236.115C359.517 234.472 359.389 225.266 360.536 222.111C361.684 218.956 371.956 208.318 387.294 210.239C402.632 212.161 406.484 219.916 406.484 219.916C406.484 219.916 414.589 222.315 414.998 234.739C415.401 247.162 408.376 257.527 406.416 259.789C404.457 262.052 401.729 268.158 400.697 269.187C399.666 270.216 396.285 270.911 396.285 270.911Z" fill="#202459"/>
<path id="Vector_57" d="M364.729 249.908C366.286 249.152 368.178 251.625 368.245 254.917C368.312 258.209 368.111 263.701 366.963 264.867C365.816 266.032 364.735 263.149 364.601 260.955C364.455 258.76 361.281 252.177 364.729 249.908Z" fill="#FFA698"/>
<path id="Vector_58" d="M390.572 277.364C397.969 274.959 400.539 272.665 401.283 272.336C402.028 272.008 406.417 280.37 406.417 280.37C406.417 280.37 402.565 283.879 394.319 286.421C386.073 288.962 378.273 291.362 375.398 292.118C372.53 292.874 368.959 295.118 369.295 294.889C369.63 294.659 368.782 286.006 370.131 284.09C371.48 282.168 380.269 279.149 390.572 277.364Z" fill="#75A5FF"/>
</g>
<g id="Group_45">
<path id="Vector_59" d="M291.548 516.49C291.717 484.085 247.056 457.565 191.793 457.258C136.531 456.95 91.5945 482.97 91.4249 515.375C91.2552 547.781 135.917 574.3 191.179 574.608C246.441 574.915 291.378 548.895 291.548 516.49Z" fill="#007AA6"/>
<path id="Vector_60" d="M291.585 214.554H91.4677V515.988H91.4738C91.6325 530.94 101.478 545.899 120.997 557.348C160.194 580.335 223.548 580.453 262.501 557.609C282.057 546.14 291.743 531.07 291.578 515.994H291.585V214.554Z" fill="url(#paint0_linear_23_5801)"/>
</g>
<path id="Vector_61" d="M103.742 432.274C101.166 432.274 99.0544 430.129 99.0544 427.513V374.622C99.0544 372.006 101.166 369.861 103.742 369.861C106.318 369.861 108.429 372.006 108.429 374.622V427.513C108.429 430.129 106.318 432.274 103.742 432.274Z" fill="url(#paint1_linear_23_5801)"/>
<path id="Vector_62" d="M278.126 465.583C275.55 465.583 273.439 463.438 273.439 460.822V430.285C273.439 427.662 275.55 425.524 278.126 425.524C280.702 425.524 282.814 427.669 282.814 430.285V460.822C282.814 463.444 280.708 465.583 278.126 465.583Z" fill="url(#paint2_linear_23_5801)"/>
<path id="Vector_63" d="M225.794 523.948C223.219 523.948 221.107 521.803 221.107 519.187V486.864C221.107 484.242 223.219 482.103 225.794 482.103C228.37 482.103 230.482 484.248 230.482 486.864V519.187C230.482 521.803 228.37 523.948 225.794 523.948Z" fill="url(#paint3_linear_23_5801)"/>
<path id="Vector_64" d="M141.73 536.842C139.155 536.842 137.043 534.697 137.043 532.081V496.268C137.043 493.652 139.155 491.507 141.73 491.507C144.306 491.507 146.418 493.652 146.418 496.268V532.081C146.418 534.697 144.306 536.842 141.73 536.842Z" fill="url(#paint4_linear_23_5801)"/>
<path id="Vector_65" d="M141.73 473.183C139.155 473.183 137.043 471.038 137.043 468.422V439.075C137.043 436.459 139.155 434.314 141.73 434.314C144.306 434.314 146.418 436.459 146.418 439.075V468.422C146.418 471.038 144.306 473.183 141.73 473.183Z" fill="url(#paint5_linear_23_5801)"/>
<path id="Vector_66" d="M253.486 415.866C250.904 415.866 248.799 413.721 248.799 411.105V392.104C248.799 389.488 250.91 387.343 253.486 387.343C256.062 387.343 258.174 389.488 258.174 392.104V411.105C258.174 413.727 256.062 415.866 253.486 415.866Z" fill="url(#paint6_linear_23_5801)"/>
<path id="Vector_67" d="M282.814 289.688C280.238 289.688 278.126 287.543 278.126 284.927V283.867C278.126 281.245 280.238 279.106 282.814 279.106C285.389 279.106 287.501 281.251 287.501 283.867V284.927C287.501 287.543 285.395 289.688 282.814 289.688Z" fill="url(#paint7_linear_23_5801)"/>
<path id="Vector_68" d="M283.461 250.925C286.03 251.104 287.989 253.392 287.812 256.002L287.165 265.48C286.988 268.09 284.736 270.08 282.167 269.9C279.597 269.72 277.638 267.433 277.815 264.823L278.462 255.345C278.639 252.735 280.891 250.745 283.461 250.925Z" fill="url(#paint8_linear_23_5801)"/>
<path id="Vector_69" d="M103.742 465.626C101.166 465.626 99.0544 463.481 99.0544 460.865V451.362C99.0544 448.746 101.166 446.601 103.742 446.601C106.318 446.601 108.429 448.746 108.429 451.362V460.865C108.429 463.487 106.318 465.626 103.742 465.626Z" fill="url(#paint9_linear_23_5801)"/>
<g id="Group_46">
<g id="Group_47">
<g id="Group_48">
<g id="Group_49">
<path id="Vector_70" d="M174.744 122.639C174.598 122.825 174.451 123.011 174.305 123.197C174.183 123.352 174.067 123.501 173.945 123.656C169.349 129.502 163.99 134.455 158.265 137.808L160.895 135.137C165.949 132.173 170.679 127.803 174.744 122.639Z" fill="#8473FF"/>
</g>
<g id="Group_50">
<path id="Vector_71" d="M184.931 104.451C184.772 104.854 184.614 105.257 184.455 105.66C186.909 99.3987 188.313 92.9392 188.294 86.926L189.277 83.2438C189.295 90.0566 187.708 97.3655 184.931 104.451Z" fill="#44CAFA"/>
</g>
<g id="Group_51">
<path id="Vector_72" d="M188.142 32.8943L189.124 29.2059L189.277 83.25L188.294 86.9324L188.142 32.8943Z" fill="#44CAFA"/>
</g>
<g id="Group_52">
<path id="Vector_73" d="M160.895 135.137L158.265 137.809L93.0302 176.064L92.1207 175.469L160.895 135.137Z" fill="#44CAFA"/>
</g>
<g id="Group_53">
<path id="Vector_74" d="M92.1206 175.468L93.0301 176.063L92.2428 221.912L91.4737 212.961L92.1206 175.468Z" fill="#44CAFA"/>
</g>
<g id="Group_54">
<path id="Vector_75" d="M92.2429 221.913L80.7253 215.112L52.0265 186.553L63.55 193.347L92.2429 221.913Z" fill="#21B7ED"/>
</g>
<g id="Group_55">
<path id="Vector_76" d="M91.4738 212.961L92.2429 221.913L63.55 193.347L68.0118 189.603L91.4738 212.961Z" fill="#44CAFA"/>
</g>
<g id="Group_56">
<path id="Vector_77" d="M168.531 2.13421L180.048 8.93468C174.39 5.59333 166.56 6.06444 157.911 11.1353L146.393 4.33488C155.042 -0.736024 162.873 -1.20713 168.531 2.13421Z" fill="#21B7ED"/>
</g>
<g id="Group_57">
<path id="Vector_78" d="M160.566 16.9253L157.911 11.1353C175.092 1.05547 189.069 9.14542 189.124 29.2059L188.142 32.8881C188.099 15.171 175.745 8.02335 160.566 16.9253Z" fill="#44CAFA"/>
</g>
<g id="Group_58">
<path id="Vector_79" d="M68.0118 189.603L63.55 193.347L42.8896 205.466L45.5203 202.794L68.0118 189.603Z" fill="#44CAFA"/>
</g>
<g id="Group_59">
<path id="Vector_80" d="M20.7454 207.667L9.22803 200.866C3.64329 197.568 0.176483 190.557 0.152069 180.595L11.6694 187.396C11.6999 197.358 15.1606 204.369 20.7454 207.667Z" fill="#21B7ED"/>
</g>
<g id="Group_60">
<path id="Vector_81" d="M45.5203 202.794L42.8896 205.466C25.7082 215.546 11.7248 207.45 11.6699 187.396L17.9383 186.831C17.981 204.542 30.3408 211.696 45.5203 202.794Z" fill="#44CAFA"/>
</g>
<g id="Group_61">
<path id="Vector_82" d="M17.9383 186.831L11.6699 187.395L11.5173 133.358L17.7857 132.787L17.9383 186.831Z" fill="#44CAFA"/>
</g>
<g id="Group_62">
<path id="Vector_83" d="M11.6701 187.396L0.152734 180.595L0.000183105 126.557L11.5175 133.358L11.6701 187.396Z" fill="#21B7ED"/>
</g>
<g id="Group_63">
<path id="Vector_84" d="M42.5355 78.7927L31.0182 71.9922L146.393 4.33472L157.911 11.1352L42.5355 78.7927Z" fill="#21B7ED"/>
</g>
<g id="Group_64">
<path id="Vector_85" d="M45.1905 84.5831L42.5355 78.793L157.911 11.1355L160.566 16.9255L45.1905 84.5831Z" fill="#44CAFA"/>
</g>
<g id="Group_65">
<path id="Vector_86" d="M4.35172 105.344C4.36392 105.307 4.38239 105.257 4.4007 105.22C4.40681 105.201 4.419 105.176 4.4251 105.158C4.43731 105.121 4.4617 105.071 4.47391 105.034C4.48001 105.015 4.4922 104.991 4.49831 104.972C4.51051 104.935 4.5288 104.885 4.54711 104.848C4.55321 104.829 4.5654 104.804 4.57151 104.786C4.58372 104.749 4.602 104.699 4.62031 104.662C4.63252 104.625 4.6508 104.575 4.66911 104.538C4.67521 104.519 4.68741 104.495 4.69351 104.476C4.70572 104.439 4.72419 104.389 4.7425 104.352C4.75471 104.315 4.77299 104.265 4.7913 104.228C4.7974 104.209 4.8096 104.185 4.8157 104.166C4.82181 104.147 4.834 104.123 4.8401 104.104C7.20828 98.0723 10.553 92.2202 14.5447 87.1431C14.5691 87.1121 14.5996 87.0749 14.6241 87.0439C14.6485 87.0129 14.679 86.9696 14.7034 86.9448C14.7278 86.9138 14.7583 86.8703 14.7828 86.8455C14.8072 86.8146 14.8377 86.7774 14.8621 86.7464C14.8865 86.7154 14.917 86.672 14.9415 86.6472C14.9659 86.6162 14.9964 86.5791 15.0208 86.5481C15.033 86.5357 15.0513 86.5108 15.0635 86.4984C15.0879 86.4674 15.1184 86.4241 15.1428 86.3993C15.155 86.3869 15.1734 86.362 15.1857 86.3496C15.2101 86.3186 15.2406 86.2815 15.265 86.2505C15.2772 86.2381 15.2954 86.2133 15.3077 86.2009C15.3199 86.1823 15.3381 86.1636 15.3503 86.1512C10.8093 91.9041 7.02507 98.5186 4.35172 105.344Z" fill="#8473FF"/>
</g>
<g id="Group_66">
<path id="Vector_87" d="M160.566 16.9251C175.745 8.02316 188.093 15.1707 188.142 32.8941L188.294 86.9321C188.343 104.643 176.075 126.241 160.895 135.137L92.1207 175.468L91.4799 212.961L68.0118 189.602L45.5202 202.794C30.3407 211.696 17.981 204.542 17.9383 186.831L17.7857 132.793C17.7308 115.076 30.011 93.4846 45.1905 84.5827L160.566 16.9251Z" fill="#73D8FF"/>
</g>
<g id="Group_67">
<path id="Vector_88" d="M17.7857 132.787L11.5173 133.351C11.4624 113.291 25.3479 88.8664 42.5355 78.7866L45.1905 84.5766C30.011 93.4785 17.7308 115.07 17.7857 132.787Z" fill="#44CAFA"/>
</g>
<g id="Group_68">
<path id="Vector_89" d="M11.5175 133.358L0.000162424 126.557C-0.0547695 106.497 13.8308 82.072 31.0184 71.9922L42.5357 78.7927C25.3542 88.8725 11.4626 113.297 11.5175 133.358Z" fill="#21B7ED"/>
</g>
</g>
</g>
<g id="Group_69">
<g id="Group_70">
<g id="Group_71">
<path id="Vector_90" d="M81.5861 135.224L88.184 139.117C87.5126 138.72 86.5909 138.801 85.4923 139.451L78.8944 135.558C79.993 134.914 80.9147 134.833 81.5861 135.224Z" fill="#21B7ED"/>
</g>
<g id="Group_72">
<path id="Vector_91" d="M82.7273 149.395L76.1294 145.502C75.397 145.068 74.9697 144.088 74.9636 142.7C74.9575 139.873 76.5933 136.91 78.8944 135.558L85.4922 139.451C83.1912 140.797 81.5556 143.76 81.5617 146.593C81.5678 147.981 81.9949 148.961 82.7273 149.395Z" fill="#21B7ED"/>
</g>
<g id="Group_73">
<path id="Vector_92" d="M85.4923 139.451C87.7933 138.1 89.3069 139.216 89.3802 142.005C89.3863 144.69 87.8849 147.653 85.4496 149.079C83.1486 150.424 81.5678 149.277 81.5617 146.593C81.5556 143.76 83.1912 140.797 85.4923 139.451Z" fill="white"/>
</g>
</g>
<g id="Group_74">
<g id="Group_75">
<path id="Vector_93" d="M82.648 122.336L76.0501 118.443C75.3176 118.009 74.8904 117.035 74.8904 115.641C74.8843 112.808 76.5201 109.851 78.815 108.499C79.9136 107.854 80.8353 107.774 81.5067 108.164L88.1046 112.057C87.4332 111.661 86.5115 111.747 85.4129 112.392C83.1118 113.737 81.4761 116.694 81.4883 119.534C81.4944 120.928 81.9216 121.902 82.648 122.336Z" fill="#21B7ED"/>
</g>
<g id="Group_76">
<path id="Vector_94" d="M85.3764 122.013C83.0754 123.359 81.4944 122.218 81.4883 119.534C81.4822 116.701 83.118 113.744 85.4129 112.392C87.714 111.041 89.2276 112.15 89.3008 114.946C89.313 117.637 87.8056 120.588 85.3764 122.013Z" fill="white"/>
</g>
</g>
<g id="Group_77">
<g id="Group_78">
<path id="Vector_95" d="M70.5446 156.97L63.9468 153.077L59.1739 139.6L65.7656 143.493L70.5446 156.97Z" fill="#21B7ED"/>
</g>
<g id="Group_79">
<path id="Vector_96" d="M51.2392 146.791L44.6413 142.898L57.9775 135.081L64.5754 138.974L51.2392 146.791Z" fill="#21B7ED"/>
</g>
<g id="Group_80">
<path id="Vector_97" d="M64.5754 138.974L57.9775 135.081L53.6012 122.751L60.1931 126.644L64.5754 138.974Z" fill="#21B7ED"/>
</g>
<g id="Group_81">
<path id="Vector_98" d="M60.1931 126.644L53.5952 122.751C52.6003 119.955 51.935 117.271 51.2758 114.667L57.8737 118.56C58.5329 121.17 59.1982 123.848 60.1931 126.644Z" fill="#21B7ED"/>
</g>
<g id="Group_82">
<path id="Vector_99" d="M54.5046 114.63L47.9067 110.737L54.8037 106.689L61.4016 110.582L54.5046 114.63Z" fill="#21B7ED"/>
</g>
<g id="Group_83">
<path id="Vector_100" d="M39.6119 175.109L33.014 171.216L47.9067 110.737L54.5046 114.63L39.6119 175.109Z" fill="#21B7ED"/>
</g>
<g id="Group_84">
<path id="Vector_101" d="M61.4016 110.582L76.6544 153.387L70.5447 156.971L65.7718 143.487L50.0795 152.693L45.5263 171.644L39.6181 175.109L54.5108 114.624L61.4016 110.582ZM51.2392 146.791L64.5754 138.974L60.1932 126.644C59.1983 123.848 58.533 121.164 57.8738 118.561L57.7395 118.641C57.0986 122.088 56.3784 125.659 55.5362 129.297L51.2392 146.791Z" fill="white"/>
</g>
</g>
</g>
<g id="Group_85">
<g id="Group_86">
<g id="Group_87">
<path id="Vector_102" d="M156.892 93.5961L161.17 96.1254C160.389 95.6666 159.309 95.7286 158.112 96.4291L153.834 93.8998C155.03 93.1993 156.11 93.1374 156.892 93.5961Z" fill="#21B7ED"/>
</g>
<g id="Group_88">
<path id="Vector_103" d="M107.751 140.927L103.473 138.397C102.704 137.945 102.221 136.978 102.221 135.602L106.5 138.131C106.5 139.501 106.982 140.468 107.751 140.927Z" fill="#21B7ED"/>
</g>
<g id="Group_89">
<path id="Vector_104" d="M106.5 138.131L102.216 135.602L102.197 129.198L106.482 131.727L106.5 138.131Z" fill="#21B7ED"/>
</g>
<g id="Group_90">
<path id="Vector_105" d="M110.767 124.195L106.488 121.666L153.84 93.8997L158.118 96.4227L110.767 124.195Z" fill="#21B7ED"/>
</g>
<g id="Group_91">
<path id="Vector_106" d="M106.482 131.727L102.203 129.198C102.197 126.433 104.114 123.061 106.488 121.666L110.767 124.195C108.392 125.584 106.47 128.962 106.482 131.727Z" fill="#21B7ED"/>
</g>
<g id="Group_92">
<path id="Vector_107" d="M158.118 96.4231C160.487 95.0345 162.421 96.1504 162.427 98.9152L162.446 105.319C162.452 108.084 160.535 111.462 158.167 112.851L110.816 140.617C108.442 142.012 106.507 140.896 106.501 138.125L106.482 131.721C106.476 128.956 108.393 125.578 110.767 124.189L158.118 96.4231Z" fill="white"/>
</g>
</g>
<g id="Group_93">
<g id="Group_94">
<path id="Vector_108" d="M169.349 51.8449L173.627 54.3742C172.846 53.9155 171.766 53.9774 170.576 54.6779L166.297 52.1487C167.487 51.4544 168.568 51.3862 169.349 51.8449Z" fill="#21B7ED"/>
</g>
<g id="Group_95">
<path id="Vector_109" d="M107.654 106.534L103.375 104.005C102.606 103.552 102.124 102.585 102.124 101.209L106.403 103.738C106.409 105.114 106.885 106.081 107.654 106.534Z" fill="#21B7ED"/>
</g>
<g id="Group_96">
<path id="Vector_110" d="M106.403 103.738L102.124 101.215L102.106 94.8114L106.385 97.3407L106.403 103.738Z" fill="#21B7ED"/>
</g>
<g id="Group_97">
<path id="Vector_111" d="M110.669 89.8022L106.391 87.2792L166.291 52.1486L170.576 54.6778L110.669 89.8022Z" fill="#21B7ED"/>
</g>
<g id="Group_98">
<path id="Vector_112" d="M106.385 97.3405L102.106 94.8112C102.1 92.0464 104.017 88.6679 106.391 87.2793L110.669 89.8086C108.295 91.1972 106.379 94.5695 106.385 97.3405Z" fill="#21B7ED"/>
</g>
<g id="Group_99">
<path id="Vector_113" d="M170.576 54.6778C172.944 53.2892 174.879 54.405 174.885 57.1698L174.903 63.5736C174.909 66.3384 172.993 69.7107 170.624 71.1055L110.718 106.236C108.344 107.631 106.409 106.509 106.403 103.744L106.385 97.3404C106.379 94.5755 108.295 91.197 110.669 89.8084L170.576 54.6778Z" fill="white"/>
</g>
</g>
</g>
</g>
<g id="Group_100">
<g id="Group_101">
<g id="Group_102">
<path id="Vector_114" d="M268.086 385.124C267.384 385.428 266.603 385.217 265.803 384.417L251.039 369.57C243.885 362.386 236.811 354.37 229.847 345.573L223.658 337.756C221.266 334.737 219.636 328.637 219.673 322.81C219.703 317.355 221.144 313.499 223.17 312.619C223.927 312.29 224.769 312.383 225.654 312.978L226.795 313.747C231.697 317.039 236.549 321.694 241.242 327.621C243.226 330.125 245.179 332.853 247.09 335.785L268.129 368.138C269.984 370.984 270.948 376.377 270.35 380.549C269.99 383.066 269.142 384.671 268.086 385.124Z" fill="#CFD0E0"/>
<path id="Vector_115" d="M283.552 359.62L262.507 327.261C260.487 324.155 258.418 321.266 256.318 318.613C251.35 312.34 246.217 307.405 241.023 303.921L239.881 303.152C238.838 302.452 237.824 302.179 236.872 302.291L225.465 303.617C226.417 303.506 227.43 303.779 228.474 304.479L229.615 305.248C234.809 308.732 239.942 313.66 244.911 319.94C247.01 322.587 249.079 325.482 251.1 328.587L272.145 360.947C275.679 366.384 277.504 376.563 276.362 384.535C275.679 389.314 274.067 392.371 272.065 393.232L283.473 391.906C285.469 391.044 287.086 387.988 287.77 383.208C288.911 375.236 287.086 365.051 283.552 359.62Z" fill="url(#paint10_linear_23_5801)"/>
<path id="Vector_116" d="M272.139 360.947L251.094 328.587C249.073 325.482 247.004 322.593 244.905 319.939C239.936 313.666 234.803 308.731 229.609 305.247L228.468 304.479C227.033 303.518 225.66 303.363 224.421 303.902C221.131 305.322 218.781 311.595 218.733 320.485C218.684 329.995 221.327 339.901 225.221 344.823L231.41 352.646C238.496 361.585 245.686 369.737 252.961 377.046L267.72 391.887C269.227 393.406 270.729 393.809 272.065 393.232C274.061 392.37 275.679 389.32 276.362 384.535C277.497 376.563 275.679 366.377 272.139 360.947ZM265.803 384.417L251.039 369.57C243.885 362.385 236.811 354.37 229.847 345.573L223.658 337.756C221.265 334.743 219.636 328.637 219.672 322.81C219.703 317.354 221.143 313.499 223.17 312.618C223.927 312.29 224.769 312.383 225.654 312.978L226.795 313.747C231.703 317.038 236.549 321.694 241.242 327.62C243.226 330.125 245.179 332.852 247.09 335.784L268.128 368.138C269.984 370.983 270.948 376.377 270.35 380.549C269.99 383.065 269.142 384.671 268.092 385.124C267.39 385.427 266.603 385.217 265.803 384.417Z" fill="#CFD0E0"/>
</g>
<path id="Vector_117" d="M244.514 340.434C244.514 348.226 238.014 435.938 180.5 435.938C122.986 435.938 115.741 343.627 115.741 340.459C118.384 340.459 244.514 340.434 244.514 340.434Z" fill="url(#paint11_linear_23_5801)"/>
<g id="Group_103">
<g id="Group_104">
<path id="Vector_118" d="M198.158 324.911C187.959 330.726 171.65 330.559 161.738 324.539C151.819 318.52 152.051 308.924 162.256 303.115C172.455 297.3 188.764 297.468 198.676 303.487C208.589 309.5 208.357 319.096 198.158 324.911Z" fill="#C0BACA"/>
<path id="Vector_119" d="M243.904 335.258C243.519 333.739 242.964 331.718 242.445 330.237C241.895 328.662 241.041 326.61 240.339 325.104C239.106 322.444 237.068 319.047 235.273 316.648C234.254 315.284 231.861 312.098 227.943 308.558C224.024 305.018 220.747 302.979 218.788 301.758C217.53 300.976 215.797 300.047 214.485 299.365C213.459 298.832 212.055 298.187 210.993 297.716C208.088 296.42 205.677 295.639 203.352 294.889C203.034 294.784 200.129 293.86 195.814 292.998C192.976 292.428 190.003 292.044 188.325 291.882C187.208 291.777 185.725 291.628 184.602 291.591C183.485 291.554 181.995 291.479 180.872 291.467C179.749 291.455 178.26 291.498 177.137 291.51C174.793 291.541 171.931 291.858 169.636 292.118C169.599 292.124 165.937 292.558 162.049 293.463C160.816 293.748 159.174 294.17 157.954 294.517C156.855 294.833 155.402 295.317 154.316 295.67C152.961 296.11 151.197 296.823 149.885 297.375C148.81 297.821 147.413 298.503 146.357 298.987C144.941 299.644 143.116 300.648 141.791 301.466C139.844 302.669 137.299 304.361 135.493 305.768C133.71 307.163 131.434 309.159 129.853 310.79C128.528 312.154 126.807 314.032 125.684 315.569C125.043 316.45 124.146 317.603 123.554 318.526C122.657 319.927 121.534 321.855 120.716 323.306C119.953 324.67 119.086 326.585 118.537 328.054C117.78 330.063 116.95 332.809 116.37 334.88C113.672 346.075 119.501 357.878 133.948 366.65C158.735 381.696 199.494 382.117 224.995 367.586C240.284 358.895 246.614 346.794 243.904 335.258ZM198.158 324.905C187.959 330.72 171.65 330.553 161.738 324.533C151.819 318.514 152.051 308.924 162.256 303.109C172.455 297.294 188.764 297.462 198.676 303.481C208.589 309.5 208.357 319.097 198.158 324.905Z" fill="url(#paint12_linear_23_5801)"/>
</g>
</g>
<path id="Vector_120" d="M213.032 335.791C194.837 346.46 165.247 346.404 146.943 335.667C128.632 324.93 128.54 307.579 146.735 296.91C164.93 286.241 194.52 286.297 212.824 297.034C231.135 307.771 231.226 325.122 213.032 335.791Z" fill="#D4D5E6"/>
<g id="Group_105">
<g id="Group_106">
<path id="Vector_121" d="M138.624 321.229C140.082 322.128 142.072 323.262 143.616 324C147.455 325.841 147.455 325.841 151.441 327.366C152.637 327.825 154.261 328.364 155.494 328.711C157.74 329.331 160.755 330.081 163.026 330.583C164.228 330.85 165.851 331.129 167.072 331.284C168.25 331.433 169.813 331.65 170.991 331.767C172.175 331.885 173.75 332.009 174.934 332.077C176.118 332.146 177.698 332.195 178.883 332.208C180.073 332.22 181.66 332.177 182.844 332.158C184.065 332.139 185.694 332.04 186.915 331.922C189.271 331.693 192.402 331.284 194.746 330.924C196.015 330.732 197.694 330.385 198.945 330.075C200.086 329.796 201.618 329.43 202.747 329.108C204.108 328.717 205.897 328.135 207.246 327.695C208.833 327.174 210.902 326.337 212.434 325.668C214.491 324.775 217.17 323.43 219.129 322.332C220.808 321.396 222.95 319.989 224.543 318.917C225.642 318.179 227.058 317.107 228.077 316.251C229.56 315.005 231.465 313.263 232.862 311.93C230.067 314.745 226.57 317.379 222.383 319.753C197.944 333.596 159.119 333.193 135.676 318.861C132.313 316.803 129.45 314.577 127.082 312.222C128.229 313.325 129.81 314.745 131.006 315.792C131.574 316.288 132.368 316.889 132.96 317.354C134.589 318.619 136.878 320.144 138.624 321.229Z" fill="url(#paint13_linear_23_5801)"/>
</g>
<path id="Vector_122" d="M186.921 331.923C219.27 331.923 252.943 299.29 252.943 277.029C252.943 269.026 252.43 256.138 248.554 242.909C241.645 219.34 112.818 231.007 110.242 247.781C109.619 251.848 109.485 254.768 109.321 255.741C108.478 260.725 103.229 288.851 123.175 308.322C143.116 327.794 162.397 331.923 186.921 331.923Z" fill="url(#paint14_linear_23_5801)"/>
<path id="Vector_123" d="M249.488 246.387C249.073 244.731 248.469 242.531 247.901 240.919C247.303 239.208 246.369 236.97 245.606 235.327C244.264 232.432 242.042 228.731 240.083 226.122C238.972 224.64 236.366 221.169 232.099 217.313C227.833 213.457 224.262 211.231 222.126 209.905C220.759 209.055 218.867 208.039 217.445 207.301C216.328 206.718 214.796 206.018 213.648 205.503C210.481 204.096 207.856 203.241 205.323 202.422C204.981 202.311 201.814 201.3 197.114 200.358C194.019 199.738 190.784 199.317 188.959 199.143C187.745 199.025 186.127 198.864 184.907 198.827C183.686 198.79 182.063 198.709 180.848 198.697C179.627 198.684 178.004 198.734 176.783 198.746C174.232 198.777 171.119 199.124 168.61 199.403C168.574 199.409 164.582 199.887 160.346 200.866C159.003 201.176 157.215 201.635 155.89 202.019C154.688 202.36 153.113 202.893 151.923 203.278C150.446 203.755 148.53 204.536 147.095 205.131C145.93 205.621 144.404 206.359 143.256 206.892C141.718 207.605 139.728 208.702 138.282 209.595C136.164 210.903 133.387 212.744 131.421 214.281C129.48 215.8 127.003 217.976 125.281 219.755C123.841 221.243 121.961 223.282 120.74 224.962C120.038 225.923 119.068 227.182 118.421 228.186C117.438 229.717 116.218 231.806 115.332 233.393C114.502 234.881 113.562 236.97 112.958 238.57C112.134 240.758 111.225 243.746 110.596 246.002C107.66 258.196 114.008 271.053 129.743 280.606C156.739 296.997 201.13 297.449 228.901 281.623C245.545 272.125 252.443 258.952 249.488 246.387Z" fill="url(#paint15_linear_23_5801)"/>
<g id="Group_107">
<path id="Vector_124" d="M252.107 270.21C252.253 274.804 252.07 277.407 251.356 280.234C248.78 288.913 241.95 296.885 230.317 303.475C210.572 314.658 182.929 318.018 158.497 313.666C150.873 311.924 148.023 311.273 144.3 278.195C143.799 268.89 146.943 268.22 149.738 268.673C173.444 276.062 203.541 274.048 223.982 262.474C237.312 254.923 243.885 244.806 243.623 234.733C243.635 234.528 243.653 234.255 243.666 234.051C244.117 234.299 244.423 234.466 244.728 234.919C244.728 234.919 250.99 247.038 252.107 270.21Z" fill="#003447"/>
</g>
<path id="Vector_125" d="M190.284 283.507C184.626 283.792 180.042 290.004 180.042 297.375C180.042 298.658 180.183 299.886 180.439 301.045C183.375 299.91 186.726 299.185 190.278 299.005C193.83 298.825 197.181 299.216 200.117 300.047C200.373 298.863 200.513 297.617 200.513 296.333C200.52 288.963 195.936 283.216 190.284 283.507Z" fill="#00BBFF"/>
<path id="Vector_126" d="M230.458 269.311C226.704 272.343 224.763 280.209 226.13 286.886C226.368 288.045 226.692 289.093 227.076 290.016C228.846 287.555 230.964 285.255 233.326 283.352C235.688 281.449 238.014 280.166 240.144 279.478C240.101 278.275 239.961 277.079 239.729 275.919C238.368 269.243 234.217 266.286 230.458 269.311Z" fill="#00BBFF"/>
</g>
</g>
<g id="Group_108">
<g id="Group_109">
<path id="Vector_127" d="M122.071 377.083L120.978 383.704L109.931 375.385L111.023 368.758L122.071 377.083Z" fill="url(#paint16_linear_23_5801)"/>
</g>
<g id="Group_110">
<path id="Vector_128" d="M111.023 368.758L109.931 375.385C102.979 370.153 99.0056 360.16 100.165 350.843C101.246 342.133 106.476 336.231 112.97 335.184C115.412 334.793 118.042 335.084 120.691 336.175L117.634 344.674C115.998 343.999 114.393 343.819 112.897 344.061C108.893 344.705 105.689 348.338 105.024 353.682C104.31 359.397 106.757 365.553 111.023 368.758Z" fill="url(#paint17_linear_23_5801)"/>
</g>
<g id="Group_111">
<path id="Vector_129" d="M117.634 344.674L120.691 336.175L122.809 337.049L119.758 345.548L117.634 344.674Z" fill="url(#paint18_linear_23_5801)"/>
</g>
<g id="Group_112">
<path id="Vector_130" d="M160.175 402.841L159.724 409.902C146.546 401.973 133.612 393.226 120.978 383.711L122.071 377.084C134.492 386.438 147.211 395.036 160.175 402.841Z" fill="url(#paint19_linear_23_5801)"/>
</g>
<g id="Group_113">
<path id="Vector_131" d="M119.758 345.548L122.809 337.049C132.41 341.011 141.749 346.391 150.611 353.062C154.359 355.882 158.008 358.932 161.555 362.193L156.342 369.291C152.991 366.21 149.543 363.327 146.003 360.668C137.641 354.364 128.821 349.293 119.758 345.548Z" fill="url(#paint20_linear_23_5801)"/>
</g>
<g id="Group_114">
<path id="Vector_132" d="M186.927 418.946L186.475 426.007L159.717 409.895L160.175 402.841L186.927 418.946Z" fill="url(#paint21_linear_23_5801)"/>
</g>
<g id="Group_115">
<path id="Vector_133" d="M191.242 419.882L194.685 427.78C192.054 428.202 189.21 427.65 186.475 426.001L186.927 418.94C188.374 419.82 189.863 420.105 191.242 419.882Z" fill="url(#paint22_linear_23_5801)"/>
</g>
<g id="Group_116">
<path id="Vector_134" d="M156.342 369.291L161.555 362.193L198.438 396.14L193.226 403.231L156.342 369.291Z" fill="url(#paint23_linear_23_5801)"/>
</g>
<g id="Group_117">
<path id="Vector_135" d="M191.242 419.882C189.863 420.105 188.368 419.814 186.927 418.946L160.175 402.834C147.211 395.036 134.492 386.432 122.071 377.077L111.023 368.758C106.757 365.553 104.31 359.397 105.024 353.681C105.683 348.338 108.893 344.705 112.897 344.06C114.393 343.819 115.998 343.998 117.634 344.674L119.758 345.548C128.821 349.286 137.641 354.363 146.003 360.668C149.537 363.327 152.991 366.21 156.342 369.291L193.22 403.231C196.473 406.219 197.724 411.6 196.101 415.636C195.136 418.066 193.324 419.554 191.242 419.882Z" fill="url(#paint24_linear_23_5801)"/>
</g>
<path id="Vector_136" d="M206.104 394.001L169.221 360.061C165.675 356.8 162.019 353.75 158.277 350.929C149.421 344.253 140.076 338.878 130.475 334.917L128.357 334.043C125.709 332.952 123.084 332.654 120.636 333.045C120.154 333.125 119.678 333.224 119.214 333.355L111.548 335.487C112.012 335.357 112.488 335.252 112.97 335.177C115.412 334.787 118.042 335.078 120.691 336.169L122.809 337.043C132.41 341.004 141.749 346.385 150.611 353.056C154.359 355.876 158.008 358.926 161.555 362.187L198.438 396.127C204.639 401.831 207.002 412.003 203.919 419.696C202.259 423.85 199.293 426.553 195.844 427.514L203.51 425.381C206.959 424.42 209.919 421.717 211.579 417.564C214.668 409.877 212.306 399.704 206.104 394.001Z" fill="url(#paint25_linear_23_5801)"/>
<g id="Group_118">
<path id="Vector_137" d="M193.226 403.231L198.444 396.133C204.646 401.837 207.008 412.009 203.925 419.709C202.076 424.321 198.628 427.148 194.691 427.78L191.248 419.882C193.323 419.548 195.136 418.06 196.113 415.636C197.73 411.6 196.479 406.219 193.226 403.231Z" fill="url(#paint26_linear_23_5801)"/>
</g>
</g>
</g>
<path id="Vector_138" d="M225.794 458.41C223.219 458.41 221.107 456.265 221.107 453.649V434.649C221.107 432.033 223.219 429.888 225.794 429.888C228.37 429.888 230.482 432.033 230.482 434.649V453.649C230.482 456.271 228.37 458.41 225.794 458.41Z" fill="url(#paint27_linear_23_5801)"/>
</g>
</g>
<defs>
<linearGradient id="paint0_linear_23_5801" x1="191.527" y1="499.884" x2="191.527" y2="217.659" gradientUnits="userSpaceOnUse">
<stop stop-color="#57D8FF"/>
<stop offset="0.5644" stop-color="#46D7FF"/>
<stop offset="1" stop-color="#40D6FF"/>
</linearGradient>
<linearGradient id="paint1_linear_23_5801" x1="103.739" y1="432.273" x2="103.739" y2="369.859" gradientUnits="userSpaceOnUse">
<stop stop-color="#57D8FF"/>
<stop offset="0.5421" stop-color="#4DD7FF"/>
<stop offset="1" stop-color="#40D6FF"/>
</linearGradient>
<linearGradient id="paint2_linear_23_5801" x1="278.127" y1="465.584" x2="278.127" y2="425.521" gradientUnits="userSpaceOnUse">
<stop stop-color="#57D8FF"/>
<stop offset="0.5421" stop-color="#4DD7FF"/>
<stop offset="1" stop-color="#40D6FF"/>
</linearGradient>
<linearGradient id="paint3_linear_23_5801" x1="225.794" y1="523.948" x2="225.794" y2="482.106" gradientUnits="userSpaceOnUse">
<stop stop-color="#57D8FF"/>
<stop offset="0.9562" stop-color="#4DD7FF"/>
<stop offset="1" stop-color="#4CD7FF"/>
</linearGradient>
<linearGradient id="paint4_linear_23_5801" x1="141.728" y1="536.841" x2="141.728" y2="491.507" gradientUnits="userSpaceOnUse">
<stop stop-color="#57D8FF"/>
<stop offset="0.9562" stop-color="#4DD7FF"/>
<stop offset="1" stop-color="#4CD7FF"/>
</linearGradient>
<linearGradient id="paint5_linear_23_5801" x1="141.728" y1="473.182" x2="141.728" y2="434.31" gradientUnits="userSpaceOnUse">
<stop stop-color="#4BD8FF"/>
<stop offset="1" stop-color="#46D7FF"/>
</linearGradient>
<linearGradient id="paint6_linear_23_5801" x1="253.486" y1="415.868" x2="253.486" y2="387.343" gradientUnits="userSpaceOnUse">
<stop stop-color="#57D8FF"/>
<stop offset="0.7942" stop-color="#4DD7FF"/>
<stop offset="1" stop-color="#49D7FF"/>
</linearGradient>
<linearGradient id="paint7_linear_23_5801" x1="282.816" y1="289.687" x2="282.816" y2="279.104" gradientUnits="userSpaceOnUse">
<stop stop-color="#57D8FF"/>
<stop offset="0.7942" stop-color="#4DD7FF"/>
<stop offset="1" stop-color="#49D7FF"/>
</linearGradient>
<linearGradient id="paint8_linear_23_5801" x1="283.462" y1="250.925" x2="282.127" y2="269.901" gradientUnits="userSpaceOnUse">
<stop stop-color="#57D8FF"/>
<stop offset="0.7942" stop-color="#4DD7FF"/>
<stop offset="1" stop-color="#49D7FF"/>
</linearGradient>
<linearGradient id="paint9_linear_23_5801" x1="103.739" y1="465.628" x2="103.739" y2="446.605" gradientUnits="userSpaceOnUse">
<stop stop-color="#57D8FF"/>
<stop offset="0.7942" stop-color="#4DD7FF"/>
<stop offset="1" stop-color="#49D7FF"/>
</linearGradient>
<linearGradient id="paint10_linear_23_5801" x1="256.786" y1="393.228" x2="256.786" y2="302.273" gradientUnits="userSpaceOnUse">
<stop offset="0.1176" stop-color="#D2D3E5"/>
<stop offset="0.2811" stop-color="#EAE9F2"/>
</linearGradient>
<linearGradient id="paint11_linear_23_5801" x1="115.744" y1="388.189" x2="244.514" y2="388.189" gradientUnits="userSpaceOnUse">
<stop offset="0.371" stop-color="#CACCDE"/>
<stop offset="0.9694" stop-color="#EAE9F2"/>
</linearGradient>
<linearGradient id="paint12_linear_23_5801" x1="156.947" y1="380.153" x2="206.982" y2="294.826" gradientUnits="userSpaceOnUse">
<stop stop-color="#CACCDE"/>
<stop offset="0.5597" stop-color="#EAE9F2"/>
</linearGradient>
<linearGradient id="paint13_linear_23_5801" x1="170.217" y1="322.066" x2="269.769" y2="322.066" gradientUnits="userSpaceOnUse">
<stop offset="0.2355" stop-color="#A8A4B5"/>
<stop offset="1" stop-color="#DBD3E2"/>
</linearGradient>
<linearGradient id="paint14_linear_23_5801" x1="119.635" y1="407.364" x2="225.363" y2="172.044" gradientUnits="userSpaceOnUse">
<stop offset="0.371" stop-color="#CACCDE"/>
<stop offset="0.9694" stop-color="#EAE9F2"/>
</linearGradient>
<linearGradient id="paint15_linear_23_5801" x1="154.781" y1="295.281" x2="209.276" y2="202.347" gradientUnits="userSpaceOnUse">
<stop stop-color="#CACCDE"/>
<stop offset="0.5597" stop-color="#EAE9F2"/>
</linearGradient>
<linearGradient id="paint16_linear_23_5801" x1="109.396" y1="386.679" x2="141.015" y2="338.206" gradientUnits="userSpaceOnUse">
<stop stop-color="#CACCDE"/>
<stop offset="1" stop-color="#DFDEEE"/>
</linearGradient>
<linearGradient id="paint17_linear_23_5801" x1="94.8589" y1="377.196" x2="126.477" y2="328.726" gradientUnits="userSpaceOnUse">
<stop stop-color="#CACCDE"/>
<stop offset="1" stop-color="#DFDEEE"/>
</linearGradient>
<linearGradient id="paint18_linear_23_5801" x1="96.5521" y1="378.301" x2="128.17" y2="329.83" gradientUnits="userSpaceOnUse">
<stop stop-color="#CACCDE"/>
<stop offset="1" stop-color="#DFDEEE"/>
</linearGradient>
<linearGradient id="paint19_linear_23_5801" x1="134.745" y1="403.214" x2="166.361" y2="354.746" gradientUnits="userSpaceOnUse">
<stop stop-color="#CACCDE"/>
<stop offset="1" stop-color="#DFDEEE"/>
</linearGradient>
<linearGradient id="paint20_linear_23_5801" x1="116.019" y1="391.001" x2="147.638" y2="342.529" gradientUnits="userSpaceOnUse">
<stop stop-color="#CACCDE"/>
<stop offset="1" stop-color="#DFDEEE"/>
</linearGradient>
<linearGradient id="paint21_linear_23_5801" x1="167.076" y1="424.304" x2="198.695" y2="375.831" gradientUnits="userSpaceOnUse">
<stop stop-color="#CACCDE"/>
<stop offset="1" stop-color="#DFDEEE"/>
</linearGradient>
<linearGradient id="paint22_linear_23_5801" x1="183.457" y1="434.989" x2="215.074" y2="386.519" gradientUnits="userSpaceOnUse">
<stop stop-color="#CACCDE"/>
<stop offset="1" stop-color="#DFDEEE"/>
</linearGradient>
<linearGradient id="paint23_linear_23_5801" x1="155.761" y1="416.923" x2="187.378" y2="368.453" gradientUnits="userSpaceOnUse">
<stop stop-color="#CACCDE"/>
<stop offset="1" stop-color="#DFDEEE"/>
</linearGradient>
<linearGradient id="paint24_linear_23_5801" x1="137.14" y1="404.777" x2="168.758" y2="356.305" gradientUnits="userSpaceOnUse">
<stop stop-color="#CACCDE"/>
<stop offset="1" stop-color="#DFDEEE"/>
</linearGradient>
<linearGradient id="paint25_linear_23_5801" x1="158.687" y1="424.889" x2="165.011" y2="335.852" gradientUnits="userSpaceOnUse">
<stop offset="0.1176" stop-color="#D2D3E5"/>
<stop offset="0.2976" stop-color="#EAE9F2"/>
</linearGradient>
<linearGradient id="paint26_linear_23_5801" x1="183.744" y1="435.177" x2="215.362" y2="386.705" gradientUnits="userSpaceOnUse">
<stop stop-color="#CACCDE"/>
<stop offset="1" stop-color="#DFDEEE"/>
</linearGradient>
<linearGradient id="paint27_linear_23_5801" x1="225.794" y1="458.412" x2="225.794" y2="429.887" gradientUnits="userSpaceOnUse">
<stop stop-color="#57D8FF"/>
<stop offset="0.9562" stop-color="#4DD7FF"/>
<stop offset="1" stop-color="#4CD7FF"/>
</linearGradient>
</defs>
</svg>
