<svg width="485" height="403" viewBox="0 0 485 403" fill="none" xmlns="http://www.w3.org/2000/svg">
<g id="Group">
<path id="Vector" d="M225.365 403H263.482L446.883 309.87L275.702 237.902L54.178 331.033L225.365 403Z" fill="#EEF1F5"/>
<path id="Vector_2" d="M15.2963 342.54L107.644 338.467L226.531 245.083L221.524 242.978L0.00012207 336.108L15.2963 342.54Z" fill="#EEF1F5"/>
<g id="Group_2">
<g id="Group_3">
<path id="Vector_3" d="M108.097 326.998L98.2146 317.842L99.4599 308.141L103.955 309.428L109.337 317.293L108.097 326.998Z" fill="#8484B8"/>
<path id="Vector_4" d="M65.881 165.086L105.549 315.699L100.056 320.924L83.0188 328.089L79.4043 254.074L58.2408 163.453L65.881 165.086Z" fill="#9191C9"/>
<path id="Vector_5" d="M48.8435 172.252L88.5114 322.864L83.0187 328.089L79.1458 324.958L41.2033 170.619L48.8435 172.252Z" fill="#9C9CD8"/>
<path id="Vector_6" d="M270.362 79.1178L310.03 229.734L304.537 234.959L287.5 242.121L283.885 168.106L262.722 77.4886L270.362 79.1178Z" fill="#9191C9"/>
<path id="Vector_7" d="M253.325 86.2833L292.992 236.896L287.5 242.121L283.627 238.99L266.848 175.268L245.684 84.6504L253.325 86.2833Z" fill="#787A80"/>
<path id="Vector_8" d="M281.901 226.63L291.399 230.625L103.955 309.428L94.4579 305.432L281.901 226.63Z" fill="#9C9CD8"/>
<path id="Vector_9" d="M263.482 396.422L92.2946 324.455L86.8018 329.68V331.19L163.457 363.414L263.482 403V396.422Z" fill="#9C9CD8"/>
<path id="Vector_10" d="M280.519 389.26L109.337 317.293L103.845 322.518V324.024L180.5 356.252L280.519 395.834V389.26Z" fill="white"/>
<path id="Vector_11" d="M485 303.292L313.818 231.325L308.326 236.55V238.056L384.981 270.284L485 309.87V303.292Z" fill="white"/>
<path id="Vector_12" d="M467.963 310.458L296.776 238.487L291.288 243.716V245.222L367.938 277.45L467.963 317.032V310.458Z" fill="white"/>
<path id="Vector_13" d="M253.324 86.2833L270.362 79.1177L310.03 229.734L292.992 236.896L253.324 86.2833Z" fill="#C1C1E8"/>
<g id="Group_4">
<path id="Vector_14" d="M253.325 86.2833L65.881 165.086L103.148 306.589L290.592 227.786L253.325 86.2833Z" fill="#C1C1E8"/>
<path id="Vector_15" d="M270.362 79.1177L48.8435 172.252L86.1107 313.751L307.634 220.621L270.362 79.1177Z" fill="#C1C1E8"/>
<path id="Vector_16" d="M296.776 238.486L291.399 230.625L103.955 309.428L109.337 317.293L296.776 238.486Z" fill="#ACACDF"/>
<path id="Vector_17" d="M48.8435 172.252L65.881 165.086L105.549 315.699L88.5114 322.864L48.8435 172.252Z" fill="#C1C1E8"/>
</g>
<path id="Vector_18" d="M263.482 396.422L485 303.292L313.818 231.325L92.2946 324.455L263.482 396.422Z" fill="#C1C1E8"/>
<path id="Vector_19" d="M263.482 396.422L485 303.292V309.87L263.482 403V396.422Z" fill="#ACACDF"/>
<path id="Vector_20" d="M48.8435 172.252L270.362 79.1178L262.722 77.4886L41.2033 170.619L48.8435 172.252Z" fill="#E6E6FA"/>
<path id="Vector_21" d="M406.34 324.455C409.015 325.581 409.031 327.402 406.371 328.527L324.904 363.003C322.245 364.129 317.923 364.129 315.243 363.003L269.28 343.681C266.605 342.555 266.589 340.734 269.249 339.608L350.716 305.133C353.375 304.007 357.697 304.007 360.372 305.133L406.34 324.455Z" fill="#AEAED1"/>
<path id="Vector_22" d="M55.6025 174.503L266.019 86.0413L300.87 218.369L90.4531 306.831L55.6025 174.503Z" fill="#2462E0"/>
<g id="Group_5">
<g id="Group_6">
<path id="Vector_23" d="M311.65 253.556V253.559C311.655 253.794 311.871 254.028 312.293 254.205L314.594 255.169C315.449 255.53 316.831 255.53 317.681 255.169L326.149 251.585C326.577 251.404 326.788 251.17 326.782 250.931V250.032L325.907 250.182L323.838 249.314C322.983 248.953 321.601 248.953 320.752 249.314L313.707 252.295L311.65 252.653V253.556Z" fill="#A0A0BF"/>
<path id="Vector_24" d="M299.018 259.826L301.319 260.794C302.173 261.155 303.556 261.151 304.405 260.794L312.874 257.209C313.296 257.029 313.512 256.794 313.507 256.56V255.665L312.642 255.815L310.563 254.943C309.708 254.581 308.326 254.581 307.476 254.943L300.427 257.924L298.374 258.278V259.173C298.374 259.411 298.591 259.645 299.018 259.826Z" fill="#A0A0BF"/>
<path id="Vector_25" d="M285.743 265.443L288.043 266.408C288.898 266.769 290.28 266.769 291.13 266.408L299.598 262.823C300.015 262.646 300.221 262.419 300.232 262.189H300.237V261.278L299.372 261.428L297.293 260.556C296.438 260.195 295.055 260.195 294.206 260.556L287.162 263.537L285.104 263.891V264.786C285.099 265.024 285.315 265.263 285.743 265.443Z" fill="#A0A0BF"/>
<path id="Vector_26" d="M179.545 310.381L181.845 311.345C182.7 311.707 184.082 311.707 184.932 311.345L193.401 307.761C193.828 307.58 194.039 307.342 194.034 307.107V306.212L193.163 306.362L191.095 305.49C190.24 305.129 188.858 305.129 188.008 305.49L180.954 308.475L178.906 308.829V309.724C178.901 309.966 179.117 310.204 179.545 310.381Z" fill="#A0A0BF"/>
<path id="Vector_27" d="M193.089 309.363L185.206 312.698H183.988V313.597V313.601C183.993 313.835 184.204 314.069 184.631 314.25L193.158 317.835C194.013 318.196 195.395 318.196 196.245 317.835L204.713 314.25C205.141 314.069 205.352 313.835 205.346 313.601V312.713H204.138L196.181 309.367C195.321 309.006 193.939 309.006 193.089 309.363Z" fill="#A0A0BF"/>
<path id="Vector_28" d="M166.269 316.002L168.565 316.967C169.419 317.328 170.802 317.328 171.651 316.967L180.12 313.382C180.542 313.201 180.753 312.967 180.753 312.732V311.837L179.888 311.987L177.809 311.111C176.954 310.754 175.572 310.75 174.722 311.111L167.662 314.1L165.621 314.454V315.349C165.631 315.587 165.842 315.822 166.269 316.002Z" fill="#A0A0BF"/>
<path id="Vector_29" d="M171.351 319.867L179.877 323.452C180.732 323.813 182.114 323.813 182.964 323.452L191.433 319.867C191.855 319.691 192.06 319.456 192.066 319.222V319.214V318.323H190.852L182.895 314.98C182.041 314.619 180.658 314.619 179.809 314.98L171.926 318.315H170.707V319.214C170.712 319.452 170.929 319.687 171.351 319.867Z" fill="#A0A0BF"/>
<path id="Vector_30" d="M152.994 321.619L155.289 322.588C156.144 322.949 157.526 322.949 158.376 322.588L166.845 319.003C167.267 318.822 167.478 318.592 167.478 318.357V317.455L166.607 317.604L164.533 316.732C163.679 316.371 162.296 316.371 161.447 316.732L154.413 319.71L152.345 320.067V320.962C152.35 321.201 152.567 321.439 152.994 321.619Z" fill="#A0A0BF"/>
<path id="Vector_31" d="M158.081 325.485L166.607 329.069C167.462 329.43 168.844 329.43 169.694 329.069L178.162 325.485C178.585 325.304 178.796 325.07 178.796 324.835V323.936H177.566L169.625 320.597C168.771 320.236 167.388 320.236 166.539 320.597L158.65 323.936H157.437V324.831C157.437 325.07 157.653 325.308 158.081 325.485Z" fill="#A0A0BF"/>
<path id="Vector_32" d="M154.208 323.971V323.967V323.076L153.39 323.241L151.269 322.349C150.414 321.988 149.031 321.988 148.182 322.349L139.354 326.084L137.028 326.557V327.452C137.033 327.686 137.244 327.921 137.671 328.101L139.972 329.065C140.827 329.427 142.209 329.427 143.059 329.065L153.58 324.612C153.997 324.439 154.208 324.205 154.208 323.971Z" fill="#A0A0BF"/>
<path id="Vector_33" d="M165.52 330.456V329.565H164.312L156.35 326.218C155.495 325.857 154.113 325.857 153.263 326.218L145.37 329.557H144.156V330.453C144.156 330.687 144.372 330.925 144.8 331.102L153.326 334.687C154.181 335.044 155.564 335.044 156.413 334.687L164.882 331.102C165.309 330.925 165.52 330.691 165.52 330.456Z" fill="#A0A0BF"/>
<path id="Vector_34" d="M280.324 283.72L272.441 287.055H271.217V287.954C271.217 288.189 271.433 288.427 271.86 288.604L280.387 292.188C281.242 292.55 282.624 292.55 283.474 292.188L291.942 288.604C292.37 288.423 292.581 288.189 292.581 287.95V287.063H291.372L283.41 283.716C282.556 283.359 281.173 283.359 280.324 283.72Z" fill="#A0A0BF"/>
<path id="Vector_35" d="M267.048 289.337L259.144 292.68H257.947V293.572C257.947 293.806 258.163 294.044 258.59 294.221L267.117 297.806C267.972 298.167 269.354 298.167 270.204 297.806L278.672 294.221C279.1 294.04 279.311 293.806 279.305 293.572V292.68H278.092L270.135 289.334C269.28 288.976 267.903 288.976 267.048 289.337Z" fill="#A0A0BF"/>
<path id="Vector_36" d="M245.315 299.842L253.842 303.427C254.696 303.784 256.079 303.788 256.928 303.427L265.397 299.842C265.819 299.661 266.03 299.427 266.03 299.193V298.297H264.811L256.86 294.955C256.005 294.594 254.623 294.594 253.773 294.955L245.885 298.294H244.671V299.189C244.671 299.427 244.888 299.661 245.315 299.842Z" fill="#A0A0BF"/>
<path id="Vector_37" d="M232.04 305.459L240.566 309.044C241.421 309.405 242.804 309.405 243.653 309.044L252.121 305.459C252.549 305.279 252.76 305.04 252.755 304.806V303.915H251.531L243.59 300.576C242.735 300.215 241.352 300.215 240.503 300.576L232.615 303.915H231.401V304.81C231.401 305.044 231.612 305.279 232.04 305.459Z" fill="#A0A0BF"/>
<path id="Vector_38" d="M218.764 311.077L227.291 314.661C228.146 315.022 229.528 315.022 230.377 314.661L238.846 311.077C239.274 310.896 239.485 310.662 239.479 310.427V309.536H238.261L230.309 306.193C229.454 305.832 228.072 305.832 227.222 306.193L219.329 309.532H218.115V310.427C218.126 310.662 218.337 310.896 218.764 311.077Z" fill="#A0A0BF"/>
<path id="Vector_39" d="M213.952 311.807L206.064 315.145H204.845V316.044C204.845 316.279 205.061 316.517 205.489 316.694L214.015 320.278C214.87 320.64 216.253 320.64 217.102 320.278L225.571 316.694C225.998 316.513 226.209 316.275 226.204 316.041V315.153H224.985L217.034 311.81C216.184 311.449 214.802 311.449 213.952 311.807Z" fill="#A0A0BF"/>
<path id="Vector_40" d="M192.219 322.311L200.745 325.896C201.6 326.253 202.982 326.257 203.832 325.896L212.301 322.311C212.717 322.134 212.923 321.904 212.934 321.673H212.939V321.658V320.774H211.736L203.769 317.424C202.914 317.062 201.532 317.062 200.682 317.424L192.789 320.763H191.575V321.658C191.575 321.896 191.791 322.13 192.219 322.311Z" fill="#A0A0BF"/>
<path id="Vector_41" d="M330.207 283.839L338.675 280.255C339.103 280.074 339.314 279.84 339.309 279.605V278.706H338.074L330.138 275.371C329.283 275.01 327.901 275.01 327.052 275.371L319.153 278.714H317.944V279.609C317.95 279.844 318.161 280.078 318.588 280.258L327.115 283.843C327.975 284.197 329.357 284.197 330.207 283.839Z" fill="#A0A0BF"/>
<path id="Vector_42" d="M316.931 289.457L325.4 285.872C325.827 285.691 326.038 285.457 326.033 285.219V284.327H324.814L316.863 280.985C316.008 280.624 314.625 280.624 313.776 280.985L305.893 284.32H304.674V285.215C304.674 285.453 304.885 285.691 305.318 285.872L313.845 289.457C314.699 289.814 316.082 289.818 316.931 289.457Z" fill="#A0A0BF"/>
<path id="Vector_43" d="M290.381 300.691L298.849 297.106C299.271 296.926 299.482 296.695 299.482 296.461V295.562H298.253L290.312 292.223C289.457 291.862 288.075 291.862 287.225 292.223L279.332 295.566H278.124V296.461C278.124 296.695 278.34 296.934 278.767 297.11L287.294 300.695C288.149 301.052 289.531 301.052 290.381 300.691Z" fill="#A0A0BF"/>
<path id="Vector_44" d="M357.021 283.912L365.49 280.328C365.912 280.151 366.123 279.917 366.123 279.682V278.787H364.91L356.953 275.444C356.098 275.083 354.716 275.083 353.861 275.444L345.983 278.779H344.759V279.675C344.759 279.913 344.97 280.151 345.403 280.332L353.924 283.916C354.789 284.274 356.167 284.274 357.021 283.912Z" fill="#A0A0BF"/>
<path id="Vector_45" d="M277.105 306.308L285.574 302.724C285.996 302.543 286.207 302.309 286.207 302.074V301.179H284.978L277.037 297.84C276.182 297.479 274.799 297.479 273.95 297.84L266.062 301.179H264.848V302.074C264.848 302.309 265.064 302.547 265.492 302.724L274.018 306.308C274.873 306.67 276.256 306.67 277.105 306.308Z" fill="#A0A0BF"/>
<path id="Vector_46" d="M263.83 311.926L272.298 308.341C272.721 308.16 272.932 307.926 272.932 307.692V306.804H271.718L263.761 303.458C262.906 303.096 261.524 303.096 260.675 303.458L252.781 306.796H251.568V307.692C251.568 307.926 251.784 308.164 252.211 308.341L260.738 311.926C261.598 312.287 262.98 312.287 263.83 311.926Z" fill="#A0A0BF"/>
<path id="Vector_47" d="M250.554 317.543L259.023 313.958C259.445 313.778 259.656 313.543 259.656 313.309V312.414H258.427L250.486 309.075C249.631 308.713 248.249 308.713 247.399 309.075L239.511 312.414H238.297V313.305C238.297 313.543 238.508 313.781 238.941 313.962L247.468 317.547C248.323 317.904 249.705 317.904 250.554 317.543Z" fill="#A0A0BF"/>
<path id="Vector_48" d="M237.279 323.16L245.748 319.575C246.17 319.395 246.381 319.16 246.381 318.926V318.027H245.146L237.21 314.692C236.356 314.331 234.973 314.331 234.124 314.692L226.235 318.031H225.022V318.926C225.022 319.16 225.238 319.399 225.666 319.575L234.192 323.16C235.047 323.521 236.43 323.521 237.279 323.16Z" fill="#A0A0BF"/>
<path id="Vector_49" d="M377.404 283.313C376.549 282.952 375.167 282.952 374.317 283.313L367.294 286.283L365.21 286.64V287.543C365.21 287.781 365.421 288.016 365.854 288.196L368.154 289.161C369.009 289.522 370.392 289.522 371.241 289.161L379.71 285.576C380.132 285.395 380.343 285.161 380.343 284.927V284.032L379.472 284.181L377.404 283.313Z" fill="#A0A0BF"/>
<path id="Vector_50" d="M344.632 291.931C343.778 291.57 342.395 291.57 341.546 291.931L333.663 295.266H332.444V296.161C332.444 296.396 332.66 296.634 333.088 296.814L341.609 300.399C342.464 300.76 343.846 300.76 344.696 300.399L353.164 296.814C353.592 296.634 353.803 296.396 353.797 296.157V295.266H352.568L344.632 291.931Z" fill="#A0A0BF"/>
<path id="Vector_51" d="M331.357 297.548C330.502 297.187 329.12 297.187 328.27 297.548L256.221 328.036L251.061 329.696V330.595C251.061 330.833 251.272 331.071 251.705 331.252L260.226 334.836C261.081 335.198 262.463 335.198 263.313 334.836L339.884 302.432C340.306 302.251 340.522 302.017 340.517 301.782V300.887L339.826 301.11L331.357 297.548Z" fill="#A0A0BF"/>
<path id="Vector_52" d="M212.396 325.196L220.922 328.781C221.777 329.142 223.159 329.142 224.009 328.781L232.478 325.196C232.9 325.016 233.111 324.781 233.111 324.547V323.652H231.892L223.94 320.309C223.085 319.948 221.703 319.948 220.854 320.309L212.96 323.648H211.747V324.543C211.752 324.781 211.963 325.016 212.396 325.196Z" fill="#A0A0BF"/>
<path id="Vector_53" d="M259.15 336.22V335.328H257.936L249.979 331.986C249.124 331.624 247.742 331.624 246.893 331.986L238.999 335.324H237.786V336.22C237.786 336.454 238.002 336.692 238.429 336.873L246.951 340.458C247.805 340.819 249.188 340.819 250.037 340.458L258.506 336.873C258.928 336.696 259.134 336.462 259.139 336.231V336.22H259.15Z" fill="#A0A0BF"/>
<path id="Vector_54" d="M178.943 327.928L187.47 331.513C188.325 331.874 189.707 331.874 190.557 331.513L199.025 327.928C199.453 327.748 199.664 327.513 199.658 327.279V326.391H198.445L190.488 323.045C189.633 322.684 188.251 322.684 187.401 323.045L179.513 326.384H178.3V327.283C178.3 327.513 178.516 327.748 178.943 327.928Z" fill="#A0A0BF"/>
<path id="Vector_55" d="M212.659 336.504L221.181 340.089C222.036 340.45 223.418 340.45 224.267 340.089L232.736 336.504C233.164 336.323 233.375 336.089 233.369 335.854V334.963H232.15L224.199 331.62C223.344 331.259 221.962 331.259 221.112 331.62L213.219 334.959H212.005V335.854C212.016 336.089 212.232 336.327 212.659 336.504Z" fill="#A0A0BF"/>
<path id="Vector_56" d="M245.874 341.837V340.945H244.661L236.704 337.599C235.849 337.238 234.467 337.238 233.617 337.599L225.713 340.942H224.51V341.833C224.51 342.067 224.727 342.306 225.154 342.486L233.675 346.071C234.53 346.432 235.913 346.432 236.762 346.071L245.231 342.486C245.653 342.309 245.864 342.075 245.864 341.841V341.837H245.874Z" fill="#A0A0BF"/>
<path id="Vector_57" d="M186.473 332.934V332.931V332.043L185.512 332.147L177.308 328.697C176.453 328.335 175.07 328.335 174.221 328.697L159.252 335.032L157.616 335.213V336.108C157.616 336.342 157.832 336.581 158.26 336.761L166.786 340.346C167.641 340.707 169.024 340.707 169.873 340.346L185.845 333.588C186.262 333.403 186.473 333.169 186.473 332.934Z" fill="#A0A0BF"/>
<path id="Vector_58" d="M206.56 335.774V334.882L205.684 335.032L197.39 331.544C196.535 331.186 195.152 331.186 194.303 331.544L173.05 340.538L171.06 340.872V341.76C171.06 341.994 171.277 342.232 171.704 342.413L180.231 345.998C181.086 346.359 182.468 346.359 183.317 345.998L205.927 336.431C206.354 336.25 206.565 336.012 206.56 335.774Z" fill="#A0A0BF"/>
<path id="Vector_59" d="M220.099 341.472V340.573L219.218 340.723L210.929 337.238C210.074 336.877 208.692 336.877 207.837 337.238L186.62 346.217L184.594 346.559V347.458C184.594 347.692 184.811 347.93 185.238 348.111L193.759 351.696C194.614 352.057 195.997 352.057 196.846 351.696L219.456 342.129C219.888 341.941 220.104 341.706 220.099 341.472Z" fill="#A0A0BF"/>
<path id="Vector_60" d="M210.153 348.837C209.298 348.476 207.916 348.476 207.066 348.837L199.173 352.176H197.959V353.071C197.959 353.306 198.176 353.544 198.603 353.724L207.125 357.309C207.979 357.67 209.362 357.67 210.211 357.309L218.68 353.724C219.107 353.544 219.318 353.31 219.313 353.075V352.18H218.084L210.153 348.837Z" fill="#A0A0BF"/>
<path id="Vector_61" d="M232.599 347.454V346.559H231.37L223.429 343.22C222.574 342.859 221.191 342.859 220.342 343.22L212.464 346.555H211.24V347.454C211.24 347.688 211.456 347.927 211.884 348.107L220.405 351.692C221.26 352.053 222.642 352.053 223.492 351.692L231.96 348.107C232.388 347.923 232.599 347.688 232.599 347.454Z" fill="#A0A0BF"/>
<path id="Vector_62" d="M367.073 289.653H365.843L357.902 286.314C357.048 285.953 355.665 285.953 354.816 286.314L346.928 289.653H345.714V290.548C345.714 290.782 345.93 291.02 346.358 291.201L354.879 294.786C355.734 295.147 357.116 295.147 357.966 294.786L366.434 291.201C366.862 291.02 367.073 290.786 367.067 290.552V289.653H367.073Z" fill="#A0A0BF"/>
<path id="Vector_63" d="M373.251 281.565L371.178 280.693C370.323 280.331 368.941 280.331 368.091 280.693L361.037 283.678L358.989 284.032V284.927C358.989 285.161 359.206 285.395 359.633 285.576L361.934 286.54C362.788 286.902 364.171 286.902 365.02 286.54L373.489 282.956C373.911 282.775 374.127 282.541 374.122 282.306V281.411L373.251 281.565Z" fill="#A0A0BF"/>
<path id="Vector_64" d="M393.945 278.284H392.727L384.78 274.941C383.926 274.58 382.543 274.58 381.694 274.941L373.8 278.28H372.587V279.179C372.592 279.413 372.803 279.648 373.23 279.828L381.752 283.413C382.606 283.774 383.989 283.774 384.838 283.413L393.307 279.828C393.724 279.651 393.935 279.421 393.94 279.19V278.284H393.945Z" fill="#A0A0BF"/>
<path id="Vector_65" d="M358.034 273.166V274.057C358.034 274.296 358.251 274.53 358.678 274.711L367.199 278.295C368.054 278.656 369.437 278.656 370.286 278.295L379.942 274.207C380.369 274.027 380.58 273.792 380.575 273.554V272.663L379.414 272.69L371.405 269.324C370.55 268.963 369.168 268.963 368.318 269.324L359.301 273.139L358.034 273.166Z" fill="#A0A0BF"/>
<path id="Vector_66" d="M331.225 273.085V273.984C331.23 274.219 331.441 274.453 331.869 274.634L340.395 278.218C341.25 278.58 342.633 278.58 343.482 278.218L366.413 268.513C366.835 268.333 367.046 268.098 367.046 267.864V266.969L366.176 267.118L357.876 263.63C357.021 263.269 355.639 263.269 354.789 263.63L333.267 272.736L331.225 273.085Z" fill="#A0A0BF"/>
<path id="Vector_67" d="M312.758 289.941H311.528L303.587 286.602C302.733 286.241 301.35 286.241 300.501 286.602L292.607 289.945H291.399V290.84C291.399 291.074 291.615 291.312 292.043 291.489L300.569 295.074C301.424 295.435 302.806 295.435 303.656 295.074L312.125 291.489C312.547 291.309 312.758 291.074 312.758 290.84V289.941Z" fill="#A0A0BF"/>
<path id="Vector_68" d="M198.477 330.164C198.482 330.399 198.693 330.633 199.12 330.81L207.647 334.395C208.502 334.756 209.884 334.756 210.734 334.395L219.202 330.81C219.624 330.633 219.835 330.399 219.835 330.164V329.265H218.606L210.665 325.926C209.81 325.565 208.428 325.565 207.578 325.926L199.69 329.265H198.477V330.16V330.164Z" fill="#A0A0BF"/>
<path id="Vector_69" d="M237.543 334.471L246.011 330.887C246.439 330.706 246.65 330.472 246.645 330.237V329.346H245.426L237.474 326.003C236.619 325.642 235.237 325.642 234.388 326.003L226.494 329.342H225.28V330.237C225.28 330.472 225.497 330.71 225.924 330.891L234.446 334.475C235.316 334.833 236.693 334.833 237.543 334.471Z" fill="#A0A0BF"/>
<path id="Vector_70" d="M250.818 328.854L259.287 325.269C259.709 325.089 259.925 324.854 259.92 324.62V323.729H258.701L250.75 320.386C249.895 320.025 248.512 320.025 247.663 320.386L239.769 323.725H238.556V324.62C238.556 324.854 238.772 325.093 239.2 325.273L247.721 328.858C248.586 329.215 249.969 329.211 250.818 328.854Z" fill="#A0A0BF"/>
<path id="Vector_71" d="M264.094 323.237L272.562 319.652C272.99 319.472 273.201 319.237 273.195 319.003V318.112H271.976L264.025 314.769C263.17 314.408 261.788 314.408 260.938 314.769L253.045 318.108H251.831V319.003C251.831 319.237 252.048 319.475 252.475 319.652L260.996 323.237C261.862 323.594 263.244 323.594 264.094 323.237Z" fill="#A0A0BF"/>
<path id="Vector_72" d="M277.369 317.62L285.838 314.035C286.265 313.854 286.476 313.62 286.471 313.386V312.494H285.252L277.3 309.152C276.446 308.79 275.063 308.79 274.214 309.152L266.32 312.49H265.107V313.386C265.107 313.62 265.323 313.858 265.75 314.039L274.272 317.623C275.137 317.977 276.52 317.977 277.369 317.62Z" fill="#A0A0BF"/>
<path id="Vector_73" d="M299.746 306.873H298.527L290.576 303.53C289.721 303.169 288.339 303.169 287.489 303.53L279.596 306.869H278.382V307.765C278.382 307.999 278.598 308.237 279.026 308.418L287.547 312.002C288.402 312.364 289.784 312.36 290.634 312.002L299.102 308.418C299.53 308.237 299.741 308.003 299.736 307.768V306.873H299.746Z" fill="#A0A0BF"/>
<path id="Vector_74" d="M313.021 301.256H311.803L303.851 297.913C302.996 297.552 301.614 297.552 300.764 297.913L292.871 301.252H291.657V302.147C291.657 302.382 291.874 302.62 292.301 302.8L300.823 306.385C301.677 306.746 303.06 306.742 303.909 306.385L312.378 302.8C312.805 302.62 313.016 302.386 313.011 302.151V301.256H313.021Z" fill="#A0A0BF"/>
<path id="Vector_75" d="M326.297 295.639H325.078L317.127 292.296C316.272 291.935 314.889 291.935 314.04 292.296L306.146 295.635H304.933V296.53C304.933 296.765 305.149 297.003 305.577 297.183L314.098 300.768C314.953 301.129 316.335 301.129 317.185 300.768L325.653 297.183C326.081 297.003 326.292 296.768 326.286 296.534V295.639H326.297Z" fill="#A0A0BF"/>
<path id="Vector_76" d="M339.572 290.021H338.354L330.402 286.679C329.547 286.318 328.165 286.318 327.315 286.679L319.422 290.018H318.208V290.913C318.208 291.147 318.425 291.385 318.852 291.566L327.373 295.151C328.228 295.512 329.611 295.512 330.46 295.151L338.929 291.566C339.356 291.385 339.567 291.151 339.562 290.917V290.021H339.572Z" fill="#A0A0BF"/>
<path id="Vector_77" d="M352.848 284.404H351.629L343.677 281.062C342.823 280.7 341.44 280.7 340.591 281.062L332.697 284.4H331.484V285.296C331.484 285.53 331.7 285.768 332.127 285.949L340.649 289.533C341.504 289.895 342.886 289.895 343.735 289.533L352.204 285.949C352.631 285.768 352.842 285.534 352.837 285.299V284.404H352.848Z" fill="#A0A0BF"/>
<path id="Vector_78" d="M293.599 278.103L285.716 281.438H284.492V282.337C284.492 282.572 284.709 282.806 285.136 282.987L293.663 286.571C294.517 286.932 295.9 286.932 296.749 286.571L305.218 282.987C305.645 282.806 305.856 282.572 305.856 282.337V281.45H304.648L296.686 278.103C295.831 277.742 294.449 277.742 293.599 278.103Z" fill="#A0A0BF"/>
<path id="Vector_79" d="M298.417 277.369L306.943 280.954C307.798 281.315 309.18 281.315 310.03 280.954L318.498 277.369C318.926 277.189 319.137 276.954 319.137 276.716V275.829H317.929L309.967 272.482C309.112 272.121 307.729 272.121 306.88 272.482L298.997 275.817H297.773V276.716C297.773 276.954 297.989 277.189 298.417 277.369Z" fill="#A0A0BF"/>
<path id="Vector_80" d="M332.407 271.103V270.215H331.199L323.237 266.869C322.382 266.511 320.999 266.511 320.15 266.869L312.267 270.204H311.043V271.103C311.043 271.337 311.259 271.575 311.687 271.752L320.213 275.337C321.068 275.698 322.451 275.698 323.3 275.337L331.769 271.752C332.196 271.571 332.407 271.337 332.407 271.103Z" fill="#A0A0BF"/>
<path id="Vector_81" d="M324.82 263.042V262.154H323.611L315.649 258.808C314.794 258.447 313.412 258.447 312.563 258.808L304.68 262.143H303.455V263.042C303.455 263.276 303.672 263.514 304.099 263.691L312.626 267.276C313.481 267.637 314.863 267.637 315.712 267.276L324.181 263.691C324.609 263.514 324.82 263.276 324.82 263.042Z" fill="#A0A0BF"/>
<path id="Vector_82" d="M299.287 264.425L291.404 267.76H290.18V268.659C290.18 268.894 290.396 269.132 290.824 269.308L299.351 272.893C300.205 273.254 301.588 273.254 302.437 272.893L310.906 269.308C311.333 269.128 311.544 268.893 311.544 268.655V267.768H310.336L302.374 264.421C301.519 264.064 300.137 264.064 299.287 264.425Z" fill="#A0A0BF"/>
<path id="Vector_83" d="M286.012 270.042L278.129 273.377H276.905V274.276C276.905 274.511 277.121 274.749 277.548 274.926L286.075 278.51C286.93 278.872 288.312 278.872 289.162 278.51L297.63 274.926C298.058 274.745 298.269 274.511 298.269 274.276V273.389H297.06L289.098 270.042C288.244 269.681 286.861 269.681 286.012 270.042Z" fill="#A0A0BF"/>
<path id="Vector_84" d="M272.736 275.659L264.853 278.994H263.629V279.894C263.629 280.128 263.846 280.366 264.273 280.543L272.8 284.128C273.654 284.489 275.037 284.489 275.886 284.128L284.355 280.543C284.782 280.362 284.993 280.128 284.993 279.89V279.002H283.785L275.823 275.656C274.968 275.298 273.586 275.298 272.736 275.659Z" fill="#A0A0BF"/>
<path id="Vector_85" d="M259.461 281.277L251.578 284.612H250.354V285.511C250.354 285.745 250.57 285.983 250.998 286.16L259.524 289.745C260.379 290.106 261.761 290.106 262.611 289.745L271.08 286.16C271.507 285.979 271.718 285.745 271.713 285.511V284.623H270.504L262.542 281.277C261.693 280.916 260.31 280.916 259.461 281.277Z" fill="#A0A0BF"/>
<path id="Vector_86" d="M237.728 291.781L246.254 295.366C247.109 295.727 248.491 295.727 249.341 295.366L257.809 291.781C258.237 291.601 258.448 291.366 258.443 291.128V290.24H257.234L249.272 286.894C248.417 286.533 247.035 286.533 246.186 286.894L238.303 290.229H237.079V291.128C237.084 291.366 237.3 291.601 237.728 291.781Z" fill="#A0A0BF"/>
<path id="Vector_87" d="M224.452 297.398L232.979 300.983C233.834 301.344 235.216 301.344 236.065 300.983L244.534 297.398C244.961 297.218 245.173 296.983 245.167 296.745V295.858H243.959L235.997 292.511C235.142 292.15 233.76 292.15 232.91 292.511L225.027 295.846H223.803V296.745C223.808 296.983 224.025 297.218 224.452 297.398Z" fill="#A0A0BF"/>
<path id="Vector_88" d="M219.635 298.128L211.752 301.463H210.528V302.363C210.528 302.597 210.744 302.835 211.172 303.012L219.698 306.597C220.553 306.954 221.935 306.958 222.785 306.597L231.253 303.012C231.681 302.831 231.892 302.597 231.887 302.359V301.471H230.678L222.716 298.125C221.872 297.771 220.49 297.771 219.635 298.128Z" fill="#A0A0BF"/>
<path id="Vector_89" d="M206.359 303.746L198.477 307.081H197.252V307.98C197.252 308.214 197.469 308.448 197.896 308.629L206.423 312.214C207.278 312.575 208.66 312.575 209.509 312.214L217.978 308.629C218.405 308.448 218.617 308.214 218.611 307.98V307.092H217.403L209.441 303.746C208.597 303.388 207.214 303.388 206.359 303.746Z" fill="#A0A0BF"/>
<path id="Vector_90" d="M316.731 256.529V257.425C316.731 257.659 316.947 257.897 317.375 258.078L325.901 261.662C326.756 262.024 328.138 262.024 328.988 261.662L339.509 257.209C339.931 257.029 340.142 256.794 340.142 256.56V255.665L339.018 255.707L330.972 252.326C330.117 251.965 328.735 251.965 327.885 252.326L318.055 256.487L316.731 256.529Z" fill="#A0A0BF"/>
<path id="Vector_91" d="M324.408 264.621V265.52C324.408 265.754 324.624 265.993 325.052 266.173L333.578 269.758C334.433 270.119 335.816 270.119 336.665 269.758L352.958 262.861C353.386 262.681 353.592 262.446 353.592 262.212V261.317L352.626 261.428L344.421 257.978C343.567 257.617 342.184 257.617 341.335 257.978L326.075 264.437L324.408 264.621Z" fill="#A0A0BF"/>
<path id="Vector_92" d="M272.467 271.06L274.768 272.025C275.622 272.386 277.005 272.382 277.854 272.025L286.323 268.44C286.74 268.263 286.946 268.037 286.956 267.806L286.961 266.895L286.096 267.045L284.017 266.173C283.162 265.812 281.78 265.812 280.93 266.173L273.887 269.155L271.829 269.508V270.403C271.824 270.642 272.04 270.88 272.467 271.06Z" fill="#A0A0BF"/>
<path id="Vector_93" d="M259.192 276.678L261.492 277.646C262.347 278.007 263.729 278.003 264.579 277.646L273.048 274.061C273.464 273.884 273.67 273.658 273.681 273.427H273.686V272.517L272.821 272.666L270.742 271.794C269.887 271.437 268.505 271.433 267.655 271.794L260.611 274.776L258.553 275.129V276.024C258.553 276.259 258.764 276.497 259.192 276.678Z" fill="#A0A0BF"/>
<path id="Vector_94" d="M245.916 282.295L248.217 283.259C249.072 283.62 250.454 283.616 251.304 283.259L259.772 279.675C260.189 279.498 260.395 279.271 260.405 279.041H260.411V278.13L259.545 278.28L257.466 277.408C256.612 277.046 255.229 277.046 254.38 277.408L247.336 280.389L245.278 280.743V281.638C245.278 281.876 245.489 282.114 245.916 282.295Z" fill="#A0A0BF"/>
<path id="Vector_95" d="M232.646 287.912L234.947 288.876C235.802 289.238 237.184 289.238 238.034 288.876L246.502 285.292C246.919 285.115 247.125 284.888 247.135 284.658H247.14V283.747L246.275 283.897L244.196 283.025C243.342 282.664 241.959 282.664 241.11 283.025L234.066 286.006L232.008 286.36V287.255C232.003 287.493 232.214 287.731 232.646 287.912Z" fill="#A0A0BF"/>
<path id="Vector_96" d="M219.371 293.529L221.666 294.494C222.521 294.855 223.903 294.851 224.753 294.494L233.221 290.909C233.638 290.732 233.844 290.506 233.855 290.275H233.86V289.364L232.995 289.514L230.916 288.642C230.061 288.285 228.678 288.281 227.829 288.642L220.785 291.624L218.727 291.977V292.872C218.727 293.114 218.944 293.349 219.371 293.529Z" fill="#A0A0BF"/>
<path id="Vector_97" d="M206.096 299.147L208.391 300.111C209.246 300.472 210.628 300.472 211.477 300.111L219.946 296.526C220.363 296.349 220.569 296.123 220.579 295.892H220.584V294.982L219.719 295.131L217.645 294.259C216.791 293.902 215.408 293.898 214.559 294.259L207.515 297.241L205.457 297.594V298.49C205.452 298.732 205.668 298.966 206.096 299.147Z" fill="#A0A0BF"/>
<path id="Vector_98" d="M192.82 304.764L195.121 305.728C195.975 306.089 197.358 306.089 198.208 305.728L206.676 302.144C207.093 301.967 207.299 301.74 207.309 301.51L207.314 300.599L206.449 300.749L204.376 299.877C203.521 299.515 202.138 299.515 201.289 299.877L194.245 302.858L192.187 303.212V304.107C192.176 304.349 192.393 304.583 192.82 304.764Z" fill="#A0A0BF"/>
</g>
<g id="Group_7">
<path id="Vector_99" d="M326.139 249.391C326.993 249.752 326.999 250.332 326.149 250.693L317.681 254.278C316.831 254.639 315.449 254.639 314.594 254.278L312.293 253.314C311.438 252.952 311.433 252.372 312.283 252.011L320.751 248.426C321.601 248.065 322.983 248.065 323.838 248.426L326.139 249.391Z" fill="#B2B2D6"/>
<path id="Vector_100" d="M339.498 255.008C340.353 255.369 340.358 255.949 339.509 256.31L328.988 260.763C328.138 261.125 326.756 261.125 325.901 260.763L317.374 257.179C316.52 256.817 316.514 256.237 317.364 255.876L327.885 251.423C328.735 251.062 330.117 251.066 330.972 251.423L339.498 255.008Z" fill="#B2B2D6"/>
<path id="Vector_101" d="M312.863 255.008C313.718 255.369 313.723 255.949 312.874 256.31L304.405 259.895C303.556 260.256 302.173 260.256 301.318 259.895L299.018 258.931C298.163 258.569 298.158 257.989 299.007 257.628L307.476 254.043C308.325 253.682 309.708 253.682 310.563 254.043L312.863 255.008Z" fill="#B2B2D6"/>
<path id="Vector_102" d="M324.176 261.493C325.031 261.855 325.036 262.435 324.186 262.796L315.718 266.381C314.868 266.742 313.486 266.742 312.631 266.381L304.105 262.796C303.25 262.435 303.244 261.855 304.094 261.493L312.563 257.909C313.412 257.548 314.794 257.548 315.649 257.909L324.176 261.493Z" fill="#B2B2D6"/>
<path id="Vector_103" d="M299.588 260.625C300.443 260.986 300.448 261.566 299.598 261.928L291.13 265.512C290.28 265.874 288.898 265.874 288.043 265.512L285.743 264.548C284.888 264.187 284.883 263.607 285.732 263.245L294.201 259.661C295.05 259.3 296.433 259.3 297.287 259.661L299.588 260.625Z" fill="#B2B2D6"/>
<path id="Vector_104" d="M310.9 267.111C311.755 267.472 311.76 268.052 310.911 268.413L302.442 271.998C301.593 272.359 300.21 272.359 299.356 271.998L290.829 268.413C289.974 268.052 289.969 267.472 290.819 267.111L299.287 263.526C300.137 263.165 301.519 263.165 302.374 263.526L310.9 267.111Z" fill="#B2B2D6"/>
<path id="Vector_105" d="M286.313 266.242C287.167 266.603 287.173 267.184 286.323 267.545L277.855 271.129C277.005 271.491 275.623 271.491 274.768 271.129L272.467 270.165C271.613 269.804 271.607 269.224 272.457 268.863L280.925 265.278C281.775 264.917 283.157 264.917 284.012 265.278L286.313 266.242Z" fill="#B2B2D6"/>
<path id="Vector_106" d="M297.625 272.728C298.48 273.089 298.485 273.669 297.636 274.03L289.167 277.615C288.317 277.976 286.935 277.976 286.08 277.615L277.554 274.03C276.699 273.669 276.694 273.089 277.543 272.728L286.012 269.143C286.861 268.782 288.244 268.782 289.098 269.143L297.625 272.728Z" fill="#B2B2D6"/>
<path id="Vector_107" d="M273.037 271.86C273.892 272.221 273.897 272.801 273.048 273.162L264.579 276.747C263.729 277.108 262.347 277.108 261.492 276.747L259.192 275.782C258.337 275.421 258.332 274.841 259.181 274.48L267.65 270.895C268.499 270.534 269.882 270.534 270.737 270.895L273.037 271.86Z" fill="#B2B2D6"/>
<path id="Vector_108" d="M284.35 278.345C285.204 278.706 285.21 279.286 284.36 279.647L275.892 283.232C275.042 283.593 273.66 283.593 272.805 283.232L264.278 279.647C263.424 279.286 263.418 278.706 264.268 278.345L272.736 274.76C273.586 274.399 274.968 274.399 275.823 274.76L284.35 278.345Z" fill="#B2B2D6"/>
<path id="Vector_109" d="M259.767 277.481C260.622 277.842 260.627 278.422 259.778 278.783L251.309 282.368C250.459 282.729 249.077 282.729 248.222 282.368L245.922 281.403C245.067 281.042 245.062 280.462 245.911 280.101L254.38 276.516C255.229 276.155 256.612 276.155 257.466 276.516L259.767 277.481Z" fill="#B2B2D6"/>
<path id="Vector_110" d="M271.074 283.962C271.929 284.324 271.934 284.904 271.085 285.265L262.616 288.85C261.767 289.207 260.384 289.207 259.529 288.85L251.003 285.265C250.148 284.904 250.143 284.324 250.992 283.962L259.461 280.378C260.31 280.016 261.693 280.016 262.548 280.378L271.074 283.962Z" fill="#B2B2D6"/>
<path id="Vector_111" d="M246.492 283.098C247.346 283.459 247.352 284.039 246.502 284.4L238.034 287.985C237.184 288.346 235.802 288.346 234.947 287.985L232.646 287.021C231.792 286.659 231.786 286.079 232.641 285.718L241.11 282.133C241.959 281.772 243.342 281.772 244.196 282.133L246.492 283.098Z" fill="#B2B2D6"/>
<path id="Vector_112" d="M257.799 289.583C258.654 289.944 258.659 290.525 257.809 290.886L249.341 294.471C248.491 294.828 247.109 294.828 246.254 294.471L237.727 290.886C236.873 290.529 236.868 289.944 237.717 289.583L246.186 285.999C247.035 285.637 248.417 285.637 249.272 285.999L257.799 289.583Z" fill="#B2B2D6"/>
<path id="Vector_113" d="M233.216 288.715C234.071 289.076 234.076 289.656 233.227 290.018L224.758 293.602C223.909 293.963 222.526 293.963 221.671 293.602L219.371 292.638C218.516 292.277 218.511 291.697 219.36 291.335L227.829 287.751C228.678 287.39 230.061 287.39 230.916 287.751L233.216 288.715Z" fill="#B2B2D6"/>
<path id="Vector_114" d="M244.524 295.201C245.378 295.562 245.384 296.142 244.534 296.503L236.065 300.088C235.216 300.449 233.834 300.449 232.979 300.088L224.452 296.503C223.597 296.142 223.592 295.562 224.442 295.201L232.91 291.616C233.76 291.255 235.142 291.255 235.997 291.616L244.524 295.201Z" fill="#B2B2D6"/>
<path id="Vector_115" d="M219.941 294.332C220.796 294.694 220.801 295.274 219.951 295.635L211.483 299.22C210.633 299.581 209.251 299.581 208.396 299.22L206.096 298.255C205.241 297.894 205.236 297.314 206.09 296.953L214.559 293.368C215.408 293.007 216.791 293.007 217.646 293.368L219.941 294.332Z" fill="#B2B2D6"/>
<path id="Vector_116" d="M231.248 300.818C232.103 301.175 232.108 301.759 231.259 302.12L222.79 305.705C221.941 306.062 220.558 306.062 219.703 305.705L211.177 302.12C210.322 301.759 210.317 301.179 211.166 300.818L219.635 297.233C220.484 296.872 221.867 296.872 222.722 297.233L231.248 300.818Z" fill="#B2B2D6"/>
<path id="Vector_117" d="M206.666 299.949C207.52 300.311 207.525 300.891 206.676 301.252L198.208 304.837C197.358 305.198 195.975 305.198 195.121 304.837L192.82 303.872C191.966 303.511 191.96 302.931 192.81 302.57L201.278 298.985C202.128 298.624 203.51 298.624 204.365 298.985L206.666 299.949Z" fill="#B2B2D6"/>
<path id="Vector_118" d="M217.973 306.435C218.827 306.796 218.833 307.376 217.983 307.737L209.515 311.322C208.665 311.68 207.283 311.68 206.428 311.322L197.901 307.737C197.047 307.38 197.041 306.796 197.891 306.435L206.359 302.85C207.209 302.493 208.591 302.493 209.446 302.85L217.973 306.435Z" fill="#B2B2D6"/>
<path id="Vector_119" d="M193.39 305.567C194.245 305.928 194.25 306.508 193.401 306.869L184.932 310.454C184.083 310.815 182.7 310.815 181.845 310.454L179.545 309.49C178.69 309.128 178.685 308.548 179.54 308.187L188.008 304.602C188.858 304.241 190.24 304.241 191.095 304.602L193.39 305.567Z" fill="#B2B2D6"/>
<path id="Vector_120" d="M204.703 312.052C205.557 312.413 205.563 312.994 204.713 313.355L196.245 316.94C195.395 317.301 194.013 317.301 193.158 316.94L184.631 313.355C183.777 312.997 183.771 312.413 184.621 312.052L193.089 308.468C193.939 308.106 195.321 308.106 196.176 308.468L204.703 312.052Z" fill="#B2B2D6"/>
<path id="Vector_121" d="M180.115 311.184C180.969 311.545 180.975 312.125 180.125 312.486L171.657 316.071C170.807 316.432 169.425 316.432 168.57 316.071L166.275 315.107C165.42 314.746 165.415 314.166 166.264 313.804L174.733 310.22C175.582 309.858 176.965 309.858 177.819 310.22L180.115 311.184Z" fill="#B2B2D6"/>
<path id="Vector_122" d="M191.427 317.67C192.282 318.027 192.287 318.611 191.438 318.972L182.969 322.557C182.12 322.918 180.737 322.918 179.883 322.557L171.356 318.972C170.501 318.611 170.496 318.031 171.345 317.67L179.814 314.085C180.663 313.724 182.046 313.724 182.901 314.085L191.427 317.67Z" fill="#B2B2D6"/>
<path id="Vector_123" d="M166.839 316.801C167.694 317.162 167.699 317.743 166.85 318.104L158.381 321.688C157.532 322.05 156.149 322.05 155.295 321.688L152.999 320.724C152.145 320.363 152.139 319.783 152.989 319.422L161.457 315.837C162.307 315.476 163.689 315.476 164.544 315.837L166.839 316.801Z" fill="#B2B2D6"/>
<path id="Vector_124" d="M178.152 323.287C179.007 323.644 179.012 324.228 178.162 324.589L169.694 328.174C168.844 328.535 167.462 328.535 166.607 328.174L158.08 324.589C157.226 324.228 157.22 323.648 158.07 323.287L166.538 319.702C167.388 319.345 168.77 319.345 169.625 319.702L178.152 323.287Z" fill="#B2B2D6"/>
<path id="Vector_125" d="M153.564 322.419C154.419 322.78 154.424 323.36 153.574 323.721L143.053 328.174C142.204 328.535 140.822 328.535 139.967 328.174L137.666 327.21C136.811 326.848 136.806 326.268 137.656 325.907L148.177 321.454C149.026 321.093 150.409 321.093 151.263 321.454L153.564 322.419Z" fill="#B2B2D6"/>
<path id="Vector_126" d="M164.876 328.904C165.731 329.265 165.737 329.845 164.887 330.206L156.418 333.791C155.569 334.152 154.187 334.152 153.332 333.791L144.805 330.206C143.95 329.845 143.945 329.265 144.795 328.904L153.263 325.319C154.113 324.962 155.495 324.962 156.35 325.319L164.876 328.904Z" fill="#B2B2D6"/>
<path id="Vector_127" d="M352.953 260.664C353.808 261.025 353.813 261.605 352.964 261.966L336.67 268.863C335.821 269.224 334.438 269.224 333.583 268.863L325.057 265.278C324.202 264.917 324.197 264.337 325.046 263.975L341.34 257.079C342.189 256.718 343.572 256.721 344.427 257.079L352.953 260.664Z" fill="#B2B2D6"/>
<path id="Vector_128" d="M331.763 269.554C332.618 269.915 332.623 270.496 331.774 270.857L323.305 274.441C322.456 274.803 321.073 274.803 320.219 274.441L311.692 270.857C310.837 270.499 310.832 269.915 311.681 269.554L320.15 265.969C320.999 265.608 322.382 265.612 323.237 265.969L331.763 269.554Z" fill="#B2B2D6"/>
<path id="Vector_129" d="M318.488 275.171C319.343 275.533 319.348 276.113 318.498 276.474L310.03 280.059C309.18 280.42 307.798 280.42 306.943 280.059L298.417 276.474C297.562 276.113 297.556 275.533 298.406 275.171L306.875 271.587C307.724 271.226 309.106 271.226 309.961 271.587L318.488 275.171Z" fill="#B2B2D6"/>
<path id="Vector_130" d="M305.212 280.789C306.067 281.146 306.072 281.73 305.223 282.091L296.754 285.676C295.905 286.037 294.522 286.037 293.668 285.676L285.141 282.091C284.286 281.73 284.281 281.15 285.131 280.789L293.599 277.204C294.449 276.843 295.831 276.843 296.686 277.204L305.212 280.789Z" fill="#B2B2D6"/>
<path id="Vector_131" d="M291.937 286.406C292.792 286.767 292.797 287.347 291.948 287.708L283.479 291.293C282.629 291.654 281.247 291.654 280.392 291.293L271.866 287.708C271.011 287.347 271.006 286.767 271.855 286.406L280.324 282.821C281.173 282.46 282.556 282.46 283.41 282.821L291.937 286.406Z" fill="#B2B2D6"/>
<path id="Vector_132" d="M278.662 292.027C279.517 292.388 279.522 292.968 278.672 293.329L270.204 296.914C269.354 297.275 267.972 297.275 267.117 296.914L258.59 293.329C257.736 292.968 257.73 292.388 258.58 292.027L267.048 288.442C267.898 288.081 269.28 288.081 270.135 288.442L278.662 292.027Z" fill="#B2B2D6"/>
<path id="Vector_133" d="M265.386 297.64C266.241 298.002 266.246 298.582 265.397 298.943L256.928 302.528C256.079 302.889 254.696 302.889 253.842 302.528L245.315 298.943C244.46 298.582 244.455 298.002 245.304 297.64L253.773 294.056C254.623 293.694 256.005 293.694 256.86 294.056L265.386 297.64Z" fill="#B2B2D6"/>
<path id="Vector_134" d="M252.111 303.258C252.966 303.619 252.971 304.199 252.121 304.56L243.653 308.145C242.803 308.506 241.421 308.506 240.566 308.145L232.039 304.56C231.185 304.199 231.18 303.619 232.029 303.258L240.498 299.673C241.347 299.312 242.73 299.312 243.584 299.673L252.111 303.258Z" fill="#B2B2D6"/>
<path id="Vector_135" d="M238.841 308.879C239.696 309.24 239.701 309.82 238.851 310.181L230.383 313.766C229.533 314.127 228.151 314.127 227.296 313.766L218.77 310.181C217.915 309.82 217.909 309.24 218.759 308.879L227.228 305.294C228.077 304.933 229.459 304.933 230.314 305.294L238.841 308.879Z" fill="#B2B2D6"/>
<path id="Vector_136" d="M225.565 314.496C226.42 314.857 226.425 315.437 225.576 315.798L217.107 319.383C216.258 319.744 214.875 319.744 214.021 319.383L205.494 315.798C204.639 315.437 204.634 314.857 205.483 314.496L213.952 310.911C214.801 310.55 216.184 310.55 217.039 310.911L225.565 314.496Z" fill="#B2B2D6"/>
<path id="Vector_137" d="M212.29 320.113C213.145 320.474 213.15 321.054 212.301 321.416L203.832 325C202.982 325.362 201.6 325.362 200.745 325L192.219 321.416C191.364 321.054 191.359 320.474 192.208 320.113L200.677 316.528C201.526 316.167 202.909 316.167 203.763 316.528L212.29 320.113Z" fill="#B2B2D6"/>
<path id="Vector_138" d="M366.403 266.319C367.257 266.68 367.263 267.26 366.413 267.622L343.482 277.327C342.633 277.688 341.25 277.688 340.395 277.327L331.869 273.742C331.014 273.381 331.009 272.801 331.858 272.44L354.789 262.734C355.639 262.373 357.021 262.373 357.876 262.734L366.403 266.319Z" fill="#B2B2D6"/>
<path id="Vector_139" d="M338.665 278.057C339.519 278.414 339.525 278.998 338.675 279.359L330.207 282.944C329.357 283.305 327.975 283.305 327.12 282.944L318.593 279.359C317.738 278.998 317.733 278.418 318.583 278.057L327.051 274.472C327.901 274.111 329.283 274.111 330.138 274.472L338.665 278.057Z" fill="#B2B2D6"/>
<path id="Vector_140" d="M325.389 283.674C326.244 284.035 326.249 284.616 325.4 284.977L316.931 288.561C316.082 288.923 314.699 288.923 313.845 288.561L305.318 284.977C304.463 284.616 304.458 284.035 305.307 283.674L313.776 280.089C314.625 279.728 316.008 279.728 316.863 280.089L325.389 283.674Z" fill="#B2B2D6"/>
<path id="Vector_141" d="M312.114 289.291C312.969 289.652 312.974 290.233 312.125 290.594L303.656 294.179C302.806 294.54 301.424 294.54 300.569 294.179L292.043 290.594C291.188 290.233 291.183 289.652 292.032 289.291L300.501 285.707C301.35 285.346 302.733 285.346 303.587 285.707L312.114 289.291Z" fill="#B2B2D6"/>
<path id="Vector_142" d="M298.839 294.909C299.693 295.27 299.699 295.85 298.849 296.211L290.381 299.796C289.531 300.157 288.149 300.157 287.294 299.796L278.767 296.211C277.913 295.85 277.907 295.27 278.757 294.909L287.225 291.324C288.075 290.963 289.457 290.963 290.312 291.324L298.839 294.909Z" fill="#B2B2D6"/>
<path id="Vector_143" d="M379.942 272.009C380.797 272.371 380.802 272.951 379.952 273.312L370.297 277.4C369.447 277.761 368.065 277.761 367.21 277.4L358.688 273.815C357.834 273.454 357.829 272.874 358.678 272.513L368.334 268.425C369.183 268.063 370.566 268.063 371.421 268.425L379.942 272.009Z" fill="#B2B2D6"/>
<path id="Vector_144" d="M365.479 278.13C366.334 278.491 366.339 279.071 365.49 279.432L357.021 283.017C356.172 283.378 354.789 283.378 353.935 283.017L345.413 279.432C344.558 279.071 344.548 278.491 345.403 278.13L353.871 274.545C354.721 274.184 356.103 274.184 356.963 274.545L365.479 278.13Z" fill="#B2B2D6"/>
<path id="Vector_145" d="M352.204 283.747C353.059 284.108 353.064 284.688 352.215 285.05L343.746 288.634C342.897 288.996 341.514 288.996 340.659 288.634L332.138 285.05C331.283 284.688 331.273 284.108 332.127 283.747L340.596 280.162C341.445 279.801 342.828 279.801 343.688 280.162L352.204 283.747Z" fill="#B2B2D6"/>
<path id="Vector_146" d="M338.929 289.364C339.783 289.726 339.789 290.306 338.939 290.667L330.471 294.252C329.621 294.613 328.239 294.613 327.384 294.252L318.863 290.667C318.008 290.306 317.997 289.726 318.852 289.364L327.321 285.78C328.17 285.418 329.553 285.418 330.413 285.78L338.929 289.364Z" fill="#B2B2D6"/>
<path id="Vector_147" d="M325.653 294.985C326.508 295.347 326.513 295.927 325.664 296.288L317.195 299.873C316.346 300.234 314.963 300.234 314.108 299.873L305.587 296.288C304.732 295.927 304.727 295.347 305.577 294.985L314.045 291.401C314.895 291.04 316.277 291.04 317.132 291.401L325.653 294.985Z" fill="#B2B2D6"/>
<path id="Vector_148" d="M312.378 300.603C313.233 300.964 313.238 301.544 312.388 301.905L303.92 305.49C303.07 305.851 301.688 305.851 300.833 305.49L292.312 301.905C291.457 301.544 291.452 300.964 292.301 300.603L300.77 297.018C301.619 296.657 303.002 296.657 303.856 297.018L312.378 300.603Z" fill="#B2B2D6"/>
<path id="Vector_149" d="M285.563 300.526C286.418 300.887 286.423 301.467 285.574 301.828L277.105 305.413C276.256 305.77 274.873 305.77 274.018 305.413L265.492 301.828C264.637 301.471 264.632 300.887 265.481 300.526L273.95 296.941C274.799 296.58 276.182 296.58 277.037 296.941L285.563 300.526Z" fill="#B2B2D6"/>
<path id="Vector_150" d="M272.288 306.143C273.143 306.504 273.148 307.084 272.298 307.446L263.83 311.03C262.98 311.391 261.598 311.391 260.743 311.03L252.217 307.446C251.362 307.084 251.356 306.504 252.206 306.143L260.675 302.558C261.524 302.197 262.906 302.197 263.761 302.558L272.288 306.143Z" fill="#B2B2D6"/>
<path id="Vector_151" d="M299.102 306.22C299.957 306.581 299.962 307.161 299.113 307.522L290.644 311.107C289.795 311.468 288.412 311.468 287.558 311.107L279.036 307.522C278.182 307.161 278.176 306.581 279.026 306.22L287.494 302.635C288.344 302.274 289.726 302.274 290.581 302.635L299.102 306.22Z" fill="#B2B2D6"/>
<path id="Vector_152" d="M285.827 311.837C286.682 312.198 286.687 312.779 285.838 313.14L277.369 316.724C276.519 317.086 275.137 317.086 274.282 316.724L265.761 313.14C264.906 312.779 264.901 312.195 265.75 311.837L274.219 308.252C275.068 307.891 276.451 307.891 277.306 308.252L285.827 311.837Z" fill="#B2B2D6"/>
<path id="Vector_153" d="M259.012 311.76C259.867 312.121 259.873 312.702 259.023 313.063L250.554 316.648C249.705 317.005 248.323 317.005 247.468 316.648L238.941 313.063C238.086 312.702 238.081 312.121 238.931 311.76L247.399 308.176C248.249 307.814 249.631 307.814 250.486 308.176L259.012 311.76Z" fill="#B2B2D6"/>
<path id="Vector_154" d="M245.737 317.378C246.592 317.739 246.597 318.319 245.748 318.68L237.279 322.265C236.43 322.622 235.047 322.622 234.192 322.265L225.666 318.68C224.811 318.323 224.806 317.739 225.655 317.378L234.124 313.793C234.973 313.432 236.356 313.432 237.21 313.793L245.737 317.378Z" fill="#B2B2D6"/>
<path id="Vector_155" d="M272.552 317.454C273.406 317.816 273.412 318.396 272.562 318.757L264.094 322.342C263.244 322.703 261.862 322.703 261.007 322.342L252.486 318.757C251.631 318.396 251.626 317.812 252.475 317.454L260.944 313.87C261.793 313.508 263.176 313.508 264.03 313.87L272.552 317.454Z" fill="#B2B2D6"/>
<path id="Vector_156" d="M259.276 323.072C260.131 323.433 260.136 324.013 259.287 324.374L250.818 327.959C249.969 328.32 248.586 328.32 247.732 327.959L239.21 324.374C238.355 324.013 238.35 323.433 239.2 323.072L247.668 319.487C248.518 319.126 249.9 319.126 250.755 319.487L259.276 323.072Z" fill="#B2B2D6"/>
<path id="Vector_157" d="M393.302 277.627C394.157 277.988 394.162 278.568 393.312 278.929L384.844 282.514C383.994 282.875 382.612 282.875 381.757 282.514L373.236 278.929C372.381 278.568 372.376 277.984 373.225 277.627L381.694 274.042C382.543 273.681 383.926 273.681 384.78 274.042L393.302 277.627Z" fill="#B2B2D6"/>
<path id="Vector_158" d="M373.478 280.766C374.333 281.127 374.338 281.707 373.489 282.068L365.02 285.653C364.171 286.01 362.788 286.01 361.934 285.653L359.633 284.688C358.778 284.327 358.773 283.743 359.623 283.386L368.091 279.801C368.941 279.44 370.323 279.44 371.178 279.801L373.478 280.766Z" fill="#B2B2D6"/>
<path id="Vector_159" d="M379.704 283.382C380.559 283.743 380.564 284.323 379.715 284.685L371.246 288.269C370.397 288.631 369.014 288.631 368.16 288.269L365.859 287.305C365.004 286.944 364.999 286.364 365.849 286.003L374.317 282.418C375.167 282.057 376.549 282.057 377.404 282.418L379.704 283.382Z" fill="#B2B2D6"/>
<path id="Vector_160" d="M366.429 288.999C367.284 289.361 367.289 289.941 366.44 290.302L357.971 293.887C357.121 294.248 355.739 294.248 354.884 293.887L346.363 290.302C345.508 289.941 345.503 289.357 346.352 288.999L354.821 285.415C355.671 285.053 357.053 285.053 357.908 285.415L366.429 288.999Z" fill="#B2B2D6"/>
<path id="Vector_161" d="M353.154 294.617C354.008 294.978 354.014 295.558 353.164 295.919L344.696 299.504C343.846 299.865 342.464 299.865 341.609 299.504L333.088 295.919C332.233 295.558 332.228 294.974 333.077 294.617L341.546 291.032C342.395 290.671 343.778 290.671 344.632 291.032L353.154 294.617Z" fill="#B2B2D6"/>
<path id="Vector_162" d="M339.878 300.234C340.733 300.595 340.738 301.175 339.889 301.536L263.318 333.941C262.468 334.302 261.086 334.302 260.231 333.941L251.71 330.356C250.855 329.995 250.85 329.411 251.699 329.054L328.27 296.649C329.12 296.288 330.502 296.288 331.357 296.649L339.878 300.234Z" fill="#B2B2D6"/>
<path id="Vector_163" d="M232.467 322.995C233.322 323.356 233.327 323.936 232.478 324.297L224.009 327.882C223.159 328.239 221.777 328.239 220.922 327.882L212.396 324.297C211.541 323.94 211.535 323.356 212.385 322.995L220.854 319.41C221.703 319.049 223.086 319.049 223.94 319.41L232.467 322.995Z" fill="#B2B2D6"/>
<path id="Vector_164" d="M246.006 328.689C246.861 329.05 246.866 329.63 246.017 329.991L237.548 333.576C236.699 333.937 235.316 333.937 234.461 333.576L225.94 329.991C225.085 329.63 225.08 329.05 225.93 328.689L234.398 325.104C235.247 324.743 236.63 324.743 237.485 325.104L246.006 328.689Z" fill="#B2B2D6"/>
<path id="Vector_165" d="M258.501 334.671C259.356 335.032 259.361 335.612 258.511 335.974L250.043 339.558C249.193 339.919 247.811 339.919 246.956 339.558L238.435 335.974C237.58 335.612 237.574 335.028 238.424 334.671L246.893 331.086C247.742 330.725 249.124 330.725 249.979 331.086L258.501 334.671Z" fill="#B2B2D6"/>
<path id="Vector_166" d="M199.015 325.73C199.869 326.092 199.875 326.672 199.025 327.033L190.557 330.618C189.707 330.979 188.325 330.979 187.47 330.618L178.943 327.033C178.089 326.672 178.083 326.092 178.933 325.73L187.401 322.146C188.251 321.785 189.633 321.785 190.488 322.146L199.015 325.73Z" fill="#B2B2D6"/>
<path id="Vector_167" d="M219.192 328.616C220.046 328.977 220.052 329.557 219.202 329.918L210.734 333.503C209.884 333.864 208.502 333.864 207.647 333.503L199.12 329.918C198.266 329.557 198.26 328.977 199.11 328.616L207.578 325.031C208.428 324.67 209.81 324.67 210.665 325.031L219.192 328.616Z" fill="#B2B2D6"/>
<path id="Vector_168" d="M232.731 334.306C233.586 334.667 233.591 335.247 232.741 335.609L224.273 339.193C223.423 339.554 222.041 339.554 221.186 339.193L212.665 335.609C211.81 335.247 211.805 334.663 212.654 334.306L221.123 330.721C221.972 330.36 223.355 330.36 224.209 330.721L232.731 334.306Z" fill="#B2B2D6"/>
<path id="Vector_169" d="M245.225 340.288C246.08 340.649 246.085 341.23 245.236 341.591L236.767 345.176C235.918 345.537 234.535 345.537 233.681 345.176L225.159 341.591C224.304 341.23 224.299 340.646 225.149 340.288L233.617 336.704C234.467 336.342 235.849 336.342 236.704 336.704L245.225 340.288Z" fill="#B2B2D6"/>
<path id="Vector_170" d="M185.829 331.386C186.684 331.747 186.689 332.327 185.84 332.689L169.868 339.447C169.018 339.808 167.636 339.808 166.781 339.447L158.254 335.862C157.4 335.501 157.395 334.921 158.244 334.56L174.216 327.801C175.065 327.44 176.448 327.44 177.302 327.801L185.829 331.386Z" fill="#B2B2D6"/>
<path id="Vector_171" d="M205.916 334.233C206.771 334.594 206.776 335.174 205.927 335.536L183.317 345.103C182.468 345.464 181.085 345.464 180.231 345.103L171.704 341.518C170.849 341.157 170.844 340.576 171.694 340.215L194.303 330.648C195.152 330.287 196.535 330.287 197.39 330.648L205.916 334.233Z" fill="#B2B2D6"/>
<path id="Vector_172" d="M219.455 339.923C220.31 340.285 220.315 340.865 219.461 341.226L196.851 350.793C196.002 351.154 194.619 351.154 193.765 350.793L185.243 347.208C184.389 346.847 184.383 346.263 185.233 345.906L207.842 336.339C208.692 335.977 210.074 335.977 210.934 336.339L219.455 339.923Z" fill="#B2B2D6"/>
<path id="Vector_173" d="M231.955 345.906C232.81 346.267 232.815 346.847 231.966 347.208L223.497 350.793C222.648 351.154 221.265 351.154 220.41 350.793L211.889 347.208C211.034 346.847 211.029 346.263 211.879 345.906L220.347 342.321C221.197 341.96 222.579 341.96 223.434 342.321L231.955 345.906Z" fill="#B2B2D6"/>
<path id="Vector_174" d="M218.68 351.523C219.535 351.884 219.54 352.464 218.69 352.825L210.222 356.41C209.372 356.771 207.99 356.771 207.135 356.41L198.614 352.825C197.759 352.464 197.754 351.88 198.603 351.523L207.072 347.938C207.921 347.577 209.304 347.577 210.158 347.938L218.68 351.523Z" fill="#B2B2D6"/>
</g>
</g>
</g>
<g id="Group_8">
<g id="Group_9">
<path id="Vector_175" d="M237.2 144.769C241.585 146.613 246.37 150.382 248.634 153.997L249.61 155.557C253.773 162.212 256.976 168.594 259.139 174.565C260.057 177.089 260.785 179.532 261.324 181.888L267.26 207.818C267.792 210.104 265.502 210.731 261.999 209.251C258.495 207.784 254.855 204.668 253.61 202.078L244.302 182.748C239.796 173.381 235.923 164.248 232.704 155.388L229.845 147.512C228.737 144.469 230.631 142.986 234.493 143.877C235.005 144.304 236.277 144.381 237.2 144.769Z" fill="#CFD0E0"/>
<path id="Vector_176" d="M275.601 209.532L269.66 183.597C269.085 181.104 268.315 178.518 267.344 175.844C265.049 169.524 261.661 162.765 257.245 155.711L256.269 154.155C252.591 148.276 244.803 142.137 237.654 139.128C236.145 138.494 234.667 138.003 233.264 137.676C226.974 136.227 223.898 138.637 225.697 143.597L228.557 151.473C231.828 160.483 235.77 169.77 240.35 179.294L249.657 198.624C252.037 203.561 258.918 209.444 265.597 212.252C272.283 215.065 276.604 213.889 275.601 209.532ZM262.009 209.252C258.506 207.784 254.865 204.668 253.62 202.078L244.312 182.748C239.806 173.381 235.933 164.248 232.715 155.388L229.855 147.512C228.747 144.469 230.641 142.986 234.504 143.877C235.01 144.304 236.282 144.381 237.205 144.769C241.59 146.613 246.375 150.382 248.639 153.997L249.615 155.557C253.778 162.212 256.981 168.594 259.144 174.565C260.062 177.089 260.791 179.532 261.329 181.888L267.265 207.818C267.798 210.105 265.513 210.727 262.009 209.252Z" fill="#CFD0E0"/>
<path id="Vector_177" d="M284.445 203.799L278.503 177.865C277.928 175.371 277.158 172.786 276.187 170.111C273.892 163.791 270.504 157.033 266.088 149.979L265.112 148.423C261.434 142.544 253.646 136.404 246.497 133.396C244.988 132.762 243.511 132.266 242.107 131.943C239.158 131.263 236.91 131.433 235.548 132.316L226.705 138.049C228.072 137.165 230.314 136.996 233.264 137.676C234.672 138.003 236.15 138.494 237.654 139.128C244.808 142.137 252.591 148.277 256.269 154.155L257.245 155.711C261.656 162.761 265.049 169.524 267.344 175.844C268.315 178.518 269.085 181.104 269.66 183.597L275.601 209.532C275.992 211.234 275.57 212.448 274.515 213.132L283.358 207.4C284.413 206.716 284.835 205.502 284.445 203.799Z" fill="url(#paint0_linear_23_6065)"/>
</g>
<path id="Vector_178" d="M258.49 164.46C258.49 170.223 251.784 235.098 192.451 235.098C133.123 235.098 125.647 166.819 125.647 164.475C128.369 164.475 258.49 164.46 258.49 164.46Z" fill="url(#paint1_linear_23_6065)"/>
<g id="Group_10">
<g id="Group_11">
<path id="Vector_179" d="M210.665 152.972C200.144 157.271 183.317 157.148 173.092 152.695C162.861 148.242 163.104 141.146 173.625 136.846C184.146 132.547 200.972 132.67 211.198 137.123C221.429 141.58 221.191 148.672 210.665 152.972Z" fill="#C0BACA"/>
<path id="Vector_180" d="M257.862 160.629C257.467 159.503 256.891 158.009 256.359 156.914C255.789 155.753 254.907 154.232 254.185 153.118C252.913 151.151 250.813 148.638 248.956 146.863C247.9 145.856 245.436 143.497 241.395 140.881C237.353 138.264 233.971 136.754 231.95 135.851C230.657 135.275 228.863 134.583 227.512 134.084C226.452 133.688 225.006 133.211 223.914 132.866C220.912 131.909 218.432 131.329 216.026 130.772C215.699 130.695 212.702 130.011 208.248 129.373C205.315 128.954 202.254 128.666 200.524 128.551C199.374 128.474 197.838 128.363 196.683 128.336C195.527 128.309 193.992 128.255 192.836 128.244C191.681 128.236 190.14 128.267 188.984 128.278C186.568 128.301 183.618 128.536 181.244 128.728C181.207 128.732 177.429 129.054 173.419 129.723C172.147 129.934 170.454 130.245 169.198 130.503C168.063 130.737 166.565 131.095 165.441 131.356C164.043 131.679 162.228 132.209 160.872 132.616C159.764 132.946 158.323 133.45 157.236 133.811C155.775 134.295 153.891 135.04 152.524 135.647C150.519 136.535 147.892 137.787 146.029 138.829C144.188 139.858 141.84 141.338 140.215 142.544C138.848 143.555 137.07 144.942 135.914 146.079C135.25 146.732 134.326 147.585 133.719 148.265C132.791 149.303 131.635 150.724 130.791 151.804C130 152.814 129.113 154.232 128.543 155.319C127.762 156.806 126.902 158.835 126.311 160.368C123.531 168.652 129.546 177.381 144.446 183.867C170.016 194.997 212.069 195.305 238.371 184.558C254.127 178.111 260.659 169.163 257.862 160.629ZM210.665 152.972C200.144 157.271 183.317 157.148 173.092 152.695C162.861 148.242 163.104 141.146 173.625 136.846C184.146 132.547 200.972 132.67 211.198 137.123C221.424 141.576 221.191 148.672 210.665 152.972Z" fill="url(#paint2_linear_23_6065)"/>
<path id="Vector_181" d="M207.446 233.561C202.867 234.552 197.88 235.094 192.456 235.094C147.533 235.094 132.337 195.942 127.609 175.913C136.395 171.072 133.603 162.062 138.764 159.872C140.937 158.954 142.246 158.428 142.246 158.428C142.921 158.831 151.401 162.75 154.292 165.401C164.249 174.53 160.328 204.272 166.797 218.407C172.364 230.579 188.826 234.398 207.446 233.561Z" fill="#EBEBEB"/>
</g>
</g>
<path id="Vector_182" d="M226.014 161.025C207.246 168.917 176.717 168.874 157.833 160.936C138.943 152.995 138.848 140.162 157.616 132.27C176.384 124.378 206.914 124.421 225.798 132.358C244.687 140.3 244.787 153.133 226.014 161.025Z" fill="#D4D5E6"/>
<g id="Group_12">
<g id="Group_13">
<path id="Vector_183" d="M149.253 150.251C150.757 150.916 152.809 151.754 154.403 152.299C158.365 153.659 158.365 153.659 162.476 154.789C163.71 155.127 165.383 155.53 166.66 155.784C168.976 156.245 172.084 156.795 174.432 157.167C175.672 157.363 177.35 157.571 178.611 157.686C179.824 157.794 181.439 157.959 182.658 158.047C183.877 158.135 185.502 158.224 186.726 158.274C187.95 158.324 189.58 158.362 190.799 158.37C192.029 158.377 193.664 158.347 194.889 158.335C196.15 158.324 197.827 158.251 199.083 158.162C201.516 157.989 204.745 157.69 207.161 157.421C208.47 157.275 210.206 157.021 211.493 156.795C212.675 156.587 214.248 156.318 215.419 156.076C216.822 155.788 218.669 155.358 220.057 155.031C221.693 154.647 223.83 154.024 225.413 153.533C227.534 152.872 230.298 151.876 232.319 151.066C234.05 150.374 236.261 149.333 237.907 148.538C239.041 147.992 240.503 147.197 241.553 146.567C243.083 145.648 245.046 144.357 246.492 143.37C243.605 145.452 240.002 147.4 235.68 149.156C210.464 159.392 170.417 159.1 146.23 148.495C142.758 146.974 139.808 145.326 137.365 143.585C138.553 144.4 140.178 145.452 141.412 146.225C141.998 146.59 142.816 147.039 143.428 147.381C145.09 148.323 147.449 149.452 149.253 150.251Z" fill="url(#paint3_linear_23_6065)"/>
</g>
<path id="Vector_184" d="M199.078 158.158C232.451 158.158 267.186 134.018 267.186 117.558C267.186 111.641 266.658 102.109 262.653 92.3232C255.525 74.8913 122.623 83.5207 119.964 95.9271C119.32 98.9355 119.183 101.091 119.009 101.813C118.138 105.502 112.725 126.303 133.303 140.704C153.886 155.108 173.772 158.158 199.078 158.158Z" fill="url(#paint4_linear_23_6065)"/>
<path id="Vector_185" d="M263.624 94.8936C263.191 93.668 262.569 92.039 261.988 90.8479C261.366 89.58 260.405 87.9278 259.619 86.7098C258.232 84.5697 255.947 81.8304 253.926 79.9016C252.781 78.8028 250.09 76.2361 245.689 73.3853C241.284 70.5344 237.601 68.89 235.4 67.9064C233.992 67.2762 232.039 66.527 230.567 65.9814C229.412 65.5511 227.834 65.0324 226.647 64.652C223.381 63.6069 220.674 62.9807 218.057 62.3736C217.704 62.2891 214.437 61.5437 209.588 60.8483C206.396 60.3911 203.062 60.0799 201.173 59.9531C199.922 59.8685 198.249 59.7494 196.994 59.7187C195.738 59.6879 194.065 59.6303 192.804 59.6188C191.548 59.6111 189.871 59.6457 188.61 59.6572C185.977 59.6803 182.763 59.9378 180.178 60.1452C180.141 60.1491 176.02 60.5025 171.657 61.2287C170.269 61.4592 168.427 61.7973 167.061 62.0778C165.821 62.3314 164.196 62.7233 162.972 63.0076C161.452 63.3611 159.468 63.9374 157.991 64.3793C156.782 64.7404 155.215 65.286 154.028 65.6817C152.44 66.2081 150.387 67.0189 148.894 67.6797C146.71 68.6479 143.845 70.008 141.819 71.1452C139.814 72.2672 137.255 73.8809 135.487 75.1911C134.004 76.2938 132.063 77.8038 130.802 79.041C130.079 79.7518 129.071 80.6816 128.411 81.4231C127.398 82.5527 126.137 84.101 125.224 85.2767C124.364 86.3794 123.399 87.9201 122.776 89.1035C121.927 90.7211 120.993 92.9342 120.344 94.6017C117.315 103.623 123.868 113.132 140.093 120.194C167.942 132.316 213.741 132.654 242.392 120.947C259.556 113.935 266.668 104.188 263.624 94.8936Z" fill="url(#paint5_linear_23_6065)"/>
<g id="Group_14">
<path id="Vector_186" d="M266.326 112.514C266.479 115.91 266.289 117.839 265.55 119.929C262.896 126.349 255.847 132.247 243.848 137.119C223.476 145.391 194.957 147.873 169.752 144.657C161.89 143.366 158.946 142.886 155.105 118.419C154.593 111.538 157.832 111.042 160.713 111.376C185.169 116.84 216.221 115.353 237.305 106.793C251.056 101.21 257.841 93.7256 257.567 86.2756C257.583 86.1258 257.598 85.9221 257.614 85.7723C258.084 85.9567 258.395 86.0796 258.706 86.4139C258.706 86.4139 265.175 95.3776 266.326 112.514Z" fill="#003447"/>
</g>
<path id="Vector_187" d="M202.545 122.35C196.709 122.561 191.981 127.152 191.981 132.604C191.981 133.553 192.129 134.46 192.393 135.321C195.421 134.483 198.878 133.945 202.545 133.811C206.212 133.676 209.668 133.965 212.696 134.579C212.966 133.703 213.108 132.781 213.108 131.836C213.108 126.384 208.375 122.138 202.545 122.35Z" fill="#00BBFF"/>
<path id="Vector_188" d="M243.991 111.853C240.118 114.093 238.118 119.914 239.527 124.851C239.769 125.708 240.102 126.484 240.503 127.164C242.328 125.343 244.513 123.641 246.951 122.234C249.383 120.828 251.784 119.875 253.984 119.368C253.936 118.481 253.799 117.597 253.551 116.736C252.148 111.799 247.869 109.613 243.991 111.853Z" fill="#00BBFF"/>
</g>
<g id="Group_15">
<path id="Vector_189" d="M135.25 165.605C139.634 167.449 142.89 171.864 142.842 176.459L142.821 178.43C142.732 186.89 141.56 195.124 139.339 202.951C138.4 206.259 137.276 209.49 135.967 212.625L121.573 247.166C120.312 250.213 116.645 251.419 113.147 249.94C109.643 248.472 107.375 244.772 107.923 241.426L111.997 216.436C113.97 204.33 116.608 192.442 119.906 180.82L122.834 170.496C123.963 166.504 127.836 164.183 132.332 164.806C132.654 165.309 134.326 165.217 135.25 165.605Z" fill="url(#paint6_linear_23_6065)"/>
<path id="Vector_190" d="M138.885 159.538C137.376 158.904 135.788 158.454 134.147 158.228C126.823 157.217 120.534 160.986 118.687 167.491L115.759 177.815C112.403 189.633 109.717 201.721 107.712 214.031L103.639 239.024C102.599 245.406 106.884 252.391 113.564 255.2C120.244 258.008 127.156 255.73 129.577 249.928L143.971 215.387C145.354 212.068 146.546 208.648 147.538 205.144C149.892 196.857 151.126 188.139 151.226 179.183L151.248 177.208C151.332 169.739 146.04 162.546 138.885 159.538ZM139.339 202.946C138.4 206.255 137.276 209.486 135.967 212.621L121.573 247.162C120.312 250.209 116.645 251.415 113.147 249.936C109.643 248.468 107.375 244.768 107.923 241.422L111.996 216.432C113.97 204.326 116.608 192.438 119.906 180.816L122.834 170.492C123.963 166.5 127.836 164.179 132.332 164.802C132.648 165.309 134.326 165.217 135.25 165.605C139.634 167.449 142.89 171.863 142.842 176.459L142.821 178.43C142.731 186.89 141.56 195.124 139.339 202.946Z" fill="url(#paint7_linear_23_6065)"/>
<path id="Vector_191" d="M147.712 157.793C146.203 157.16 144.615 156.71 142.974 156.487C141.101 156.23 139.297 156.283 137.619 156.614L128.791 158.358C130.469 158.028 132.274 157.974 134.147 158.232C135.788 158.458 137.376 158.904 138.885 159.542C146.04 162.55 151.332 169.739 151.253 177.212L151.232 179.187C151.137 188.143 149.897 196.864 147.544 205.148C146.552 208.652 145.359 212.072 143.977 215.391L129.583 249.932C128.179 253.294 125.272 255.473 121.774 256.164L130.601 254.42C134.099 253.728 137.012 251.55 138.41 248.188L152.804 213.647C154.187 210.327 155.379 206.908 156.371 203.404C158.724 195.12 159.959 186.398 160.059 177.442L160.08 175.467C160.159 167.994 154.867 160.802 147.712 157.793Z" fill="url(#paint8_linear_23_6065)"/>
</g>
</g>
<g id="Group_16">
<g id="Group_17">
<g id="Group_18">
<g id="Group_19">
<g id="Clip path group">
<mask id="mask0_23_6065" style="mask-type:luminance" maskUnits="userSpaceOnUse" x="136" y="22" width="110" height="79">
<g id="SVGID_00000077305382305133767010000009234144723743637643_">
<path id="Vector_192" d="M245.299 23.0607L245.088 77.5271C245.067 83.3518 239.807 89.1727 229.301 93.618C208.159 102.566 173.757 102.566 152.472 93.618C141.761 89.115 136.416 83.2058 136.437 77.3042L136.648 22.8378C136.627 28.7394 141.972 34.6486 152.683 39.1516C173.968 48.1 208.37 48.1 229.512 39.1516C240.018 34.7024 245.278 28.8854 245.299 23.0607Z" fill="white"/>
</g>
</mask>
<g mask="url(#mask0_23_6065)">
<g id="Group_20">
<path id="Vector_193" d="M245.299 23.0607L245.088 77.5271C245.067 83.3557 239.807 89.1727 229.301 93.618C208.159 102.566 173.757 102.566 152.472 93.618C141.761 89.115 136.416 83.2058 136.437 77.3042L136.648 22.8378C136.627 28.7394 141.972 34.6486 152.683 39.1516C173.968 48.1 208.37 48.1 229.512 39.1516C240.018 34.7024 245.278 28.8854 245.299 23.0607Z" fill="#1E232B"/>
</g>
</g>
</g>
<g id="Clip path group_2">
<mask id="mask1_23_6065" style="mask-type:luminance" maskUnits="userSpaceOnUse" x="136" y="22" width="110" height="79">
<g id="SVGID_00000077305382305133767010000009234144723743637643__2">
<path id="Vector_194" d="M245.299 23.0607L245.088 77.5271C245.067 83.3518 239.807 89.1727 229.301 93.618C208.159 102.566 173.757 102.566 152.472 93.618C141.761 89.115 136.416 83.2058 136.437 77.3042L136.648 22.8378C136.627 28.7394 141.972 34.6486 152.683 39.1516C173.968 48.1 208.37 48.1 229.512 39.1516C240.018 34.7024 245.278 28.8854 245.299 23.0607Z" fill="white"/>
</g>
</mask>
<g mask="url(#mask1_23_6065)">
<g id="Group_21">
<path id="Vector_195" d="M245.299 8.50665L245.088 62.973C245.067 68.7978 239.807 74.6186 229.301 79.064C208.159 88.0123 173.757 88.0123 152.472 79.064C141.761 74.5609 136.416 68.6517 136.437 62.7501L136.648 8.28375C136.627 14.1853 141.972 20.0946 152.683 24.5976C173.968 33.5459 208.37 33.5459 229.512 24.5976C240.018 20.1483 245.278 14.3314 245.299 8.50665Z" fill="#15161C"/>
</g>
</g>
</g>
</g>
<g id="Group_22">
<path id="Vector_196" d="M229.259 19.5758C250.544 28.5242 250.66 43.0322 229.507 51.9844C208.365 60.9328 173.962 60.9328 152.678 51.9844C131.393 43.036 131.282 28.5281 152.43 19.5797C173.577 10.6275 207.979 10.6275 229.259 19.5758Z" fill="#222931"/>
</g>
</g>
</g>
<g id="Group_23">
<g id="Group_24">
<g id="Group_25">
<path id="Vector_197" d="M290.887 42.183L290.877 44.5844L191.19 86.7713L191.195 84.37L290.887 42.183Z" fill="#232931"/>
</g>
<g id="Group_26">
<path id="Vector_198" d="M191.195 84.37L191.19 86.7713L90.8488 44.5883L90.8541 42.183L191.195 84.37Z" fill="#181C22"/>
</g>
<g id="Group_27">
<path id="Vector_199" d="M290.886 42.1831L191.194 84.37L90.8531 42.1831L190.545 0L290.886 42.1831Z" fill="#272E37"/>
</g>
</g>
</g>
</g>
<g id="Group_28">
<g id="Group_29">
<g id="Group_30">
<g id="Group_31">
<path id="Vector_200" d="M140.763 102.113C140.763 102.113 140.647 101.783 140.383 101.345C140.257 101.126 140.083 100.883 139.877 100.641C139.661 100.392 139.45 100.188 139.096 99.9345C139.07 100.442 138.853 100.81 138.663 101.218C138.463 101.61 138.226 101.982 137.967 102.34C137.967 102.34 138.041 102.647 138.194 103.035C138.352 103.423 138.574 103.9 138.959 104.257C139.634 103.596 140.236 102.889 140.763 102.113Z" fill="#D5C197"/>
<path id="Vector_201" d="M141.286 103.127C141.128 102.785 140.953 102.447 140.764 102.113C140.236 102.889 139.634 103.596 138.959 104.253C139.091 104.553 139.181 104.864 139.286 105.171C140.009 104.545 140.684 103.865 141.286 103.127Z" fill="#81765D"/>
</g>
<g id="Group_32">
<path id="Vector_202" d="M142.088 105.398C142.088 105.398 142.061 105.064 141.956 104.607C141.84 104.153 141.629 103.581 141.286 103.127C140.684 103.865 140.009 104.545 139.291 105.171C139.291 105.171 139.265 105.49 139.312 105.905C139.349 106.32 139.45 106.827 139.74 107.238C140.563 106.674 141.344 106.063 142.088 105.398Z" fill="#D5C197"/>
<path id="Vector_203" d="M142.315 106.451C142.246 106.101 142.172 105.748 142.088 105.398C141.344 106.063 140.563 106.674 139.74 107.238C139.798 107.557 139.803 107.88 139.84 108.199C140.7 107.661 141.523 107.081 142.315 106.451Z" fill="#81765D"/>
</g>
<g id="Group_33">
<path id="Vector_204" d="M142.552 108.741C142.552 108.741 142.563 108.656 142.578 108.526C142.594 108.391 142.605 108.199 142.6 107.968C142.605 107.511 142.526 106.931 142.315 106.447C141.523 107.081 140.7 107.661 139.84 108.195C139.84 108.195 139.75 108.51 139.708 108.948C139.671 109.382 139.687 109.928 139.94 110.374C140.816 109.84 141.692 109.298 142.552 108.741Z" fill="#D5C197"/>
<path id="Vector_205" d="M142.6 109.759L142.552 108.741C141.692 109.294 140.811 109.84 139.94 110.374L139.967 111.376C140.848 110.846 141.729 110.308 142.6 109.759Z" fill="#81765D"/>
</g>
<g id="Group_34">
<path id="Vector_206" d="M142.658 111.983C142.658 111.983 142.89 110.712 142.6 109.759C141.729 110.304 140.848 110.846 139.967 111.376C139.967 111.376 139.518 112.675 139.988 113.57L142.658 111.983Z" fill="#D5C197"/>
<path id="Vector_207" d="M142.668 112.998L142.658 111.983L139.988 113.57V114.573L142.668 112.998Z" fill="#81765D"/>
</g>
<g id="Group_35">
<path id="Vector_208" d="M142.663 115.219C142.663 115.219 142.927 113.951 142.668 113.002L139.988 114.577C139.988 114.577 139.508 115.872 139.956 116.775L142.663 115.219Z" fill="#D5C197"/>
<path id="Vector_209" d="M142.647 116.229L142.663 115.219L139.956 116.771L139.935 117.774L142.647 116.229Z" fill="#81765D"/>
</g>
<g id="Group_36">
<path id="Vector_210" d="M142.594 118.446C142.594 118.446 142.885 117.182 142.647 116.229L139.935 117.774C139.935 117.774 139.428 119.068 139.861 119.968L142.594 118.446Z" fill="#D5C197"/>
</g>
</g>
<g id="Group_37">
<g id="Group_38">
<path id="Vector_211" d="M138.347 102.893C138.347 102.893 138.558 102.639 138.822 102.301C138.954 102.128 139.096 101.944 139.244 101.748C139.376 101.564 139.55 101.337 139.592 101.218C139.122 101.129 138.521 101.199 137.967 101.252C137.402 101.314 136.827 101.406 136.257 101.521C136.257 101.521 135.935 101.802 135.635 102.228C135.329 102.651 135.06 103.22 135.107 103.731C136.178 103.373 137.276 103.089 138.347 102.893Z" fill="#D5C197"/>
<path id="Vector_212" d="M137.904 103.769C138.041 103.473 138.189 103.181 138.352 102.893C137.281 103.089 136.184 103.369 135.118 103.723C134.975 104.065 134.864 104.411 134.748 104.757C135.788 104.361 136.838 104.026 137.904 103.769Z" fill="#81765D"/>
</g>
<g id="Group_39">
<path id="Vector_213" d="M137.196 105.767C137.196 105.767 137.339 105.483 137.486 105.091C137.645 104.703 137.829 104.211 137.903 103.765C136.843 104.023 135.787 104.357 134.748 104.756C134.748 104.756 134.537 105.075 134.357 105.525C134.194 105.974 134.073 106.558 134.252 107.046C135.207 106.566 136.199 106.136 137.196 105.767Z" fill="#D5C197"/>
<path id="Vector_214" d="M136.991 106.708C137.054 106.393 137.117 106.078 137.197 105.767C136.199 106.136 135.207 106.566 134.247 107.046C134.184 107.396 134.173 107.746 134.136 108.099C135.065 107.584 136.02 107.119 136.991 106.708Z" fill="#81765D"/>
</g>
<g id="Group_40">
<path id="Vector_215" d="M136.774 108.818C136.774 108.818 136.79 108.737 136.822 108.61C136.848 108.476 136.88 108.295 136.917 108.095C136.975 107.684 137.043 107.169 136.996 106.712C136.025 107.123 135.07 107.588 134.141 108.103C134.141 108.103 133.993 108.437 133.92 108.879C133.835 109.321 133.819 109.878 134.036 110.335C134.943 109.82 135.851 109.313 136.774 108.818Z" fill="#D5C197"/>
<path id="Vector_216" d="M136.727 109.817L136.769 108.818C135.846 109.313 134.938 109.82 134.026 110.335L133.999 111.35C134.912 110.831 135.814 110.316 136.727 109.817Z" fill="#81765D"/>
</g>
<g id="Group_41">
<path id="Vector_217" d="M136.674 112.003C136.674 112.003 136.943 110.754 136.727 109.813C135.814 110.316 134.907 110.827 134.004 111.346C134.004 111.346 133.508 112.66 133.983 113.567L136.674 112.003Z" fill="#D5C197"/>
<path id="Vector_218" d="M136.664 113.006L136.674 112.003L133.983 113.57V114.585L136.664 113.006Z" fill="#81765D"/>
</g>
<g id="Group_42">
<path id="Vector_219" d="M136.669 115.203C136.669 115.203 136.906 113.947 136.664 113.009L133.983 114.585C133.983 114.585 133.519 115.902 134.015 116.802L136.669 115.203Z" fill="#D5C197"/>
<path id="Vector_220" d="M136.685 116.206L136.669 115.203L134.015 116.798L134.041 117.812L136.685 116.206Z" fill="#81765D"/>
</g>
<g id="Group_43">
<path id="Vector_221" d="M136.737 118.4C136.737 118.4 136.948 117.14 136.684 116.202L134.041 117.808C134.041 117.808 133.608 119.126 134.12 120.029L136.737 118.4Z" fill="#D5C197"/>
</g>
</g>
<g id="Group_44">
<g id="Group_45">
<path id="Vector_222" d="M139.46 103.25C139.46 103.25 139.945 101.817 139.898 100.718C138.901 101.226 137.909 101.756 136.917 102.29C136.917 102.29 136.194 103.773 136.51 104.864L139.46 103.25Z" fill="#D5C197"/>
<path id="Vector_223" d="M139.281 104.411L139.46 103.25L136.516 104.86L136.352 106.04L139.281 104.411Z" fill="#81765D"/>
</g>
<g id="Group_46">
<path id="Vector_224" d="M138.922 106.958C138.922 106.958 139.36 105.521 139.281 104.414L136.352 106.04C136.352 106.04 135.677 107.538 136.035 108.625C136.99 108.057 137.956 107.504 138.922 106.958Z" fill="#D5C197"/>
<path id="Vector_225" d="M138.78 108.122L138.922 106.958C137.956 107.504 136.991 108.057 136.036 108.622L135.914 109.805C136.864 109.232 137.819 108.672 138.78 108.122Z" fill="#81765D"/>
</g>
<g id="Group_47">
<path id="Vector_226" d="M138.526 110.666C138.526 110.666 138.901 109.225 138.78 108.122C137.819 108.672 136.864 109.233 135.914 109.809C135.914 109.809 135.302 111.33 135.724 112.41C136.648 111.811 137.582 111.23 138.526 110.666Z" fill="#D5C197"/>
<path id="Vector_227" d="M138.436 111.826L138.521 110.666C137.576 111.23 136.647 111.811 135.719 112.406L135.666 113.593C136.584 112.994 137.508 112.402 138.436 111.826Z" fill="#81765D"/>
</g>
<g id="Group_48">
<path id="Vector_228" d="M138.326 114.377C138.326 114.377 138.616 112.921 138.437 111.826C137.508 112.402 136.584 112.994 135.672 113.593C135.672 113.593 135.149 115.127 135.614 116.187C136.516 115.576 137.418 114.973 138.326 114.377Z" fill="#D5C197"/>
<path id="Vector_229" d="M138.305 115.545L138.331 114.377C137.424 114.973 136.516 115.58 135.619 116.191L135.614 117.374L138.305 115.545Z" fill="#81765D"/>
</g>
<g id="Group_49">
<path id="Vector_230" d="M138.289 118.104C138.289 118.104 138.532 116.64 138.305 115.545L135.614 117.374C135.614 117.374 135.144 118.911 135.635 119.964L138.289 118.104Z" fill="#D5C197"/>
<path id="Vector_231" d="M138.299 119.276L138.289 118.104L135.635 119.96L135.656 121.143L138.299 119.276Z" fill="#81765D"/>
</g>
<g id="Group_50">
<path id="Vector_232" d="M138.357 121.843C138.357 121.843 138.568 120.375 138.304 119.28L135.661 121.147C135.661 121.147 135.228 122.684 135.751 123.737C136.611 123.091 137.481 122.465 138.357 121.843Z" fill="#D5C197"/>
</g>
</g>
</g>
<g id="Group_51">
<g id="Group_52">
<path id="Vector_233" d="M186.035 40.9535C186.035 40.9535 187.248 40.139 188.483 39.9431L188.694 43.1782C188.694 43.1782 187.591 44.2194 186.251 44.1925L186.035 40.9535Z" fill="#D5C197"/>
<path id="Vector_234" d="M184.916 41.4185L186.035 40.9536L186.251 44.1887L185.133 44.6536L184.916 41.4185Z" fill="#81765D"/>
</g>
<g id="Group_53">
<path id="Vector_235" d="M182.468 42.4289C182.468 42.4289 183.682 41.6144 184.916 41.4185L185.127 44.6536C185.127 44.6536 184.025 45.6948 182.679 45.6641L182.468 42.4289Z" fill="#D5C197"/>
<path id="Vector_236" d="M181.349 42.8939L182.468 42.429L182.684 45.6641L181.566 46.129L181.349 42.8939Z" fill="#81765D"/>
</g>
<g id="Group_54">
<path id="Vector_237" d="M178.906 43.9043C178.906 43.9043 180.12 43.0897 181.355 42.89L181.571 46.1251C181.571 46.1251 180.468 47.1663 179.123 47.1356L178.906 43.9043Z" fill="#D5C197"/>
<path id="Vector_238" d="M177.788 44.3693L178.906 43.9044L179.117 47.1395L177.999 47.6044L177.788 44.3693Z" fill="#81765D"/>
</g>
<g id="Group_55">
<path id="Vector_239" d="M175.34 45.3797C175.34 45.3797 176.553 44.5652 177.788 44.3692L177.999 47.6043C177.999 47.6043 176.896 48.6456 175.551 48.6148L175.34 45.3797Z" fill="#D5C197"/>
<path id="Vector_240" d="M174.221 45.8447L175.34 45.3798L175.551 48.6149L174.437 49.0798L174.221 45.8447Z" fill="#81765D"/>
</g>
<g id="Group_56">
<path id="Vector_241" d="M171.773 46.8551C171.773 46.8551 172.986 46.0406 174.221 45.8408L174.432 49.0759C174.432 49.0759 173.329 50.1171 171.984 50.0864L171.773 46.8551Z" fill="#D5C197"/>
<path id="Vector_242" d="M170.654 47.3201L171.773 46.8552L171.989 50.0903L170.87 50.5552L170.654 47.3201Z" fill="#81765D"/>
</g>
<g id="Group_57">
<path id="Vector_243" d="M168.206 48.3344C168.206 48.3344 169.419 47.5198 170.654 47.32L170.865 50.5551C170.865 50.5551 169.763 51.5964 168.417 51.5656L168.206 48.3344Z" fill="#D5C197"/>
<path id="Vector_244" d="M167.093 48.7955L168.206 48.3344L168.422 51.5694L167.304 52.0306L167.093 48.7955Z" fill="#81765D"/>
</g>
<g id="Group_58">
<path id="Vector_245" d="M164.644 49.8098C164.644 49.8098 165.858 48.9952 167.093 48.7954L167.304 52.0305C167.304 52.0305 166.201 53.0717 164.855 53.0448L164.644 49.8098Z" fill="#D5C197"/>
<path id="Vector_246" d="M163.526 50.2709L164.644 49.8098L164.855 53.0448L163.742 53.5097L163.526 50.2709Z" fill="#81765D"/>
</g>
<g id="Group_59">
<path id="Vector_247" d="M161.077 51.2852C161.077 51.2852 162.291 50.4706 163.526 50.2708L163.742 53.5058C163.742 53.5058 162.639 54.5471 161.294 54.5163L161.077 51.2852Z" fill="#D5C197"/>
<path id="Vector_248" d="M159.959 51.7463L161.077 51.2852L161.294 54.5202L160.175 54.9851L159.959 51.7463Z" fill="#81765D"/>
</g>
<g id="Group_60">
<path id="Vector_249" d="M157.511 52.7605C157.511 52.7605 158.724 51.946 159.959 51.7462L160.17 54.9812C160.17 54.9812 159.067 56.0225 157.722 55.9917L157.511 52.7605Z" fill="#D5C197"/>
<path id="Vector_250" d="M156.397 53.2217L157.511 52.7605L157.727 55.9956L156.608 56.4605L156.397 53.2217Z" fill="#81765D"/>
</g>
<g id="Group_61">
<path id="Vector_251" d="M153.949 54.2359C153.949 54.2359 155.163 53.4214 156.397 53.2216L156.608 56.4566C156.608 56.4566 155.506 57.4979 154.16 57.4671L153.949 54.2359Z" fill="#D5C197"/>
<path id="Vector_252" d="M152.83 54.7008L153.949 54.2359L154.16 57.471L153.042 57.9359L152.83 54.7008Z" fill="#81765D"/>
</g>
<g id="Group_62">
<path id="Vector_253" d="M150.382 55.7113C150.382 55.7113 151.596 54.8968 152.825 54.697L153.042 57.932C153.042 57.932 151.939 58.9733 150.593 58.9464L150.382 55.7113Z" fill="#D5C197"/>
<path id="Vector_254" d="M149.264 56.1762L150.382 55.7113L150.599 58.9464L149.48 59.4113L149.264 56.1762Z" fill="#81765D"/>
</g>
<g id="Group_63">
<path id="Vector_255" d="M146.821 57.1905C146.821 57.1905 148.034 56.3759 149.264 56.1761L149.475 59.4113C149.475 59.4113 148.372 60.4525 147.026 60.4256L146.821 57.1905Z" fill="#D5C197"/>
<path id="Vector_256" d="M145.697 57.6516L146.821 57.1906L147.032 60.4257L145.913 60.8867L145.697 57.6516Z" fill="#81765D"/>
</g>
<g id="Group_64">
<path id="Vector_257" d="M143.254 58.6659C143.254 58.6659 144.468 57.8513 145.697 57.6516L145.913 60.8867C145.913 60.8867 144.81 61.9279 143.465 61.901L143.254 58.6659Z" fill="#D5C197"/>
<path id="Vector_258" d="M142.135 59.127L143.254 58.666L143.465 61.9011L142.346 62.3621L142.135 59.127Z" fill="#81765D"/>
</g>
<g id="Group_65">
<path id="Vector_259" d="M139.687 60.1413C139.687 60.1413 140.9 59.3267 142.13 59.127L142.341 62.3621C142.341 62.3621 142.067 62.6233 141.623 62.8807C141.281 63.0959 140.299 63.5032 140.283 63.215C139.803 62.8577 139.808 62.3044 139.792 61.7588L139.687 60.1413Z" fill="#D5C197"/>
<path id="Vector_260" d="M138.568 60.6024L139.687 60.1414L139.792 61.7589C139.808 62.3045 139.803 62.8616 140.283 63.215L140.188 63.2535V63.3034C139.851 63.1997 139.518 63.0422 139.186 62.827C138.378 62.3391 138.473 61.4707 138.568 60.6024Z" fill="#81765D"/>
</g>
<g id="Group_66">
<path id="Vector_261" d="M136.22 63.3994C136.22 63.3994 136.088 62.5849 136.062 61.5052C136.795 61.1863 138.041 60.6946 138.568 60.6024C138.473 61.4707 138.384 62.3351 139.186 62.8308C139.523 63.0459 139.856 63.2035 140.188 63.3073C140.188 63.3726 140.362 63.2572 140.447 63.5262C140.536 63.9335 140.536 64.4484 140.188 64.8633L136.22 63.3994Z" fill="#D5C197"/>
<path id="Vector_262" d="M136.22 64.3369V63.3994L140.194 64.8633V65.8008L136.22 64.3369Z" fill="#81765D"/>
</g>
<g id="Group_67">
<path id="Vector_263" d="M136.22 66.3887C136.22 66.3887 135.851 65.2168 136.22 64.3408L140.188 65.8047C140.188 65.8047 140.885 67.0149 140.188 67.8525L136.22 66.3887Z" fill="#D5C197"/>
<path id="Vector_264" d="M136.22 67.3262V66.3887L140.194 67.8525V68.7862L136.22 67.3262Z" fill="#81765D"/>
</g>
<g id="Group_68">
<path id="Vector_265" d="M136.22 69.3739C136.22 69.3739 135.851 68.2021 136.22 67.3261L140.188 68.79C140.188 68.79 140.885 70.0041 140.188 70.8378L136.22 69.3739Z" fill="#D5C197"/>
<path id="Vector_266" d="M136.22 70.3115V69.374L140.194 70.8379V71.7753L136.22 70.3115Z" fill="#81765D"/>
</g>
<g id="Group_69">
<path id="Vector_267" d="M136.22 72.3594C136.22 72.3594 135.851 71.1876 136.22 70.3116L140.188 71.7754C140.188 71.7754 140.885 72.9857 140.188 73.8233L136.22 72.3594Z" fill="#D5C197"/>
<path id="Vector_268" d="M136.22 73.2968V72.3593L140.194 73.8232V74.7607L136.22 73.2968Z" fill="#81765D"/>
</g>
<g id="Group_70">
<path id="Vector_269" d="M136.22 75.3448C136.22 75.3448 135.851 74.1728 136.22 73.2968L140.188 74.7607C140.188 74.7607 140.885 75.971 140.188 76.8086L136.22 75.3448Z" fill="#D5C197"/>
<path id="Vector_270" d="M136.22 76.2822V75.3448L140.194 76.8086V77.7461L136.22 76.2822Z" fill="#81765D"/>
</g>
<g id="Group_71">
<path id="Vector_271" d="M136.22 78.3339C136.22 78.3339 135.851 77.1621 136.22 76.2861L140.188 77.75C140.188 77.75 140.885 78.9602 140.188 79.7978L136.22 78.3339Z" fill="#D5C197"/>
<path id="Vector_272" d="M136.22 79.2714V78.3339L140.194 79.7939V80.7352L136.22 79.2714Z" fill="#81765D"/>
</g>
<g id="Group_72">
<path id="Vector_273" d="M136.22 81.3193C136.22 81.3193 135.851 80.1474 136.22 79.2714L140.188 80.7352C140.188 80.7352 140.885 81.9456 140.188 82.7832L136.22 81.3193Z" fill="#D5C197"/>
<path id="Vector_274" d="M136.22 82.2568V81.3193L140.194 82.7832V83.7207L136.22 82.2568Z" fill="#81765D"/>
</g>
<g id="Group_73">
<path id="Vector_275" d="M136.22 84.3046C136.22 84.3046 135.851 83.1327 136.22 82.2567L140.188 83.7206C140.188 83.7206 140.885 84.9346 140.188 85.7684L136.22 84.3046Z" fill="#D5C197"/>
<path id="Vector_276" d="M136.22 85.242V84.3046L140.194 85.7684V86.7059L136.22 85.242Z" fill="#81765D"/>
</g>
<g id="Group_74">
<path id="Vector_277" d="M136.22 87.2938C136.22 87.2938 135.851 86.122 136.22 85.246L140.188 86.7098C140.188 86.7098 140.885 87.9201 140.188 88.7577L136.22 87.2938Z" fill="#D5C197"/>
<path id="Vector_278" d="M136.22 88.2275V87.2938L140.194 88.7538V89.6912L136.22 88.2275Z" fill="#81765D"/>
</g>
<g id="Group_75">
<path id="Vector_279" d="M136.22 90.2792C136.22 90.2792 135.851 89.1073 136.22 88.2313L140.188 89.6951C140.188 89.6951 140.885 90.9093 140.188 91.7431L136.22 90.2792Z" fill="#D5C197"/>
<path id="Vector_280" d="M136.22 91.2166V90.2791L140.194 91.743V92.6805L136.22 91.2166Z" fill="#81765D"/>
</g>
<g id="Group_76">
<path id="Vector_281" d="M136.22 93.2645C136.22 93.2645 135.851 92.0926 136.22 91.2166L140.188 92.6805C140.188 92.6805 140.885 93.8907 140.188 94.7283L136.22 93.2645Z" fill="#D5C197"/>
<path id="Vector_282" d="M136.22 94.202V93.2646L140.194 94.7284V95.6659L136.22 94.202Z" fill="#81765D"/>
</g>
<g id="Group_77">
<path id="Vector_283" d="M136.22 96.2499C136.22 96.2499 135.851 95.078 136.22 94.202L140.188 95.6659C140.188 95.6659 140.885 96.8762 140.188 97.7138L136.22 96.2499Z" fill="#D5C197"/>
<path id="Vector_284" d="M136.22 97.1875V96.2499L140.194 97.7138V98.6513L136.22 97.1875Z" fill="#81765D"/>
</g>
<g id="Group_78">
<path id="Vector_285" d="M136.22 99.2352C136.22 99.2352 135.851 98.0634 136.22 97.1874L140.188 98.6512C140.188 98.6512 140.885 99.8654 140.188 100.699L136.22 99.2352Z" fill="#D5C197"/>
<path id="Vector_286" d="M136.22 100.173V99.2352L140.194 100.703V101.637L136.22 100.173Z" fill="#81765D"/>
</g>
</g>
</g>
<path id="Vector_287" d="M198.192 44.2309C194.171 45.9215 187.628 45.9139 183.581 44.2118C179.534 42.5097 179.513 39.7625 183.534 38.072C187.554 36.3814 194.097 36.3891 198.144 38.0912C202.191 39.7894 202.212 42.5404 198.192 44.2309Z" fill="#3F4A59"/>
</g>
</g>
<defs>
<linearGradient id="paint0_linear_23_6065" x1="290.304" y1="206.496" x2="255.556" y2="123.845" gradientUnits="userSpaceOnUse">
<stop offset="0.7286" stop-color="#D7D8E8"/>
<stop offset="0.9347" stop-color="#EAE9F2"/>
</linearGradient>
<linearGradient id="paint1_linear_23_6065" x1="125.648" y1="199.777" x2="258.491" y2="199.777" gradientUnits="userSpaceOnUse">
<stop offset="0.371" stop-color="#CACCDE"/>
<stop offset="0.9694" stop-color="#EAE9F2"/>
</linearGradient>
<linearGradient id="paint2_linear_23_6065" x1="168.154" y1="193.834" x2="198.454" y2="121.761" gradientUnits="userSpaceOnUse">
<stop stop-color="#CACCDE"/>
<stop offset="0.5597" stop-color="#EAE9F2"/>
</linearGradient>
<linearGradient id="paint3_linear_23_6065" x1="181.843" y1="150.871" x2="284.545" y2="150.871" gradientUnits="userSpaceOnUse">
<stop offset="0.2355" stop-color="#A8A4B5"/>
<stop offset="1" stop-color="#DBD3E2"/>
</linearGradient>
<linearGradient id="paint4_linear_23_6065" x1="129.662" y1="213.961" x2="190.71" y2="24.4403" gradientUnits="userSpaceOnUse">
<stop offset="0.371" stop-color="#CACCDE"/>
<stop offset="0.9694" stop-color="#EAE9F2"/>
</linearGradient>
<linearGradient id="paint5_linear_23_6065" x1="165.918" y1="131.06" x2="198.92" y2="52.5617" gradientUnits="userSpaceOnUse">
<stop stop-color="#CACCDE"/>
<stop offset="0.5597" stop-color="#EAE9F2"/>
</linearGradient>
<linearGradient id="paint6_linear_23_6065" x1="139.547" y1="267.461" x2="124.812" y2="153.503" gradientUnits="userSpaceOnUse">
<stop stop-color="#CACCDE"/>
<stop offset="1" stop-color="#DFDEEE"/>
</linearGradient>
<linearGradient id="paint7_linear_23_6065" x1="131.957" y1="259.251" x2="126.748" y2="151.536" gradientUnits="userSpaceOnUse">
<stop stop-color="#CACCDE"/>
<stop offset="1" stop-color="#DFDEEE"/>
</linearGradient>
<linearGradient id="paint8_linear_23_6065" x1="163.287" y1="240.932" x2="128.605" y2="158.436" gradientUnits="userSpaceOnUse">
<stop offset="0.6799" stop-color="#DBDBEA"/>
<stop offset="0.8132" stop-color="#EAE9F2"/>
</linearGradient>
</defs>
</svg>
