<svg width="516" height="537" viewBox="0 0 516 537" fill="none" xmlns="http://www.w3.org/2000/svg">
<g id="Group">
<g id="Group_2">
<path id="Vector" d="M131.562 536.791L76.0435 509.101L393.869 350.616L449.393 378.3L131.562 536.791Z" fill="#EEF1F5"/>
<path id="Vector_2" d="M235.157 399.486L356.95 460.219C360.789 462.136 360.795 466.916 356.963 468.843L258.552 518.243C251.206 521.927 242.139 521.943 234.781 518.27L112.988 457.537C109.149 455.621 109.143 450.841 112.975 448.913L211.386 399.514C218.732 395.83 227.799 395.819 235.157 399.486Z" fill="#EEF1F5"/>
<g id="Group_3">
<g id="Group_4">
<path id="Vector_3" d="M140.15 443.031L229.712 398.071C237.057 394.381 246.124 394.37 253.482 398.044L363.868 453.087L378.158 453.726V463.077C378.158 464.757 377.201 466.431 375.288 467.389L276.877 516.783C269.531 520.479 260.464 520.484 253.106 516.811L131.313 456.083C129.4 455.12 128.444 453.456 128.437 451.788H128.431V442.503L140.15 443.031Z" fill="url(#paint0_linear_21_4940)"/>
<path id="Vector_4" d="M253.482 388.698L375.276 449.431C379.114 451.347 379.121 456.128 375.288 458.055L276.877 507.454C269.532 511.139 260.464 511.155 253.106 507.482L131.313 446.749C127.475 444.832 127.468 440.052 131.3 438.125L229.712 388.731C237.057 385.041 246.124 385.03 253.482 388.698Z" fill="#E6E6FA"/>
<path id="Vector_5" d="M187.329 325.454L157.947 460.021L276.839 400.346L306.227 265.778L187.329 325.454Z" fill="url(#paint1_linear_21_4940)"/>
<g id="Group_5">
<path id="Vector_6" d="M182.623 313.96L151.507 456.81L157.947 460.021L187.335 325.454C184.37 322.469 182.419 318.355 182.533 314.858C182.546 314.544 182.578 314.247 182.623 313.96Z" fill="#9C9CD8"/>
</g>
<path id="Vector_7" d="M290.458 257.385C292.103 256.554 294.393 256.686 296.898 257.942L297.166 258.074C302.012 260.701 305.851 266.731 305.621 271.506C305.545 273.736 304.582 275.311 303.071 276.071L184.172 335.741C185.683 334.987 186.646 333.412 186.723 331.176C186.952 326.407 183.114 320.382 178.268 317.755L178 317.612C175.494 316.367 173.211 316.235 171.566 317.066L290.458 257.385Z" fill="#848B92"/>
<g id="Group_6">
<path id="Vector_8" d="M178 317.617C173.524 315.381 169.736 316.73 169.067 320.723C169.016 321.004 168.984 321.307 168.971 321.621C168.856 325.118 170.808 329.232 173.773 332.217C174.888 333.34 176.151 334.309 177.496 335.02C177.63 335.091 177.758 335.157 177.885 335.223C182.629 337.592 186.57 335.802 186.723 331.187C186.952 326.418 183.114 320.393 178.268 317.755C178.179 317.705 178.089 317.661 178 317.617Z" fill="#9FA7B0"/>
</g>
</g>
<g id="Group_7">
<g id="Group_8">
<path id="Vector_9" d="M94.8725 188.238L95.5995 412.946L441.621 240.401L440.887 15.6931L94.8725 188.238Z" fill="#2462E0"/>
</g>
<g id="Group_9">
<path id="Vector_10" d="M442.564 6.1107C445.204 4.79449 447.277 5.88489 447.283 8.4347L448.067 247.258L89.2168 426.202L88.4326 187.378C88.4262 184.829 90.5558 181.646 93.1956 180.329L442.564 6.1107ZM95.5995 412.946L441.621 240.401L440.887 15.6931L94.8662 188.238L95.5995 412.946Z" fill="#404040"/>
</g>
<g id="Group_10">
<path id="Vector_11" d="M442.915 3.67089C446.479 1.89208 449.413 3.33496 449.425 6.87606L450.248 275.884C450.261 279.425 447.347 283.787 443.782 285.56L93.6994 460.131C90.0649 461.943 87.202 460.467 87.1892 456.926L86.3666 187.918C86.3539 184.377 89.1977 180.054 92.8322 178.242L442.915 3.67089ZM89.2169 426.196L448.067 247.252L447.283 8.42915C447.277 5.87933 445.198 4.79444 442.564 6.10514L93.1956 180.318C90.5558 181.635 88.4262 184.818 88.4326 187.368L89.2169 426.196Z" fill="#C1C1E8"/>
</g>
<path id="Vector_12" d="M87.0425 175.323L437.125 0.757557C438.917 -0.134601 440.549 -0.211664 441.735 0.383108L447.525 3.28542C446.339 2.69065 444.707 2.77864 442.915 3.67079L92.8322 178.237C89.1977 180.054 86.3538 184.377 86.3666 187.918L87.1828 456.931C87.1892 458.694 87.9097 459.944 89.0765 460.539L83.2869 457.625C82.1201 457.042 81.3995 455.78 81.3931 454.018L80.5706 185.005C80.5642 181.464 83.408 177.141 87.0425 175.323Z" fill="url(#paint2_linear_21_4940)"/>
</g>
</g>
<g id="Group_11">
<path id="Vector_13" d="M279.702 348.237C279.702 352.78 275.984 358.315 271.406 360.6C266.822 362.886 263.111 361.057 263.111 356.514C263.111 351.971 266.828 346.436 271.406 344.151C275.991 341.865 279.702 343.693 279.702 348.237Z" fill="#404040"/>
<path id="Vector_14" d="M277.642 349.261C277.642 352.676 274.849 356.839 271.4 358.557C267.957 360.275 265.157 358.899 265.157 355.484C265.157 352.07 267.95 347.906 271.4 346.188C274.849 344.47 277.642 345.847 277.642 349.261Z" fill="#C1C1E8"/>
</g>
</g>
<g id="Group_12">
<g id="Group_13">
<g id="Group_14">
<path id="Vector_15" d="M445.332 226.336L428.715 227.977C429.136 227.933 429.551 227.84 429.952 227.691L446.569 226.05C446.167 226.198 445.753 226.292 445.332 226.336Z" fill="#E0E9F0"/>
</g>
</g>
</g>
<g id="Group_15">
<g id="Group_16">
<path id="Vector_16" d="M344.3 182.081C349.254 184.554 354.661 189.604 357.218 194.45L358.321 196.537C363.027 205.459 366.642 214.011 369.091 222.008C370.124 225.389 370.952 228.666 371.558 231.821L378.266 266.577C378.865 269.644 376.283 270.476 372.323 268.499C368.37 266.533 364.251 262.353 362.848 258.889L352.334 232.983C347.239 220.433 342.865 208.19 339.231 196.317L335.998 185.76C334.748 181.679 336.884 179.691 341.245 180.886C341.819 181.458 343.26 181.563 344.3 182.081Z" fill="#CFD0E0"/>
<path id="Vector_17" d="M387.69 268.873L380.982 234.118C380.332 230.775 379.465 227.311 378.368 223.726C375.773 215.256 371.947 206.196 366.961 196.746L365.858 194.664C361.701 186.784 352.908 178.556 344.823 174.53C343.12 173.682 341.45 173.016 339.862 172.586C332.759 170.642 329.277 173.875 331.318 180.522L334.55 191.074C338.249 203.151 342.699 215.597 347.877 228.357L358.391 254.263C361.076 260.877 368.855 268.763 376.398 272.53C383.941 276.286 388.819 274.711 387.69 268.873ZM372.33 268.499C368.376 266.533 364.257 262.353 362.855 258.889L352.34 232.983C347.246 220.432 342.871 208.19 339.237 196.317L336.004 185.759C334.754 181.679 336.89 179.691 341.252 180.886C341.819 181.458 343.26 181.563 344.306 182.081C349.26 184.553 354.667 189.603 357.224 194.45L358.327 196.537C363.033 205.459 366.648 214.011 369.097 222.008C370.13 225.389 370.959 228.666 371.565 231.821L378.272 266.577C378.872 269.639 376.289 270.476 372.33 268.499Z" fill="#CFD0E0"/>
<path id="Vector_18" d="M397.682 261.191L390.974 226.435C390.323 223.092 389.456 219.628 388.36 216.043C385.764 207.573 381.939 198.514 376.953 189.064L375.849 186.982C371.692 179.101 362.899 170.873 354.814 166.848C353.112 166 351.441 165.333 349.853 164.904C346.519 163.99 343.981 164.221 342.444 165.405L332.452 173.087C333.996 171.903 336.527 171.672 339.862 172.586C341.449 173.021 343.12 173.682 344.822 174.53C352.908 178.562 361.7 186.789 365.858 194.664L366.961 196.746C371.947 206.196 375.779 215.256 378.368 223.726C379.465 227.305 380.338 230.775 380.982 234.118L387.69 268.873C388.13 271.153 387.658 272.783 386.466 273.698L396.457 266.015C397.65 265.101 398.122 263.471 397.682 261.191Z" fill="url(#paint3_linear_21_4940)"/>
</g>
<g id="Group_17">
<path id="Vector_19" d="M368.357 208.465C368.357 216.192 360.776 303.133 293.742 303.133C226.708 303.133 218.26 211.632 218.26 208.493C221.333 208.493 368.357 208.465 368.357 208.465Z" fill="url(#paint4_linear_21_4940)"/>
</g>
<g id="Group_18">
<g id="Group_19">
<path id="Vector_20" d="M314.318 193.073C302.427 198.833 283.419 198.668 271.865 192.704C260.305 186.734 260.579 177.229 272.465 171.463C284.356 165.702 303.364 165.868 314.918 171.832C326.478 177.802 326.21 187.313 314.318 193.073Z" fill="#C0BACA"/>
<path id="Vector_21" d="M367.65 203.333C367.203 201.824 366.553 199.825 365.947 198.354C365.303 196.796 364.308 194.764 363.492 193.266C362.058 190.633 359.679 187.263 357.581 184.884C356.389 183.535 353.603 180.373 349.037 176.865C344.465 173.357 340.646 171.331 338.363 170.125C336.903 169.348 334.876 168.428 333.352 167.751C332.153 167.222 330.521 166.583 329.284 166.115C325.891 164.832 323.086 164.056 320.376 163.312C320.006 163.213 316.62 162.293 311.589 161.434C308.28 160.873 304.818 160.487 302.86 160.327C301.559 160.223 299.825 160.074 298.524 160.041C297.224 160.002 295.483 159.931 294.182 159.92C292.875 159.909 291.134 159.953 289.834 159.964C287.104 159.991 283.77 160.311 281.085 160.564C281.047 160.57 276.775 160.999 272.241 161.897C270.8 162.183 268.894 162.596 267.472 162.943C266.19 163.257 264.501 163.736 263.225 164.089C261.65 164.524 259.591 165.234 258.061 165.779C256.811 166.226 255.185 166.897 253.948 167.382C252.303 168.032 250.173 169.029 248.624 169.844C246.36 171.033 243.389 172.708 241.285 174.106C239.206 175.489 236.553 177.471 234.717 179.085C233.174 180.44 231.165 182.295 229.858 183.826C229.106 184.702 228.067 185.848 227.378 186.756C226.332 188.15 225.019 190.055 224.075 191.498C223.182 192.853 222.175 194.753 221.537 196.207C220.657 198.2 219.688 200.921 219.012 202.969C215.869 214.072 222.666 225.769 239.499 234.459C268.39 249.373 315.906 249.791 345.626 235.384C363.428 226.76 370.806 214.771 367.65 203.333ZM314.318 193.073C302.427 198.833 283.419 198.668 271.865 192.704C260.305 186.74 260.579 177.229 272.465 171.463C284.356 165.702 303.364 165.868 314.918 171.832C326.478 177.802 326.21 187.313 314.318 193.073Z" fill="url(#paint5_linear_21_4940)"/>
<path id="Vector_22" d="M310.678 301.079C305.5 302.406 299.87 303.133 293.742 303.133C242.981 303.133 225.816 250.667 220.472 223.825C230.394 217.337 227.244 205.26 233.072 202.33C235.527 201.102 237.006 200.392 237.006 200.392C237.771 200.932 250.371 206.268 253.635 209.82C264.883 222.052 257.436 261.83 264.749 280.769C271.043 297.075 289.642 302.203 310.678 301.079Z" fill="#EBEBEB"/>
</g>
</g>
<path id="Vector_23" d="M331.662 203.867C310.454 214.441 275.965 214.385 254.624 203.746C233.282 193.106 233.174 175.907 254.381 165.328C275.589 154.754 310.078 154.809 331.42 165.449C352.761 176.089 352.869 193.288 331.662 203.867Z" fill="#D4D5E6"/>
<g id="Group_20">
<g id="Group_21">
<path id="Vector_24" d="M244.932 189.427C246.628 190.319 248.949 191.443 250.747 192.175C255.223 193.998 255.223 193.998 259.871 195.513C261.268 195.97 263.155 196.504 264.596 196.845C267.211 197.462 270.73 198.2 273.376 198.701C274.779 198.965 276.673 199.241 278.095 199.395C279.466 199.538 281.289 199.759 282.667 199.88C284.044 200.001 285.88 200.116 287.264 200.183C288.641 200.249 290.484 200.298 291.868 200.309C293.251 200.32 295.1 200.276 296.49 200.26C297.912 200.243 299.812 200.144 301.234 200.028C303.983 199.797 307.63 199.395 310.359 199.037C311.838 198.844 313.796 198.497 315.256 198.194C316.588 197.919 318.367 197.556 319.687 197.236C321.269 196.851 323.36 196.272 324.929 195.837C326.778 195.325 329.194 194.488 330.98 193.827C333.377 192.941 336.495 191.608 338.784 190.523C340.742 189.598 343.241 188.199 345.097 187.136C346.378 186.404 348.03 185.341 349.216 184.493C350.944 183.259 353.163 181.53 354.795 180.208C351.537 182.995 347.462 185.611 342.578 187.962C314.089 201.68 268.843 201.284 241.508 187.081C237.586 185.043 234.252 182.835 231.491 180.5C232.83 181.59 234.666 183 236.062 184.041C236.719 184.531 237.65 185.132 238.339 185.589C240.226 186.839 242.891 188.353 244.932 189.427Z" fill="url(#paint6_linear_21_4940)"/>
</g>
<path id="Vector_25" d="M301.228 200.023C338.937 200.023 378.183 167.674 378.183 145.612C378.183 137.682 377.584 124.905 373.063 111.793C365.003 88.4315 214.842 99.9964 211.839 116.622C211.112 120.654 210.953 123.545 210.761 124.509C209.779 129.449 203.658 157.326 226.912 176.628C250.16 195.936 272.637 200.023 301.228 200.023Z" fill="url(#paint7_linear_21_4940)"/>
<path id="Vector_26" d="M374.16 115.24C373.675 113.599 372.967 111.418 372.311 109.821C371.609 108.125 370.525 105.906 369.633 104.276C368.07 101.406 365.482 97.7386 363.199 95.1503C361.905 93.6799 358.869 90.2379 353.89 86.4159C348.916 82.594 344.752 80.3911 342.266 79.0749C340.672 78.2323 338.472 77.2245 336.808 76.492C335.5 75.9193 333.721 75.2199 332.376 74.7132C328.684 73.3144 325.63 72.4717 322.671 71.6567C322.27 71.5465 318.584 70.5444 313.101 69.6137C309.492 69.0024 305.723 68.5837 303.594 68.413C302.178 68.2973 300.291 68.1376 298.869 68.0991C297.447 68.0605 295.559 67.978 294.138 67.967C292.716 67.9559 290.822 68 289.4 68.0165C286.429 68.0496 282.794 68.391 279.874 68.6718C279.829 68.6773 275.175 69.1509 270.246 70.1202C268.677 70.4286 266.598 70.8857 265.049 71.2602C263.653 71.6016 261.81 72.1249 260.426 72.5049C258.705 72.9785 256.473 73.7549 254.802 74.3442C253.438 74.8288 251.665 75.5613 250.326 76.09C248.534 76.795 246.213 77.8854 244.53 78.772C242.063 80.0717 238.83 81.8945 236.534 83.4145C234.271 84.9179 231.382 87.0768 229.38 88.8391C227.703 90.315 225.51 92.336 224.088 93.9992C223.272 94.9519 222.137 96.1967 221.384 97.1934C220.243 98.7079 218.815 100.784 217.782 102.359C216.812 103.835 215.716 105.9 215.014 107.486C214.058 109.656 212.999 112.619 212.266 114.855C208.842 126.943 216.245 139.687 234.583 149.153C266.05 165.399 317.8 165.851 350.166 150.161C369.562 140.755 377.597 127.692 374.16 115.24Z" fill="url(#paint8_linear_21_4940)"/>
<g id="Group_22">
<path id="Vector_27" d="M377.214 138.855C377.386 143.41 377.169 145.992 376.34 148.79C373.344 157.398 365.38 165.295 351.817 171.826C328.799 182.912 296.58 186.239 268.097 181.932C259.215 180.203 255.886 179.558 251.544 146.769C250.964 137.55 254.624 136.883 257.882 137.33C285.517 144.654 320.599 142.661 344.427 131.184C359.966 123.699 367.63 113.671 367.318 103.692C367.331 103.488 367.356 103.218 367.369 103.02C367.898 103.268 368.249 103.433 368.606 103.879C368.606 103.879 375.907 115.885 377.214 138.855Z" fill="#003447"/>
</g>
<path id="Vector_28" d="M305.143 152.034C298.55 152.32 293.207 158.471 293.207 165.779C293.207 167.052 293.372 168.269 293.672 169.42C297.096 168.296 300.998 167.575 305.143 167.399C309.287 167.217 313.19 167.602 316.614 168.428C316.913 167.255 317.079 166.022 317.079 164.75C317.079 157.442 311.736 151.753 305.143 152.034Z" fill="#00BBFF"/>
<path id="Vector_29" d="M351.977 137.968C347.603 140.97 345.339 148.773 346.933 155.387C347.207 156.538 347.583 157.574 348.036 158.488C350.096 156.048 352.57 153.768 355.318 151.879C358.066 149.991 360.782 148.718 363.263 148.041C363.212 146.851 363.052 145.662 362.778 144.516C361.19 137.897 356.351 134.967 351.977 137.968Z" fill="#00BBFF"/>
</g>
<g id="Group_23">
<path id="Vector_30" d="M229.112 210.002C234.067 212.469 237.746 218.389 237.688 224.546L237.663 227.19C237.561 238.529 236.241 249.565 233.729 260.051C232.67 264.484 231.395 268.813 229.922 273.015L213.656 319.302C212.228 323.383 208.09 325.002 204.136 323.02C200.177 321.053 197.613 316.092 198.232 311.609L202.836 278.12C205.061 261.89 208.045 245.964 211.775 230.384L215.085 216.55C216.366 211.197 220.734 208.091 225.816 208.922C226.173 209.605 228.067 209.484 229.112 210.002Z" fill="url(#paint9_linear_21_4940)"/>
<path id="Vector_31" d="M233.212 201.873C231.51 201.025 229.712 200.425 227.856 200.122C219.58 198.767 212.476 203.817 210.391 212.535L207.082 226.369C203.295 242.208 200.26 258.404 197.99 274.904L193.386 308.398C192.213 316.951 197.052 326.313 204.602 330.074C212.151 333.836 219.962 330.785 222.698 323.009L238.964 276.721C240.526 272.271 241.871 267.689 242.993 262.992C245.652 251.889 247.049 240.203 247.163 228.197L247.189 225.554C247.278 215.542 241.297 205.904 233.212 201.873ZM233.729 260.051C232.67 264.49 231.395 268.813 229.922 273.015L213.656 319.302C212.228 323.383 208.09 325.002 204.136 323.019C200.177 321.053 197.613 316.092 198.232 311.609L202.836 278.12C205.061 261.896 208.045 245.964 211.775 230.384L215.084 216.55C216.366 211.197 220.734 208.091 225.816 208.922C226.173 209.605 228.067 209.479 229.112 209.996C234.067 212.464 237.746 218.384 237.688 224.541L237.663 227.184C237.561 238.529 236.241 249.565 233.729 260.051Z" fill="url(#paint10_linear_21_4940)"/>
<path id="Vector_32" d="M243.191 199.538C241.489 198.69 239.69 198.09 237.835 197.787C235.718 197.44 233.684 197.512 231.784 197.958L221.811 200.298C223.712 199.852 225.746 199.781 227.862 200.127C229.718 200.43 231.51 201.031 233.219 201.879C241.304 205.91 247.285 215.548 247.195 225.56L247.17 228.203C247.061 240.209 245.659 251.895 243 262.997C241.877 267.695 240.532 272.277 238.97 276.726L222.704 323.014C221.123 327.519 217.833 330.438 213.879 331.369L223.852 329.028C227.805 328.103 231.095 325.184 232.677 320.679L248.942 274.391C250.505 269.942 251.85 265.36 252.979 260.662C255.638 249.56 257.034 237.874 257.149 225.868L257.174 223.224C257.257 213.201 251.27 203.564 243.191 199.538Z" fill="url(#paint11_linear_21_4940)"/>
</g>
</g>
<g id="Group_24">
<g id="Group_25">
<g id="Group_26">
<g id="Group_27">
<path id="Vector_33" d="M507.131 108.29C506.965 108.467 506.805 108.643 506.64 108.819C503.834 111.859 500.557 114.425 497.062 116.171L498.669 114.783C501.755 113.247 504.644 110.978 507.131 108.29Z" fill="#36D954"/>
</g>
<g id="Group_28">
<path id="Vector_34" d="M513.347 98.8512C513.252 99.0604 513.156 99.2696 513.054 99.4789C514.552 96.2297 515.407 92.8759 515.401 89.7533L516 87.8424C516.013 91.378 515.043 95.1724 513.347 98.8512Z" fill="#5BF06D"/>
</g>
<g id="Group_29">
<path id="Vector_35" d="M515.305 61.7L515.909 59.7835L515.998 87.8425L515.4 89.7533L515.305 61.7Z" fill="#36D954"/>
</g>
<g id="Group_30">
<path id="Vector_36" d="M498.465 53.406L496.846 50.3992C507.335 45.1674 515.872 49.3694 515.904 59.7779L515.305 61.6888C515.279 52.4973 507.736 48.7855 498.465 53.406Z" fill="#36D954"/>
</g>
<g id="Group_31">
<path id="Vector_37" d="M503.33 45.7292L510.363 49.2593C506.907 47.5245 502.125 47.7669 496.846 50.4048L489.813 46.8746C495.092 44.2422 499.874 43.9945 503.33 45.7292Z" fill="#16B333"/>
</g>
<g id="Group_32">
<path id="Vector_38" d="M498.669 114.783L497.062 116.171L444.139 142.561L444.624 141.735L498.669 114.783Z" fill="#36D954"/>
</g>
<g id="Group_33">
<path id="Vector_39" d="M426.77 174.789L419.744 171.259L419.106 148.008L426.139 151.538L426.77 174.789Z" fill="#16B333"/>
</g>
<g id="Group_34">
<path id="Vector_40" d="M430.424 168.087L426.77 174.789L426.139 151.538L429.907 149.071L430.424 168.087Z" fill="#36D954"/>
</g>
<g id="Group_35">
<path id="Vector_41" d="M429.908 149.071L426.139 151.538L416.492 156.346L418.099 154.963L429.908 149.071Z" fill="#36D954"/>
</g>
<g id="Group_36">
<path id="Vector_42" d="M402.974 157.491L395.941 153.961C392.529 152.248 390.419 148.608 390.4 143.437L397.433 146.967C397.452 152.138 399.562 155.779 402.974 157.491Z" fill="#16B333"/>
</g>
<g id="Group_37">
<path id="Vector_43" d="M418.099 154.964L416.492 156.351C405.996 161.583 397.465 157.387 397.433 146.967L401.259 146.675C401.291 155.872 408.828 159.584 418.099 154.964Z" fill="#36D954"/>
</g>
<g id="Group_38">
<path id="Vector_44" d="M401.259 146.67L397.433 146.967L397.344 118.908L401.17 118.616L401.259 146.67Z" fill="#36D954"/>
</g>
<g id="Group_39">
<path id="Vector_45" d="M397.433 146.967L390.4 143.437L390.311 115.378L397.344 118.908L397.433 146.967Z" fill="#16B333"/>
</g>
<g id="Group_40">
<path id="Vector_46" d="M416.275 90.5794L409.242 87.0494L489.813 46.8693L496.846 50.4048L416.275 90.5794Z" fill="#16B333"/>
</g>
<g id="Group_41">
<path id="Vector_47" d="M417.895 93.5864L416.275 90.5794L496.846 50.4048L498.465 53.4061L417.895 93.5864Z" fill="#36D954"/>
</g>
<g id="Group_42">
<path id="Vector_48" d="M392.963 104.364C392.97 104.342 392.982 104.32 392.995 104.303C393.002 104.292 393.008 104.281 393.008 104.27C393.014 104.254 393.027 104.226 393.04 104.21C393.046 104.199 393.053 104.188 393.053 104.177C393.059 104.16 393.072 104.133 393.085 104.116C393.091 104.105 393.097 104.094 393.097 104.083C393.104 104.066 393.116 104.039 393.129 104.022C393.135 104.006 393.148 103.978 393.161 103.962C393.167 103.951 393.174 103.94 393.174 103.929C393.18 103.912 393.193 103.885 393.206 103.868C393.212 103.852 393.225 103.824 393.237 103.808C393.244 103.797 393.25 103.786 393.25 103.775C393.257 103.763 393.263 103.753 393.263 103.742C394.71 100.608 396.751 97.5736 399.187 94.9356C399.199 94.9191 399.218 94.897 399.238 94.8805C399.238 94.8805 399.257 94.864 399.263 94.8529C399.276 94.8364 399.295 94.8145 399.314 94.798C399.314 94.798 399.333 94.7814 399.34 94.7704C399.352 94.7539 399.372 94.7318 399.391 94.7153C399.391 94.7153 399.41 94.6988 399.416 94.6877C399.429 94.6712 399.448 94.6493 399.467 94.6328C399.48 94.6163 399.499 94.5942 399.518 94.5777C399.518 94.5777 399.537 94.5611 399.544 94.5501C399.556 94.5336 399.576 94.5115 399.595 94.495C399.607 94.4784 399.627 94.4565 399.646 94.44C399.646 94.44 399.665 94.4235 399.671 94.4125C399.671 94.4125 399.69 94.3959 399.697 94.3849C396.91 97.3808 394.596 100.817 392.963 104.364Z" fill="#16B333"/>
</g>
<g id="Group_43">
<path id="Vector_49" d="M498.465 53.4062C507.736 48.7857 515.279 52.4976 515.305 61.6945L515.394 89.7535C515.426 98.9559 507.928 110.163 498.663 114.784L444.624 141.73L430.424 168.082L429.907 149.071L418.099 154.958C408.834 159.579 401.291 155.867 401.259 146.67L401.17 118.611C401.138 109.414 408.63 98.2015 417.901 93.581L498.465 53.4062Z" fill="#5BF06D"/>
</g>
<g id="Group_44">
<path id="Vector_50" d="M401.17 118.616L397.344 118.908C397.312 108.494 405.786 95.8111 416.281 90.5793L417.901 93.5864C408.63 98.2069 401.138 109.419 401.17 118.616Z" fill="#36D954"/>
</g>
<g id="Group_45">
<path id="Vector_51" d="M397.344 118.908L390.311 115.378C390.279 104.964 398.753 92.2812 409.242 87.0494L416.275 90.5795C405.786 95.8113 397.306 108.494 397.344 118.908Z" fill="#16B333"/>
</g>
</g>
</g>
<g id="Group_46">
<g id="Group_47">
<g id="Group_48">
<path id="Vector_52" d="M435.563 127.775L439.236 129.62C438.834 129.416 438.267 129.548 437.77 129.796L434.097 127.951C434.588 127.703 435.162 127.571 435.563 127.775Z" fill="#16B333"/>
</g>
<g id="Group_49">
<path id="Vector_53" d="M431.317 133.006L427.644 131.167L434.097 127.951L437.763 129.79L431.317 133.006Z" fill="#16B333"/>
</g>
<g id="Group_50">
<path id="Vector_54" d="M429.104 133.585L425.432 131.74C425.91 131.982 426.484 131.745 427.644 131.167L431.317 133.012C430.156 133.585 429.582 133.822 429.104 133.585Z" fill="#16B333"/>
</g>
<g id="Group_51">
<path id="Vector_55" d="M426.356 137.792L422.683 135.947C422.129 135.666 421.65 135.204 421.23 134.56L424.902 136.404C425.323 137.049 425.801 137.511 426.356 137.792Z" fill="#16B333"/>
</g>
<g id="Group_52">
<path id="Vector_56" d="M424.902 136.404L421.23 134.559L417.557 129.069L421.23 130.914L424.902 136.404Z" fill="#16B333"/>
</g>
<g id="Group_53">
<path id="Vector_57" d="M435.474 101.125L439.147 102.97C438.745 102.767 438.178 102.899 437.68 103.147L434.008 101.302C434.505 101.054 435.072 100.922 435.474 101.125Z" fill="#16B333"/>
</g>
<g id="Group_54">
<path id="Vector_58" d="M421.23 130.914L417.557 129.069C416.881 128.067 416.486 127.004 416.479 125.473C416.473 123.743 416.785 122.521 417.57 120.555L421.242 122.4C420.458 124.366 420.146 125.588 420.152 127.318C420.152 128.849 420.554 129.906 421.23 130.914Z" fill="#16B333"/>
</g>
<g id="Group_55">
<path id="Vector_59" d="M430.947 106.501L427.281 104.656L434.008 101.302L437.68 103.141L430.947 106.501Z" fill="#16B333"/>
</g>
<g id="Group_56">
<path id="Vector_60" d="M421.242 122.4L417.57 120.555L421.191 111.468L424.858 113.313L421.242 122.4Z" fill="#16B333"/>
</g>
<g id="Group_57">
<path id="Vector_61" d="M437.68 103.141C438.554 102.706 439.663 102.623 439.67 104.121C439.676 105.537 438.611 106.616 437.693 107.073L431.081 110.372C429.378 111.22 429.098 111.517 428.352 113.384L424.928 121.942C424.418 123.259 424.105 124.123 424.112 125.346C424.118 126.442 424.469 126.932 424.947 127.648L428.339 132.764C429.13 133.981 429.531 133.904 431.317 133.012L437.77 129.796C438.643 129.361 439.753 129.278 439.759 130.776C439.765 132.191 438.701 133.271 437.782 133.728L430.858 137.181C427.886 138.662 426.177 138.332 424.902 136.41L421.23 130.919C420.554 129.917 420.158 128.854 420.152 127.323C420.146 125.594 420.464 124.371 421.242 122.405L424.858 113.318C426.197 109.931 427.899 108.026 430.947 106.506L437.68 103.141Z" fill="white"/>
</g>
<g id="Group_58">
<path id="Vector_62" d="M424.858 113.313L421.185 111.468C422.524 108.081 424.226 106.176 427.274 104.656L430.947 106.501C427.899 108.021 426.197 109.926 424.858 113.313Z" fill="#16B333"/>
</g>
</g>
<g id="Group_59">
<g id="Group_60">
<path id="Vector_63" d="M464.939 119.602L461.266 117.757C461.113 117.68 460.966 117.57 460.833 117.443L464.505 119.288C464.646 119.415 464.786 119.525 464.939 119.602Z" fill="#16B333"/>
</g>
<g id="Group_61">
<path id="Vector_64" d="M449.189 127.543L445.516 125.698C445.179 125.528 445.032 125.104 445.032 124.459L448.705 126.304C448.705 126.949 448.851 127.378 449.189 127.543Z" fill="#16B333"/>
</g>
<g id="Group_62">
<path id="Vector_65" d="M461.4 101.39L457.727 99.5449C458.83 98.9942 460.578 98.0525 460.571 96.4774L464.244 98.3223C464.25 99.8918 462.509 100.839 461.4 101.39Z" fill="#16B333"/>
</g>
<g id="Group_63">
<path id="Vector_66" d="M464.244 98.3168L460.571 96.4775L460.565 93.7625L464.238 95.6073L464.244 98.3168Z" fill="#16B333"/>
</g>
<g id="Group_64">
<path id="Vector_67" d="M460.144 92.8592L463.817 94.7042C464.078 94.8364 464.238 95.1116 464.238 95.6072L460.565 93.7624C460.565 93.2667 460.399 92.9914 460.144 92.8592Z" fill="#16B333"/>
</g>
<g id="Group_65">
<path id="Vector_68" d="M464.512 119.288L460.839 117.443L449.859 107.409L453.525 109.249L464.512 119.288Z" fill="#16B333"/>
</g>
<g id="Group_66">
<path id="Vector_69" d="M452.607 105.774L448.934 103.929L457.727 99.545L461.4 101.39L452.607 105.774Z" fill="#16B333"/>
</g>
<g id="Group_67">
<path id="Vector_70" d="M462.937 88.762L466.609 90.6068C465.404 90.001 463.664 90.1883 461.923 91.0584L458.25 89.2136C459.991 88.3434 461.732 88.1562 462.937 88.762Z" fill="#16B333"/>
</g>
<g id="Group_68">
<path id="Vector_71" d="M448.609 97.689L444.943 95.8495L458.25 89.2135L461.917 91.0583L448.609 97.689Z" fill="#16B333"/>
</g>
<g id="Group_69">
<path id="Vector_72" d="M448.705 126.304L445.032 124.465L444.943 95.8495L448.609 97.689L448.705 126.304Z" fill="#16B333"/>
</g>
<g id="Group_70">
<path id="Vector_73" d="M468.204 96.3399C468.216 100.035 465.13 103.461 461.961 105.041L458.32 106.859L467.273 115.075C467.706 115.444 468.267 115.912 468.267 116.661C468.274 117.763 467.362 118.963 466.252 119.519C465.462 119.916 464.939 119.701 464.505 119.283L453.519 109.249L452.607 109.7L452.652 124.327C452.658 125.583 452.104 126.569 450.675 127.279C449.253 127.989 448.692 127.554 448.686 126.299L448.59 97.6836L461.897 91.0475C465.028 89.4835 468.165 90.1277 468.178 93.6192L468.204 96.3399ZM452.607 105.774L461.406 101.39C462.51 100.839 464.257 99.8974 464.25 98.3224L464.244 95.6128C464.237 94.0433 462.618 94.6547 461.426 95.2495L452.594 99.6551L452.607 105.774Z" fill="white"/>
</g>
</g>
<g id="Group_71">
<g id="Group_72">
<path id="Vector_74" d="M493.307 105.542L489.634 103.697C489.296 103.527 489.15 103.103 489.15 102.458L492.822 104.303C492.829 104.947 492.975 105.377 493.307 105.542Z" fill="#16B333"/>
</g>
<g id="Group_73">
<path id="Vector_75" d="M477.71 113.324L474.037 111.485C473.7 111.314 473.553 110.89 473.553 110.245L477.226 112.09C477.226 112.729 477.372 113.159 477.71 113.324Z" fill="#16B333"/>
</g>
<g id="Group_74">
<path id="Vector_76" d="M492.822 104.309L489.156 102.464L489.079 79.2678L492.746 81.1126L492.822 104.309Z" fill="#16B333"/>
</g>
<g id="Group_75">
<path id="Vector_77" d="M485.611 92.7051L481.938 90.8601C481.492 90.6343 481.294 90.0396 481.294 89.3237L484.967 91.1685C484.967 91.89 485.164 92.4848 485.611 92.7051Z" fill="#16B333"/>
</g>
<g id="Group_76">
<path id="Vector_78" d="M484.967 91.1742L481.294 89.3293V88.707L484.967 90.5464V91.1742Z" fill="#16B333"/>
</g>
<g id="Group_77">
<path id="Vector_79" d="M486.931 85.5073L483.264 83.6679L488.072 74.3443L491.738 76.1838L486.931 85.5073Z" fill="#16B333"/>
</g>
<g id="Group_78">
<path id="Vector_80" d="M491.738 76.1837L488.072 74.3442L493.02 71.877L496.693 73.7165L491.738 76.1837Z" fill="#16B333"/>
</g>
<g id="Group_79">
<path id="Vector_81" d="M484.967 90.5464L481.294 88.7069L477.513 85.0337L481.186 86.8785L484.967 90.5464Z" fill="#16B333"/>
</g>
<g id="Group_80">
<path id="Vector_82" d="M477.226 112.085L473.553 110.24L473.458 81.6301L477.13 83.4695L477.226 112.085Z" fill="#16B333"/>
</g>
<g id="Group_81">
<path id="Vector_83" d="M496.693 73.7164L496.788 102.331C496.795 103.587 496.246 104.573 494.818 105.283C493.396 105.994 492.835 105.559 492.829 104.303L492.752 81.1069L488.933 88.5692V89.1971C488.939 90.4141 488.467 91.7963 486.962 92.5452C485.541 93.2557 484.979 92.391 484.973 91.1685V90.5407L481.192 86.8729V110.108C481.198 111.358 480.644 112.349 479.215 113.059C477.787 113.77 477.232 113.335 477.226 112.079L477.13 83.464L482.072 80.9968L486.931 85.5016L491.738 76.1781L496.693 73.7164Z" fill="white"/>
</g>
<g id="Group_82">
<path id="Vector_84" d="M477.13 83.4697L473.458 81.6302L478.406 79.163L482.072 81.0025L477.13 83.4697Z" fill="#16B333"/>
</g>
</g>
</g>
</g>
<g id="Group_83">
<g id="Group_84">
<g id="Group_85">
<g id="Group_86">
<g id="Group_87">
<path id="Vector_85" d="M5.47664 283.853L0.0631866 281.138L174.786 194.015L180.193 196.73L5.47664 283.853Z" fill="#2E3344"/>
</g>
<g id="Group_88">
<path id="Vector_86" d="M5.74439 409.234L0.337362 406.519L0.0631866 281.138L5.47664 283.853L5.74439 409.234Z" fill="#404040"/>
</g>
<g id="Group_89">
<path id="Vector_87" d="M5.47728 283.853L0.063825 281.138L0 261.477L5.41345 264.192L5.47728 283.853Z" fill="#2AC1F7"/>
</g>
<g id="Group_90">
<path id="Vector_88" d="M5.41345 264.192L0 261.477L174.723 174.354L180.13 177.069L5.41345 264.192Z" fill="#73D8FF"/>
</g>
<g id="Group_91">
<path id="Vector_89" d="M180.13 177.069L180.194 196.729L5.47726 283.853L5.41344 264.192L180.13 177.069Z" fill="#45CEFF"/>
</g>
<g id="Group_92">
<path id="Vector_90" d="M180.468 322.111L180.194 196.73L5.47726 283.853L5.74502 409.234L180.468 322.111Z" fill="#545454"/>
</g>
</g>
</g>
<g id="Group_93">
<g id="Group_94">
<g id="Group_95">
<path id="Vector_91" d="M36.434 337.724L40.0429 339.536C39.4436 339.233 38.6083 339.277 37.6965 339.734L34.0876 337.922C34.9994 337.465 35.8346 337.421 36.434 337.724Z" fill="#CBD2DE"/>
</g>
<g id="Group_96">
<path id="Vector_92" d="M23.0558 354.036L19.4469 352.224C18.8539 351.927 18.4905 351.299 18.4905 350.401L22.0994 352.213C22.0994 353.111 22.4628 353.739 23.0558 354.036Z" fill="#CBD2DE"/>
</g>
<g id="Group_97">
<path id="Vector_93" d="M22.0932 352.208L18.4906 350.401L18.4842 348.98L22.0932 350.792V352.208Z" fill="#CBD2DE"/>
</g>
<g id="Group_98">
<path id="Vector_94" d="M25.3839 345.869L21.775 344.057L34.0876 337.922L37.6902 339.734L25.3839 345.869Z" fill="#CBD2DE"/>
</g>
<g id="Group_99">
<path id="Vector_95" d="M22.0932 350.792L18.4842 348.98C18.4778 347.169 19.9508 344.966 21.7744 344.057L25.3833 345.869C23.5534 346.778 22.0869 348.98 22.0932 350.792Z" fill="#CBD2DE"/>
</g>
<g id="Group_100">
<path id="Vector_96" d="M37.6902 339.734C39.5138 338.825 40.9931 339.552 40.9994 341.364L41.0058 342.785C41.0121 344.597 39.5393 346.794 37.7157 347.703L25.4094 353.838C23.5858 354.746 22.1065 354.025 22.1001 352.213L22.0938 350.792C22.0874 348.98 23.5603 346.777 25.3839 345.869L37.6902 339.734Z" fill="white"/>
</g>
</g>
<g id="Group_101">
<g id="Group_102">
<path id="Vector_97" d="M53.4012 329.259L57.0103 331.071C56.4109 330.768 55.5819 330.812 54.6637 331.269L51.0548 329.457C51.9666 329 52.8019 328.962 53.4012 329.259Z" fill="#FF1F41"/>
</g>
<g id="Group_103">
<path id="Vector_98" d="M47.9876 341.601L44.3786 339.789C43.7857 339.492 43.4221 338.864 43.4221 337.966L47.0312 339.778C47.0312 340.675 47.401 341.303 47.9876 341.601Z" fill="#FF1F41"/>
</g>
<g id="Group_104">
<path id="Vector_99" d="M47.0314 339.778L43.4223 337.966L43.416 336.545L47.0249 338.357L47.0314 339.778Z" fill="#FF1F41"/>
</g>
<g id="Group_105">
<path id="Vector_100" d="M50.3151 333.439L46.7061 331.627L51.0484 329.457L54.6574 331.269L50.3151 333.439Z" fill="#FF1F41"/>
</g>
<g id="Group_106">
<path id="Vector_101" d="M47.025 338.357L43.416 336.545C43.4096 334.733 44.8825 332.531 46.7061 331.622L50.3152 333.434C48.4915 334.348 47.0186 336.545 47.025 338.357Z" fill="#FF1F41"/>
</g>
<g id="Group_107">
<path id="Vector_102" d="M54.6574 331.269C56.4811 330.36 57.9603 331.087 57.9667 332.899L57.9731 334.32C57.9795 336.132 56.5065 338.329 54.6829 339.238L50.3407 341.402C48.5171 342.311 47.0378 341.589 47.0314 339.778L47.025 338.357C47.0186 336.545 48.4916 334.348 50.3152 333.433L54.6574 331.269Z" fill="#FF5F76"/>
</g>
</g>
<g id="Group_108">
<g id="Group_109">
<path id="Vector_103" d="M46.2917 316.433L49.9007 318.245C49.3013 317.942 48.4724 317.986 47.5542 318.443L43.9452 316.631C44.8634 316.174 45.6923 316.13 46.2917 316.433Z" fill="#FF8400"/>
</g>
<g id="Group_110">
<path id="Vector_104" d="M23.005 337.691L19.3961 335.879C18.8031 335.581 18.4396 334.948 18.4332 334.05L22.0422 335.862C22.0422 336.76 22.412 337.393 23.005 337.691Z" fill="#FF8400"/>
</g>
<g id="Group_111">
<path id="Vector_105" d="M22.0423 335.862L18.4334 334.05L18.427 332.629L22.036 334.441L22.0423 335.862Z" fill="#FF8400"/>
</g>
<g id="Group_112">
<path id="Vector_106" d="M25.3265 329.524L21.7238 327.717L43.9516 316.631L47.5605 318.443L25.3265 329.524Z" fill="#FF8400"/>
</g>
<g id="Group_113">
<path id="Vector_107" d="M22.036 334.441L18.427 332.63C18.4206 330.823 19.8936 328.626 21.7172 327.717L25.3261 329.529C23.5025 330.438 22.0296 332.635 22.036 334.441Z" fill="#FF8400"/>
</g>
<g id="Group_114">
<path id="Vector_108" d="M47.5606 318.443C49.3778 317.535 50.8572 318.267 50.8635 320.068L50.87 321.489C50.8763 323.301 49.4033 325.498 47.5861 326.407L25.3584 337.493C23.5348 338.401 22.0556 337.674 22.0492 335.862L22.0428 334.442C22.0364 332.635 23.5093 330.438 25.333 329.524L47.5606 318.443Z" fill="#FFB30F"/>
</g>
</g>
<g id="Group_115">
<g id="Group_116">
<path id="Vector_109" d="M36.3256 305.028L39.9346 306.84C39.3352 306.537 38.4999 306.581 37.5817 307.038L33.9728 305.226C34.8973 304.769 35.7263 304.725 36.3256 305.028Z" fill="#FF8400"/>
</g>
<g id="Group_117">
<path id="Vector_110" d="M22.9476 321.34L19.3386 319.528C18.7456 319.231 18.3822 318.603 18.3758 317.705L21.9847 319.517C21.9911 320.415 22.3546 321.042 22.9476 321.34Z" fill="#FF8400"/>
</g>
<g id="Group_118">
<path id="Vector_111" d="M21.9847 319.517L18.3822 317.705L18.3758 316.279L21.9847 318.091V319.517Z" fill="#FF8400"/>
</g>
<g id="Group_119">
<path id="Vector_112" d="M25.2755 313.173L21.6666 311.366L33.9792 305.226L37.5817 307.038L25.2755 313.173Z" fill="#FF8400"/>
</g>
<g id="Group_120">
<path id="Vector_113" d="M21.9847 318.091L18.3758 316.279C18.3694 314.472 19.8424 312.275 21.666 311.361L25.2749 313.173C23.4513 314.087 21.9784 316.284 21.9847 318.091Z" fill="#FF8400"/>
</g>
<g id="Group_121">
<path id="Vector_114" d="M37.5818 307.038C39.4054 306.129 40.8848 306.856 40.8911 308.663L40.8975 310.089C40.9038 311.895 39.431 314.093 37.6074 315.001L25.2948 321.142C23.4712 322.05 21.9918 321.324 21.9854 319.517L21.9791 318.091C21.9727 316.284 23.4456 314.087 25.2692 313.173L37.5818 307.038Z" fill="#FFB30F"/>
</g>
</g>
<g id="Group_122">
<g id="Group_123">
<path id="Vector_115" d="M72.2559 303.491L75.8649 305.303C75.2656 305 74.4366 305.044 73.5184 305.501L69.9095 303.69C70.8213 303.227 71.6565 303.188 72.2559 303.491Z" fill="#CBD2DE"/>
</g>
<g id="Group_124">
<path id="Vector_116" d="M58.8847 319.798L55.2758 317.986C54.6828 317.689 54.3193 317.055 54.3129 316.158L57.9219 317.97C57.9219 318.873 58.2917 319.501 58.8847 319.798Z" fill="#CBD2DE"/>
</g>
<g id="Group_125">
<path id="Vector_117" d="M57.922 317.97L54.3131 316.158L54.3066 314.742L57.9157 316.549L57.922 317.97Z" fill="#CBD2DE"/>
</g>
<g id="Group_126">
<path id="Vector_118" d="M61.1995 311.636L57.5904 309.83L69.9094 303.684L73.5184 305.496L61.1995 311.636Z" fill="#CBD2DE"/>
</g>
<g id="Group_127">
<path id="Vector_119" d="M57.9157 316.549L54.3067 314.737C54.3003 312.93 55.7732 310.733 57.5904 309.824L61.1995 311.636C59.3822 312.545 57.9093 314.748 57.9157 316.549Z" fill="#CBD2DE"/>
</g>
<g id="Group_128">
<path id="Vector_120" d="M73.5184 305.496C75.3356 304.587 76.8213 305.32 76.8213 307.121L76.8277 308.541C76.8341 310.353 75.3612 312.551 73.544 313.459L61.225 319.6C59.4077 320.508 57.922 319.776 57.922 317.964L57.9157 316.543C57.9093 314.737 59.3822 312.54 61.1995 311.631L73.5184 305.496Z" fill="white"/>
</g>
</g>
<g id="Group_129">
<g id="Group_130">
<path id="Vector_121" d="M158.329 244.19L161.938 246.002C161.339 245.699 160.51 245.743 159.592 246.2L155.983 244.389C156.901 243.932 157.73 243.887 158.329 244.19Z" fill="#FF8400"/>
</g>
<g id="Group_131">
<path id="Vector_122" d="M144.958 260.502L141.349 258.691C140.756 258.393 140.393 257.765 140.386 256.868L143.995 258.68C144.002 259.572 144.365 260.205 144.958 260.502Z" fill="#FF8400"/>
</g>
<g id="Group_132">
<path id="Vector_123" d="M143.995 258.68L140.386 256.868V255.441L143.989 257.253L143.995 258.68Z" fill="#FF8400"/>
</g>
<g id="Group_133">
<path id="Vector_124" d="M147.279 252.335L143.676 250.529L155.983 244.389L159.592 246.195L147.279 252.335Z" fill="#FF8400"/>
</g>
<g id="Group_134">
<path id="Vector_125" d="M143.989 257.253L140.38 255.441C140.374 253.635 141.846 251.438 143.67 250.523L147.279 252.335C145.456 253.244 143.983 255.447 143.989 257.253Z" fill="#FF8400"/>
</g>
<g id="Group_135">
<path id="Vector_126" d="M159.592 246.195C161.409 245.286 162.895 246.019 162.895 247.825L162.901 249.251C162.907 251.058 161.434 253.255 159.617 254.164L147.305 260.304C145.481 261.213 144.002 260.486 143.995 258.68L143.989 257.253C143.983 255.447 145.456 253.244 147.279 252.335L159.592 246.195Z" fill="#FFB30F"/>
</g>
</g>
<g id="Group_136">
<g id="Group_137">
<path id="Vector_127" d="M72.1985 287.141L75.8075 288.952C75.2081 288.649 74.3792 288.694 73.4611 289.151L69.852 287.339C70.7702 286.882 71.5991 286.838 72.1985 287.141Z" fill="#FF8400"/>
</g>
<g id="Group_138">
<path id="Vector_128" d="M48.906 308.398L45.297 306.586C44.704 306.289 44.3406 305.661 44.3342 304.763L47.9431 306.575C47.9495 307.467 48.3193 308.101 48.906 308.398Z" fill="#FF8400"/>
</g>
<g id="Group_139">
<path id="Vector_129" d="M47.9496 306.575L44.3406 304.763L44.3342 303.337L47.9431 305.149L47.9496 306.575Z" fill="#FF8400"/>
</g>
<g id="Group_140">
<path id="Vector_130" d="M51.2333 300.231L47.6244 298.419L69.8584 287.333L73.4611 289.145L51.2333 300.231Z" fill="#FF8400"/>
</g>
<g id="Group_141">
<path id="Vector_131" d="M47.9432 305.149L44.3342 303.337C44.3278 301.531 45.8008 299.334 47.6244 298.419L51.2334 300.231C49.4097 301.14 47.9368 303.343 47.9432 305.149Z" fill="#FF8400"/>
</g>
<g id="Group_142">
<path id="Vector_132" d="M73.4611 289.145C75.2784 288.237 76.764 288.969 76.764 290.77L76.7704 292.196C76.7768 294.003 75.3038 296.2 73.4866 297.109L51.2589 308.195C49.4353 309.103 47.956 308.376 47.9496 306.57L47.9432 305.143C47.9368 303.337 49.4098 301.14 51.2334 300.226L73.4611 289.145Z" fill="#FFB30F"/>
</g>
</g>
<g id="Group_143">
<g id="Group_144">
<path id="Vector_133" d="M27.7113 292.945L31.3202 294.757C30.7209 294.454 29.8919 294.498 28.9801 294.955L25.3712 293.143C26.283 292.692 27.1119 292.648 27.7113 292.945Z" fill="#FF1F41"/>
</g>
<g id="Group_145">
<path id="Vector_134" d="M22.897 304.989L19.2881 303.177C18.6951 302.88 18.3317 302.252 18.3253 301.354L21.9342 303.166C21.9406 304.064 22.3041 304.692 22.897 304.989Z" fill="#FF1F41"/>
</g>
<g id="Group_146">
<path id="Vector_135" d="M21.9342 303.166L18.3253 301.354V299.939L21.9279 301.745L21.9342 303.166Z" fill="#FF1F41"/>
</g>
<g id="Group_147">
<path id="Vector_136" d="M25.2181 296.828L21.6155 295.016L25.3648 293.143L28.9737 294.955L25.2181 296.828Z" fill="#FF1F41"/>
</g>
<g id="Group_148">
<path id="Vector_137" d="M21.9281 301.745L18.319 299.934C18.3127 298.122 19.7856 295.919 21.6092 295.01L25.2182 296.822C23.3946 297.736 21.9217 299.939 21.9281 301.745Z" fill="#FF1F41"/>
</g>
<g id="Group_149">
<path id="Vector_138" d="M28.9738 294.955C30.791 294.047 32.2768 294.779 32.2768 296.585L32.2831 298.006C32.2895 299.812 30.8165 302.01 28.9993 302.918L25.2501 304.791C23.4265 305.7 21.9472 304.973 21.9408 303.166L21.9344 301.745C21.928 299.934 23.401 297.731 25.2246 296.822L28.9738 294.955Z" fill="#FF5F76"/>
</g>
</g>
<g id="Group_150">
<g id="Group_151">
<path id="Vector_139" d="M107.657 285.835L111.266 287.647C110.667 287.344 109.831 287.388 108.913 287.846L105.304 286.034C106.229 285.577 107.058 285.533 107.657 285.835Z" fill="#CBD2DE"/>
</g>
<g id="Group_152">
<path id="Vector_140" d="M84.8425 306.856L81.2336 305.044C80.6406 304.747 80.2707 304.114 80.2707 303.216L83.8797 305.028C83.8797 305.925 84.2495 306.559 84.8425 306.856Z" fill="#CBD2DE"/>
</g>
<g id="Group_153">
<path id="Vector_141" d="M83.8797 305.028L80.2707 303.216V301.795L83.8733 303.607L83.8797 305.028Z" fill="#CBD2DE"/>
</g>
<g id="Group_154">
<path id="Vector_142" d="M87.1573 298.695L83.5547 296.883L105.304 286.034L108.913 287.845L87.1573 298.695Z" fill="#CBD2DE"/>
</g>
<g id="Group_155">
<path id="Vector_143" d="M83.8735 303.607L80.2645 301.795C80.2581 299.989 81.7311 297.791 83.5484 296.883L87.1573 298.694C85.3401 299.598 83.8671 301.8 83.8735 303.607Z" fill="#CBD2DE"/>
</g>
<g id="Group_156">
<path id="Vector_144" d="M108.913 287.846C110.737 286.937 112.216 287.664 112.222 289.47L112.229 290.891C112.235 292.703 110.762 294.9 108.939 295.814L87.1828 306.663C85.3656 307.572 83.8798 306.84 83.8798 305.028L83.8735 303.607C83.8671 301.801 85.3401 299.603 87.1573 298.695L108.913 287.846Z" fill="white"/>
</g>
</g>
<g id="Group_157">
<g id="Group_158">
<path id="Vector_145" d="M132.391 257.127L136 258.939C135.4 258.636 134.565 258.68 133.647 259.137L130.038 257.325C130.962 256.868 131.791 256.824 132.391 257.127Z" fill="#CBD2DE"/>
</g>
<g id="Group_159">
<path id="Vector_146" d="M84.7852 290.505L81.1763 288.693C80.5833 288.396 80.2199 287.768 80.2135 286.871L83.8225 288.683C83.8289 289.58 84.1986 290.208 84.7852 290.505Z" fill="#CBD2DE"/>
</g>
<g id="Group_160">
<path id="Vector_147" d="M83.8288 288.683L80.2199 286.871L80.2135 285.444L83.8225 287.256L83.8288 288.683Z" fill="#CBD2DE"/>
</g>
<g id="Group_161">
<path id="Vector_148" d="M87.1063 282.344L83.4973 280.532L130.044 257.325L133.653 259.131L87.1063 282.344Z" fill="#CBD2DE"/>
</g>
<g id="Group_162">
<path id="Vector_149" d="M83.8225 287.256L80.2135 285.444C80.2071 283.638 81.68 281.435 83.4973 280.532L87.1063 282.344C85.2891 283.247 83.8162 285.45 83.8225 287.256Z" fill="#CBD2DE"/>
</g>
<g id="Group_163">
<path id="Vector_150" d="M133.653 259.131C135.477 258.223 136.956 258.95 136.962 260.756L136.969 262.182C136.975 263.989 135.502 266.186 133.679 267.095L87.1318 290.307C85.3146 291.216 83.8289 290.484 83.8289 288.683L83.8225 287.256C83.8162 285.45 85.2891 283.247 87.1063 282.344L133.653 259.131Z" fill="white"/>
</g>
</g>
</g>
</g>
<g id="Group_164">
<g id="Group_165">
<g id="Group_166">
<path id="Vector_151" d="M166.561 324.198L162.467 322.144L168.142 324.303L172.236 326.357L166.561 324.198Z" fill="#CBD2DE"/>
</g>
<g id="Group_167">
<path id="Vector_152" d="M140.635 360.6L136.541 358.546L134.89 352.031L138.984 354.086L140.635 360.6Z" fill="#CBD2DE"/>
</g>
<g id="Group_168">
<path id="Vector_153" d="M137.039 341.953L132.945 339.899C135.005 340.934 137.855 340.786 140.999 339.222C141.03 339.205 141.062 339.189 141.094 339.172L145.188 341.226C145.156 341.243 145.124 341.259 145.092 341.276C141.949 342.84 139.098 342.983 137.039 341.953Z" fill="#CBD2DE"/>
<g id="Clip path group">
<mask id="mask0_21_4940" style="mask-type:luminance" maskUnits="userSpaceOnUse" x="132" y="339" width="14" height="4">
<g id="SVGID_00000051373328165517676090000000270768177171470732_">
<path id="Vector_154" d="M137.039 341.953L132.945 339.899C135.005 340.934 137.855 340.786 140.999 339.222C141.03 339.205 141.062 339.189 141.094 339.172L145.188 341.226C145.156 341.243 145.124 341.259 145.092 341.276C141.949 342.84 139.098 342.983 137.039 341.953Z" fill="white"/>
</g>
</mask>
<g mask="url(#mask0_21_4940)">
<g id="Group_169">
<path id="Vector_155" d="M137.039 341.953L132.945 339.899C135.005 340.934 137.855 340.786 140.999 339.222C141.03 339.205 141.062 339.189 141.094 339.172L145.188 341.226C145.156 341.243 145.124 341.259 145.092 341.276C141.949 342.84 139.098 342.983 137.039 341.953Z" fill="#CBD2DE"/>
</g>
</g>
</g>
</g>
<g id="Group_170">
<path id="Vector_156" d="M149.001 316.037L153.094 318.091C155.109 319.104 156.365 321.241 156.404 324.286C156.474 330.471 151.456 338.054 145.194 341.226L141.1 339.172C147.362 336 152.38 328.417 152.31 322.232C152.272 319.187 151.009 317.05 149.001 316.037Z" fill="#CBD2DE"/>
<g id="Clip path group_2">
<mask id="mask1_21_4940" style="mask-type:luminance" maskUnits="userSpaceOnUse" x="141" y="316" width="16" height="26">
<g id="SVGID_00000179609796392384203180000016270815745464715703_">
<path id="Vector_157" d="M149.001 316.037L153.094 318.091C155.109 319.104 156.365 321.241 156.404 324.286C156.474 330.471 151.456 338.054 145.194 341.226L141.1 339.172C147.362 336 152.38 328.417 152.31 322.232C152.272 319.187 151.009 317.05 149.001 316.037Z" fill="white"/>
</g>
</mask>
<g mask="url(#mask1_21_4940)">
<g id="Group_171">
<path id="Vector_158" d="M145.189 341.225L141.095 339.171C147.357 335.999 152.375 328.415 152.305 322.231C152.267 319.191 151.011 317.049 148.996 316.041L153.089 318.095C155.104 319.109 156.36 321.245 156.398 324.291C156.469 330.47 151.451 338.053 145.189 341.225Z" fill="#CBD2DE"/>
</g>
</g>
</g>
</g>
<g id="Group_172">
<path id="Vector_159" d="M160.006 306.526L155.913 304.472L163.086 298.518L167.18 300.573L160.006 306.526Z" fill="#CBD2DE"/>
</g>
<g id="Group_173">
<path id="Vector_160" d="M151.149 305.953L147.056 303.899C150.403 303.194 153.426 303.42 155.913 304.472L160.006 306.526C157.519 305.474 154.491 305.248 151.149 305.953Z" fill="#CBD2DE"/>
<g id="Clip path group_3">
<mask id="mask2_21_4940" style="mask-type:luminance" maskUnits="userSpaceOnUse" x="147" y="303" width="14" height="4">
<g id="SVGID_00000107553591371513287400000009786608168904838052_">
<path id="Vector_161" d="M151.149 305.953L147.056 303.899C150.403 303.194 153.426 303.42 155.913 304.472L160.006 306.526C157.519 305.474 154.491 305.248 151.149 305.953Z" fill="white"/>
</g>
</mask>
<g mask="url(#mask2_21_4940)">
<g id="Group_174">
<path id="Vector_162" d="M151.149 305.953L147.056 303.899C150.403 303.194 153.426 303.42 155.913 304.472L160.006 306.526C157.519 305.474 154.491 305.248 151.149 305.953Z" fill="#CBD2DE"/>
</g>
</g>
</g>
</g>
<g id="Group_175">
<path id="Vector_163" d="M122.954 359.471L118.86 357.417C116.826 356.024 115.187 354.102 114.021 351.701L118.114 353.755C119.275 356.156 120.92 358.078 122.954 359.471Z" fill="#CBD2DE"/>
<g id="Clip path group_4">
<mask id="mask3_21_4940" style="mask-type:luminance" maskUnits="userSpaceOnUse" x="114" y="351" width="9" height="9">
<g id="SVGID_00000061449217633191040400000000166646169991531667_">
<path id="Vector_164" d="M122.954 359.471L118.86 357.417C116.826 356.024 115.187 354.102 114.021 351.701L118.114 353.755C119.275 356.156 120.92 358.078 122.954 359.471Z" fill="white"/>
</g>
</mask>
<g mask="url(#mask3_21_4940)">
<g id="Group_176">
<path id="Vector_165" d="M122.954 359.471L118.86 357.417C116.826 356.024 115.187 354.102 114.021 351.701L118.114 353.755C119.275 356.156 120.92 358.078 122.954 359.471Z" fill="#CBD2DE"/>
</g>
</g>
</g>
</g>
<g id="Group_177">
<path id="Vector_166" d="M118.114 353.755L114.021 351.701L119.593 343.853L123.681 345.907L118.114 353.755Z" fill="#CBD2DE"/>
</g>
<g id="Group_178">
<path id="Vector_167" d="M123.681 345.907L119.587 343.853C119.179 342.432 118.962 340.852 118.937 339.122C118.917 337.393 119.102 335.603 119.472 333.791L123.566 335.846C123.202 337.658 123.011 339.442 123.03 341.177C123.056 342.906 123.279 344.486 123.681 345.907Z" fill="#CBD2DE"/>
<g id="Clip path group_5">
<mask id="mask4_21_4940" style="mask-type:luminance" maskUnits="userSpaceOnUse" x="118" y="333" width="6" height="13">
<g id="SVGID_00000047025669162629890380000007798159424359873197_">
<path id="Vector_168" d="M123.681 345.907L119.587 343.853C119.179 342.432 118.962 340.852 118.937 339.122C118.917 337.393 119.102 335.603 119.472 333.791L123.566 335.846C123.202 337.658 123.011 339.442 123.03 341.177C123.056 342.906 123.279 344.486 123.681 345.907Z" fill="white"/>
</g>
</mask>
<g mask="url(#mask4_21_4940)">
<g id="Group_179">
<path id="Vector_169" d="M123.681 345.907L119.587 343.853C119.179 342.432 118.962 340.852 118.937 339.122C118.917 337.393 119.102 335.603 119.472 333.791L123.566 335.846C123.202 337.658 123.011 339.442 123.03 341.177C123.056 342.906 123.279 344.486 123.681 345.907Z" fill="#CBD2DE"/>
</g>
</g>
</g>
</g>
<g id="Group_180">
<path id="Vector_170" d="M129.77 321.841L125.676 319.787C128.118 316.235 131.103 312.969 134.431 310.298L138.525 312.352C135.19 315.023 132.212 318.289 129.77 321.841Z" fill="#CBD2DE"/>
<g id="Clip path group_6">
<mask id="mask5_21_4940" style="mask-type:luminance" maskUnits="userSpaceOnUse" x="125" y="310" width="14" height="12">
<g id="SVGID_00000109741481066987420620000009152353928602088613_">
<path id="Vector_171" d="M129.77 321.841L125.676 319.787C128.118 316.235 131.103 312.969 134.431 310.298L138.525 312.352C135.19 315.023 132.212 318.289 129.77 321.841Z" fill="white"/>
</g>
</mask>
<g mask="url(#mask5_21_4940)">
<g id="Group_181">
<path id="Vector_172" d="M129.77 321.841L125.676 319.787C128.118 316.235 131.103 312.969 134.431 310.298L138.525 312.352C135.19 315.023 132.212 318.289 129.77 321.841Z" fill="#CBD2DE"/>
</g>
</g>
</g>
</g>
<g id="Group_182">
<path id="Vector_173" d="M140.01 304.24L135.917 302.186C137.46 301.156 139.041 300.22 140.654 299.399C140.724 299.366 140.788 299.333 140.858 299.3C142.401 298.529 143.919 297.896 145.404 297.384L149.498 299.438C148.019 299.945 146.501 300.583 144.958 301.354C144.888 301.388 144.824 301.421 144.754 301.454C143.135 302.274 141.553 303.21 140.01 304.24Z" fill="#CBD2DE"/>
<g id="Clip path group_7">
<mask id="mask6_21_4940" style="mask-type:luminance" maskUnits="userSpaceOnUse" x="135" y="297" width="15" height="8">
<g id="SVGID_00000125573777945948415300000014450958488127211160_">
<path id="Vector_174" d="M140.01 304.24L135.917 302.186C137.46 301.156 139.041 300.22 140.654 299.399C140.724 299.366 140.788 299.333 140.858 299.3C142.401 298.529 143.919 297.896 145.404 297.384L149.498 299.438C148.019 299.945 146.501 300.583 144.958 301.354C144.888 301.388 144.824 301.421 144.754 301.454C143.135 302.274 141.553 303.21 140.01 304.24Z" fill="white"/>
</g>
</mask>
<g mask="url(#mask6_21_4940)">
<g id="Group_183">
<path id="Vector_175" d="M140.01 304.24L135.917 302.186C137.46 301.156 139.041 300.22 140.654 299.399C140.724 299.366 140.788 299.333 140.858 299.3C142.401 298.529 143.919 297.896 145.404 297.384L149.498 299.438C148.019 299.945 146.501 300.583 144.958 301.354C144.888 301.388 144.824 301.421 144.754 301.454C143.135 302.274 141.553 303.21 140.01 304.24Z" fill="#CBD2DE"/>
</g>
</g>
</g>
</g>
<g id="Group_184">
<path id="Vector_176" d="M138.518 312.347L134.425 310.298L135.917 302.186L140.01 304.24L138.518 312.347Z" fill="#CBD2DE"/>
</g>
<g id="Group_185">
<path id="Vector_177" d="M122.546 323.174L118.458 321.119L125.676 319.787L129.77 321.841L122.546 323.174Z" fill="#CBD2DE"/>
</g>
<g id="Group_186">
<path id="Vector_178" d="M117.891 333.687L113.797 331.633C114.894 328.092 116.475 324.54 118.452 321.114L122.546 323.168C120.569 326.594 118.988 330.146 117.891 333.687Z" fill="#CBD2DE"/>
<g id="Clip path group_8">
<mask id="mask7_21_4940" style="mask-type:luminance" maskUnits="userSpaceOnUse" x="113" y="321" width="10" height="13">
<g id="SVGID_00000082334247075195481870000009645758733406792104_">
<path id="Vector_179" d="M117.891 333.687L113.797 331.633C114.894 328.092 116.475 324.54 118.452 321.114L122.546 323.168C120.569 326.594 118.988 330.146 117.891 333.687Z" fill="white"/>
</g>
</mask>
<g mask="url(#mask7_21_4940)">
<g id="Group_187">
<path id="Vector_180" d="M117.891 333.687L113.797 331.633C114.894 328.092 116.475 324.54 118.452 321.114L122.546 323.168C120.569 326.594 118.988 330.146 117.891 333.687Z" fill="#CBD2DE"/>
</g>
</g>
</g>
</g>
<g id="Group_188">
<path id="Vector_181" d="M166.561 324.198L172.236 326.357C171.139 329.898 169.558 333.45 167.581 336.876L160.357 338.208C157.921 341.755 154.937 345.021 151.609 347.697L150.123 355.804C148.58 356.839 146.999 357.775 145.385 358.59C145.303 358.634 145.213 358.678 145.13 358.717C143.6 359.477 142.108 360.099 140.641 360.606L138.984 354.091C135.636 354.796 132.614 354.57 130.127 353.518L122.954 359.471C120.926 358.078 119.281 356.156 118.12 353.76L123.687 345.907C123.279 344.486 123.062 342.906 123.037 341.177C123.017 339.447 123.209 337.658 123.572 335.846L117.897 333.687C118.994 330.146 120.575 326.594 122.552 323.174L129.77 321.841C132.212 318.289 135.196 315.023 138.524 312.352L140.01 304.246C141.553 303.216 143.135 302.28 144.748 301.459C144.818 301.426 144.882 301.393 144.952 301.36C146.495 300.589 148.012 299.956 149.492 299.443L151.149 305.958C154.497 305.253 157.519 305.479 160.006 306.531L167.179 300.578C169.207 301.971 170.852 303.888 172.013 306.294L166.446 314.148C166.854 315.568 167.071 317.143 167.097 318.878C167.122 320.613 166.924 322.386 166.561 324.198ZM145.188 341.226C151.449 338.054 156.467 330.471 156.397 324.286C156.327 318.129 151.245 315.673 145.028 318.774C144.996 318.79 144.971 318.801 144.939 318.818C138.678 321.99 133.659 329.573 133.73 335.758C133.8 341.909 138.875 344.371 145.092 341.27C145.124 341.259 145.156 341.237 145.188 341.226Z" fill="white"/>
</g>
</g>
</g>
<g id="Group_189">
<g id="Group_190">
<g id="Group_191">
<path id="Vector_182" d="M112.758 333.681L108.664 331.627L112.254 332.993L116.348 335.047L112.758 333.681Z" fill="#CBD2DE"/>
</g>
<g id="Group_192">
<path id="Vector_183" d="M96.3709 356.696L92.2773 354.642L91.2316 350.523L95.3252 352.577L96.3709 356.696Z" fill="#CBD2DE"/>
</g>
<g id="Group_193">
<path id="Vector_184" d="M95.6568 342.322L92.3985 340.687C93.2785 341.127 94.5027 341.067 95.8481 340.395C95.8609 340.389 95.8737 340.378 95.8864 340.373L99.1447 342.008C99.132 342.014 99.1191 342.025 99.1064 342.03C97.7546 342.702 96.5368 342.768 95.6568 342.322Z" fill="#CBD2DE"/>
<g id="Clip path group_9">
<mask id="mask8_21_4940" style="mask-type:luminance" maskUnits="userSpaceOnUse" x="92" y="340" width="8" height="3">
<g id="SVGID_00000065769877090479153990000001880713122088205190_">
<path id="Vector_185" d="M95.6568 342.322L92.3985 340.687C93.2785 341.127 94.5027 341.067 95.8481 340.395C95.8609 340.389 95.8737 340.378 95.8864 340.373L99.1447 342.008C99.132 342.014 99.1191 342.025 99.1064 342.03C97.7546 342.702 96.5368 342.768 95.6568 342.322Z" fill="white"/>
</g>
</mask>
<g mask="url(#mask8_21_4940)">
<g id="Group_194">
<path id="Vector_186" d="M95.6568 342.322L92.3985 340.687C93.2785 341.127 94.5027 341.067 95.8481 340.395C95.8609 340.389 95.8737 340.378 95.8864 340.373L99.1447 342.008C99.132 342.014 99.1191 342.025 99.1064 342.03C97.7546 342.702 96.5368 342.768 95.6568 342.322Z" fill="#CBD2DE"/>
</g>
</g>
</g>
</g>
<g id="Group_195">
<path id="Vector_187" d="M99.2658 330.482L102.524 332.117C103.385 332.553 103.927 333.467 103.94 334.766C103.972 337.415 101.823 340.659 99.1447 342.014L95.8864 340.378C98.5644 339.023 100.713 335.774 100.681 333.131C100.669 331.831 100.127 330.911 99.2658 330.482Z" fill="#CBD2DE"/>
<g id="Clip path group_10">
<mask id="mask9_21_4940" style="mask-type:luminance" maskUnits="userSpaceOnUse" x="95" y="330" width="9" height="13">
<g id="SVGID_00000025441764717661829100000002630468105708285110_">
<path id="Vector_188" d="M99.2658 330.482L102.524 332.117C103.385 332.553 103.927 333.467 103.94 334.766C103.972 337.415 101.823 340.659 99.1447 342.014L95.8864 340.378C98.5644 339.023 100.713 335.774 100.681 333.131C100.669 331.831 100.127 330.911 99.2658 330.482Z" fill="white"/>
</g>
</mask>
<g mask="url(#mask9_21_4940)">
<g id="Group_196">
<path id="Vector_189" d="M99.1447 342.014L95.8864 340.378C98.5644 339.023 100.713 335.774 100.681 333.131C100.669 331.831 100.127 330.911 99.2658 330.482L102.524 332.117C103.385 332.553 103.927 333.467 103.94 334.766C103.965 337.41 101.823 340.659 99.1447 342.014Z" fill="#CBD2DE"/>
</g>
</g>
</g>
</g>
<g id="Group_197">
<path id="Vector_190" d="M108.613 322.508L104.52 320.453L109.053 316.692L113.147 318.746L108.613 322.508Z" fill="#CBD2DE"/>
</g>
<g id="Group_198">
<path id="Vector_191" d="M103.015 322.149L98.9215 320.095C101.038 319.649 102.951 319.792 104.52 320.459L108.613 322.513C107.045 321.847 105.132 321.703 103.015 322.149Z" fill="#CBD2DE"/>
<g id="Clip path group_11">
<mask id="mask10_21_4940" style="mask-type:luminance" maskUnits="userSpaceOnUse" x="98" y="319" width="11" height="4">
<g id="SVGID_00000088835543718104390690000000839751925940785548_">
<path id="Vector_192" d="M103.015 322.149L98.9215 320.095C101.038 319.649 102.951 319.792 104.52 320.459L108.613 322.513C107.045 321.847 105.132 321.703 103.015 322.149Z" fill="white"/>
</g>
</mask>
<g mask="url(#mask10_21_4940)">
<g id="Group_199">
<path id="Vector_193" d="M103.015 322.149L98.9215 320.095C101.038 319.649 102.951 319.792 104.52 320.459L108.613 322.513C107.045 321.847 105.132 321.703 103.015 322.149Z" fill="#CBD2DE"/>
</g>
</g>
</g>
</g>
<g id="Group_200">
<path id="Vector_194" d="M85.1865 355.98L81.093 353.926C79.8113 353.045 78.772 351.833 78.0324 350.313L82.126 352.367C82.8656 353.887 83.9049 355.099 85.1865 355.98Z" fill="#CBD2DE"/>
<g id="Clip path group_12">
<mask id="mask11_21_4940" style="mask-type:luminance" maskUnits="userSpaceOnUse" x="78" y="350" width="8" height="6">
<g id="SVGID_00000116226547275370103670000003922082737420300162_">
<path id="Vector_195" d="M85.1865 355.98L81.093 353.926C79.8113 353.045 78.772 351.833 78.0324 350.313L82.126 352.367C82.8656 353.887 83.9049 355.099 85.1865 355.98Z" fill="white"/>
</g>
</mask>
<g mask="url(#mask11_21_4940)">
<g id="Group_201">
<path id="Vector_196" d="M85.1865 355.98L81.093 353.926C79.8113 353.045 78.772 351.833 78.0324 350.313L82.126 352.367C82.8656 353.887 83.9049 355.099 85.1865 355.98Z" fill="#CBD2DE"/>
</g>
</g>
</g>
</g>
<g id="Group_202">
<path id="Vector_197" d="M82.1323 352.367L78.0387 350.313L81.5584 345.351L85.652 347.405L82.1323 352.367Z" fill="#CBD2DE"/>
</g>
<g id="Group_203">
<path id="Vector_198" d="M85.6524 347.405L81.5589 345.351C81.3038 344.454 81.1636 343.451 81.1508 342.361C81.1381 341.265 81.2592 340.136 81.4887 338.99L85.5823 341.045C85.3527 342.19 85.2316 343.319 85.2444 344.415C85.2571 345.505 85.3974 346.508 85.6524 347.405Z" fill="#CBD2DE"/>
<g id="Clip path group_13">
<mask id="mask12_21_4940" style="mask-type:luminance" maskUnits="userSpaceOnUse" x="81" y="338" width="5" height="10">
<g id="SVGID_00000036957612942975338490000011111780609726466946_">
<path id="Vector_199" d="M85.6524 347.405L81.5589 345.351C81.3038 344.454 81.1636 343.451 81.1508 342.361C81.1381 341.265 81.2592 340.136 81.4887 338.99L85.5823 341.045C85.3527 342.19 85.2316 343.319 85.2444 344.415C85.2571 345.505 85.3974 346.508 85.6524 347.405Z" fill="white"/>
</g>
</mask>
<g mask="url(#mask12_21_4940)">
<g id="Group_204">
<path id="Vector_200" d="M85.6524 347.405L81.5589 345.351C81.3038 344.454 81.1636 343.451 81.1508 342.361C81.1381 341.265 81.2592 340.136 81.4887 338.99L85.5823 341.045C85.3527 342.19 85.2316 343.319 85.2444 344.415C85.2571 345.505 85.3974 346.508 85.6524 347.405Z" fill="#CBD2DE"/>
</g>
</g>
</g>
</g>
<g id="Group_205">
<path id="Vector_201" d="M89.4974 332.189L85.4037 330.135C86.9468 327.888 88.8342 325.828 90.9384 324.138L95.032 326.192C92.9278 327.883 91.0404 329.942 89.4974 332.189Z" fill="#CBD2DE"/>
<g id="Clip path group_14">
<mask id="mask13_21_4940" style="mask-type:luminance" maskUnits="userSpaceOnUse" x="85" y="324" width="11" height="9">
<g id="SVGID_00000141425946306139650250000005667032243851089831_">
<path id="Vector_202" d="M89.4974 332.189L85.4037 330.135C86.9468 327.888 88.8342 325.828 90.9384 324.138L95.032 326.192C92.9278 327.883 91.0404 329.942 89.4974 332.189Z" fill="white"/>
</g>
</mask>
<g mask="url(#mask13_21_4940)">
<g id="Group_206">
<path id="Vector_203" d="M89.4974 332.189L85.4037 330.135C86.9468 327.888 88.8342 325.828 90.9384 324.138L95.032 326.192C92.9278 327.883 91.0404 329.942 89.4974 332.189Z" fill="#CBD2DE"/>
</g>
</g>
</g>
</g>
<g id="Group_207">
<path id="Vector_204" d="M95.9756 321.065L91.8821 319.01C92.8576 318.361 93.8587 317.766 94.8789 317.248C94.9236 317.226 94.9618 317.204 95.0065 317.182C95.982 316.692 96.9385 316.295 97.8758 315.97L101.969 318.025C101.032 318.344 100.076 318.746 99.0936 319.236C99.049 319.258 99.0108 319.28 98.9662 319.302C97.9459 319.82 96.9448 320.409 95.9756 321.065Z" fill="#CBD2DE"/>
<g id="Clip path group_15">
<mask id="mask14_21_4940" style="mask-type:luminance" maskUnits="userSpaceOnUse" x="91" y="315" width="11" height="7">
<g id="SVGID_00000134237444133079560540000014968611591878328230_">
<path id="Vector_205" d="M95.9756 321.065L91.8821 319.01C92.8576 318.361 93.8587 317.766 94.8789 317.248C94.9236 317.226 94.9618 317.204 95.0065 317.182C95.982 316.692 96.9385 316.295 97.8758 315.97L101.969 318.025C101.032 318.344 100.076 318.746 99.0936 319.236C99.049 319.258 99.0108 319.28 98.9662 319.302C97.9459 319.82 96.9448 320.409 95.9756 321.065Z" fill="white"/>
</g>
</mask>
<g mask="url(#mask14_21_4940)">
<g id="Group_208">
<path id="Vector_206" d="M95.9756 321.065L91.8821 319.01C92.8576 318.361 93.8587 317.766 94.8789 317.248C94.9236 317.226 94.9618 317.204 95.0065 317.182C95.982 316.692 96.9385 316.295 97.8758 315.97L101.969 318.025C101.032 318.344 100.076 318.746 99.0936 319.236C99.049 319.258 99.0108 319.28 98.9662 319.302C97.9459 319.82 96.9448 320.409 95.9756 321.065Z" fill="#CBD2DE"/>
</g>
</g>
</g>
</g>
<g id="Group_209">
<path id="Vector_207" d="M95.032 326.192L90.9384 324.138L91.8821 319.01L95.9757 321.065L95.032 326.192Z" fill="#CBD2DE"/>
</g>
<g id="Group_210">
<path id="Vector_208" d="M84.9319 333.031L80.8447 330.977L85.4037 330.135L89.4974 332.189L84.9319 333.031Z" fill="#CBD2DE"/>
</g>
<g id="Group_211">
<path id="Vector_209" d="M81.9925 339.679L77.899 337.625C78.594 335.383 79.5886 333.142 80.8447 330.978L84.9383 333.032C83.6822 335.196 82.6812 337.437 81.9925 339.679Z" fill="#CBD2DE"/>
<g id="Clip path group_16">
<mask id="mask15_21_4940" style="mask-type:luminance" maskUnits="userSpaceOnUse" x="77" y="330" width="8" height="10">
<g id="SVGID_00000167379815796108116930000005709531341808699060_">
<path id="Vector_210" d="M81.9925 339.679L77.899 337.625C78.594 335.383 79.5886 333.142 80.8447 330.978L84.9383 333.032C83.6822 335.196 82.6812 337.437 81.9925 339.679Z" fill="white"/>
</g>
</mask>
<g mask="url(#mask15_21_4940)">
<g id="Group_212">
<path id="Vector_211" d="M81.9925 339.679L77.899 337.625C78.594 335.383 79.5886 333.142 80.8447 330.978L84.9383 333.032C83.6822 335.196 82.6812 337.437 81.9925 339.679Z" fill="#CBD2DE"/>
</g>
</g>
</g>
</g>
<g id="Group_213">
<path id="Vector_212" d="M112.758 333.681L116.348 335.047C115.653 337.289 114.658 339.53 113.402 341.694L108.837 342.537C107.294 344.778 105.406 346.844 103.308 348.534L102.365 353.656C101.389 354.311 100.388 354.9 99.3678 355.418C99.3168 355.446 99.2595 355.473 99.2084 355.501C98.2456 355.98 97.2955 356.377 96.371 356.696L95.3252 352.577C93.2083 353.023 91.2955 352.879 89.7269 352.213L85.1934 355.98C83.9118 355.099 82.8725 353.887 82.1328 352.367L85.6524 347.405C85.3974 346.508 85.2571 345.505 85.2444 344.415C85.2316 343.319 85.3527 342.19 85.5823 341.045L81.9925 339.679C82.6875 337.437 83.6822 335.196 84.9383 333.032L89.5037 332.189C91.0468 329.942 92.9341 327.883 95.0383 326.192L95.9821 321.065C96.9576 320.415 97.9587 319.82 98.9789 319.302C99.0236 319.28 99.0617 319.258 99.1064 319.236C100.082 318.752 101.038 318.35 101.982 318.025L103.028 322.144C105.145 321.698 107.058 321.841 108.626 322.508L113.16 318.746C114.441 319.627 115.481 320.839 116.22 322.359L112.701 327.321C112.956 328.218 113.096 329.215 113.109 330.311C113.121 331.407 112.988 332.536 112.758 333.681ZM99.1447 342.014C101.823 340.659 103.972 337.41 103.94 334.766C103.908 332.128 101.733 331.082 99.0746 332.409C99.0618 332.415 99.049 332.42 99.0362 332.426C96.3582 333.781 94.2094 337.03 94.2413 339.673C94.2732 342.306 96.4411 343.357 99.1001 342.03C99.1128 342.025 99.132 342.019 99.1447 342.014Z" fill="white"/>
</g>
</g>
</g>
</g>
</g>
<defs>
<linearGradient id="paint0_linear_21_4940" x1="128.431" y1="457.432" x2="378.162" y2="457.432" gradientUnits="userSpaceOnUse">
<stop offset="0.5199" stop-color="#9C9CD8"/>
<stop offset="0.5989" stop-color="#C1C1E8"/>
</linearGradient>
<linearGradient id="paint1_linear_21_4940" x1="262.245" y1="408.015" x2="239.815" y2="363.033" gradientUnits="userSpaceOnUse">
<stop offset="0.0346" stop-color="#B5B5E8"/>
<stop offset="0.565" stop-color="#9595D4"/>
</linearGradient>
<linearGradient id="paint2_linear_21_4940" x1="35.9379" y1="434.041" x2="289.931" y2="-75.3149" gradientUnits="userSpaceOnUse">
<stop offset="0.3984" stop-color="#7070BD"/>
<stop offset="0.4357" stop-color="#8D8DC6"/>
</linearGradient>
<linearGradient id="paint3_linear_21_4940" x1="404.303" y1="264.805" x2="352.25" y2="160.418" gradientUnits="userSpaceOnUse">
<stop offset="0.7286" stop-color="#D7D8E8"/>
<stop offset="0.9347" stop-color="#EAE9F2"/>
</linearGradient>
<linearGradient id="paint4_linear_21_4940" x1="218.26" y1="255.8" x2="368.358" y2="255.8" gradientUnits="userSpaceOnUse">
<stop offset="0.371" stop-color="#CACCDE"/>
<stop offset="0.9694" stop-color="#EAE9F2"/>
</linearGradient>
<linearGradient id="paint5_linear_21_4940" x1="266.287" y1="247.835" x2="311.678" y2="156.808" gradientUnits="userSpaceOnUse">
<stop stop-color="#CACCDE"/>
<stop offset="0.5597" stop-color="#EAE9F2"/>
</linearGradient>
<linearGradient id="paint6_linear_21_4940" x1="281.754" y1="190.259" x2="397.795" y2="190.259" gradientUnits="userSpaceOnUse">
<stop offset="0.2355" stop-color="#A8A4B5"/>
<stop offset="1" stop-color="#DBD3E2"/>
</linearGradient>
<linearGradient id="paint7_linear_21_4940" x1="222.795" y1="274.808" x2="316.261" y2="30.1759" gradientUnits="userSpaceOnUse">
<stop offset="0.371" stop-color="#CACCDE"/>
<stop offset="0.9694" stop-color="#EAE9F2"/>
</linearGradient>
<linearGradient id="paint8_linear_21_4940" x1="263.762" y1="163.707" x2="313.199" y2="64.5652" gradientUnits="userSpaceOnUse">
<stop stop-color="#CACCDE"/>
<stop offset="0.5597" stop-color="#EAE9F2"/>
</linearGradient>
<linearGradient id="paint9_linear_21_4940" x1="233.965" y1="346.507" x2="210.698" y2="194.799" gradientUnits="userSpaceOnUse">
<stop stop-color="#CACCDE"/>
<stop offset="1" stop-color="#DFDEEE"/>
</linearGradient>
<linearGradient id="paint10_linear_21_4940" x1="225.388" y1="335.505" x2="217.117" y2="191.286" gradientUnits="userSpaceOnUse">
<stop stop-color="#CACCDE"/>
<stop offset="1" stop-color="#DFDEEE"/>
</linearGradient>
<linearGradient id="paint11_linear_21_4940" x1="260.788" y1="310.954" x2="208.833" y2="206.763" gradientUnits="userSpaceOnUse">
<stop offset="0.6799" stop-color="#DBDBEA"/>
<stop offset="0.8132" stop-color="#EAE9F2"/>
</linearGradient>
</defs>
</svg>
