<svg width="320" height="43" viewBox="0 0 320 43" fill="none" xmlns="http://www.w3.org/2000/svg">
<g id="Narrow Chat">
<path d="M31.465 42H25.69L4.68 9.385H4.46C4.49667 10.045 4.53333 10.7783 4.57 11.585C4.64333 12.3917 4.69833 13.2717 4.735 14.225C4.77167 15.1417 4.80833 16.095 4.845 17.085C4.88167 18.075 4.9 19.065 4.9 20.055V42H0.335V2.73H6.055L27.01 35.235H27.23C27.1933 34.795 27.1567 34.19 27.12 33.42C27.0833 32.6133 27.0467 31.7333 27.01 30.78C26.9733 29.79 26.9367 28.7817 26.9 27.755C26.8633 26.7283 26.845 25.775 26.845 24.895V2.73H31.465V42ZM52.6271 12.025C56.2204 12.025 58.8788 12.8133 60.6021 14.39C62.3254 15.9667 63.1871 18.4783 63.1871 21.925V42H59.6671L58.7321 37.82H58.5121C57.6688 38.8833 56.7888 39.7817 55.8721 40.515C54.9921 41.2117 53.9654 41.725 52.7921 42.055C51.6554 42.385 50.2621 42.55 48.6121 42.55C46.8521 42.55 45.2571 42.2383 43.8271 41.615C42.4338 40.9917 41.3338 40.0383 40.5271 38.755C39.7204 37.435 39.3171 35.785 39.3171 33.805C39.3171 30.8717 40.4721 28.6167 42.7821 27.04C45.0921 25.4267 48.6488 24.5467 53.4521 24.4L58.4571 24.235V22.475C58.4571 20.0183 57.9254 18.3133 56.8621 17.36C55.7988 16.4067 54.2954 15.93 52.3521 15.93C50.8121 15.93 49.3454 16.1683 47.9521 16.645C46.5588 17.085 45.2571 17.5983 44.0471 18.185L42.5621 14.555C43.8454 13.8583 45.3671 13.2717 47.1271 12.795C48.8871 12.2817 50.7204 12.025 52.6271 12.025ZM54.0571 27.755C50.3904 27.9017 47.8421 28.4883 46.4121 29.515C45.0188 30.5417 44.3221 31.99 44.3221 33.86C44.3221 35.51 44.8171 36.72 45.8071 37.49C46.8338 38.26 48.1354 38.645 49.7121 38.645C52.2054 38.645 54.2771 37.9667 55.9271 36.61C57.5771 35.2167 58.4021 33.09 58.4021 30.23V27.59L54.0571 27.755ZM86.0422 11.97C86.5922 11.97 87.1789 12.0067 87.8022 12.08C88.4622 12.1167 89.0305 12.19 89.5072 12.3L88.9022 16.755C88.4255 16.645 87.8939 16.5533 87.3072 16.48C86.7572 16.4067 86.2255 16.37 85.7122 16.37C84.5755 16.37 83.4939 16.6083 82.4672 17.085C81.4405 17.5617 80.5239 18.24 79.7172 19.12C78.9105 19.9633 78.2689 20.99 77.7922 22.2C77.3522 23.41 77.1322 24.7667 77.1322 26.27V42H72.2922V12.52H76.2522L76.8022 17.91H77.0222C77.6455 16.81 78.3972 15.82 79.2772 14.94C80.1572 14.0233 81.1655 13.3083 82.3022 12.795C83.4389 12.245 84.6855 11.97 86.0422 11.97ZM108.762 11.97C109.312 11.97 109.899 12.0067 110.522 12.08C111.182 12.1167 111.75 12.19 112.227 12.3L111.622 16.755C111.145 16.645 110.614 16.5533 110.027 16.48C109.477 16.4067 108.945 16.37 108.432 16.37C107.295 16.37 106.214 16.6083 105.187 17.085C104.16 17.5617 103.244 18.24 102.437 19.12C101.63 19.9633 100.989 20.99 100.512 22.2C100.072 23.41 99.8519 24.7667 99.8519 26.27V42H95.0119V12.52H98.9719L99.5219 17.91H99.7419C100.365 16.81 101.117 15.82 101.997 14.94C102.877 14.0233 103.885 13.3083 105.022 12.795C106.159 12.245 107.405 11.97 108.762 11.97ZM142.287 27.205C142.287 29.6617 141.957 31.8433 141.297 33.75C140.674 35.62 139.757 37.215 138.547 38.535C137.374 39.855 135.926 40.8633 134.202 41.56C132.516 42.22 130.627 42.55 128.537 42.55C126.594 42.55 124.797 42.22 123.147 41.56C121.497 40.8633 120.067 39.855 118.857 38.535C117.647 37.215 116.694 35.62 115.997 33.75C115.337 31.8433 115.007 29.6617 115.007 27.205C115.007 23.9417 115.557 21.1917 116.657 18.955C117.757 16.6817 119.334 14.9583 121.387 13.785C123.441 12.575 125.879 11.97 128.702 11.97C131.379 11.97 133.726 12.575 135.742 13.785C137.796 14.9583 139.391 16.6817 140.527 18.955C141.701 21.1917 142.287 23.9417 142.287 27.205ZM120.012 27.205C120.012 29.515 120.306 31.5317 120.892 33.255C121.516 34.9417 122.469 36.2433 123.752 37.16C125.036 38.0767 126.667 38.535 128.647 38.535C130.627 38.535 132.259 38.0767 133.542 37.16C134.826 36.2433 135.761 34.9417 136.347 33.255C136.971 31.5317 137.282 29.515 137.282 27.205C137.282 24.8583 136.971 22.86 136.347 21.21C135.724 19.56 134.771 18.295 133.487 17.415C132.241 16.4983 130.609 16.04 128.592 16.04C125.586 16.04 123.404 17.03 122.047 19.01C120.691 20.99 120.012 23.7217 120.012 27.205ZM167.914 25.335C167.694 24.565 167.474 23.8133 167.254 23.08C167.034 22.31 166.832 21.595 166.649 20.935C166.502 20.2383 166.356 19.5967 166.209 19.01C166.062 18.4233 165.952 17.9283 165.879 17.525H165.659C165.586 17.9283 165.476 18.4233 165.329 19.01C165.219 19.5967 165.072 20.2383 164.889 20.935C164.742 21.6317 164.559 22.365 164.339 23.135C164.156 23.8683 163.936 24.62 163.679 25.39L158.399 41.945H152.899L144.814 12.465H149.819L153.889 28.195C154.182 29.2583 154.457 30.34 154.714 31.44C154.971 32.5033 155.191 33.53 155.374 34.52C155.594 35.4733 155.741 36.2983 155.814 36.995H156.034C156.144 36.555 156.272 36.005 156.419 35.345C156.566 34.685 156.712 33.9883 156.859 33.255C157.042 32.5217 157.226 31.7883 157.409 31.055C157.629 30.3217 157.831 29.6617 158.014 29.075L163.239 12.465H168.519L173.579 29.075C173.836 29.9183 174.092 30.8167 174.349 31.77C174.642 32.7233 174.899 33.6583 175.119 34.575C175.339 35.455 175.486 36.2433 175.559 36.94H175.779C175.852 36.3167 175.981 35.5467 176.164 34.63C176.384 33.6767 176.622 32.65 176.879 31.55C177.172 30.4133 177.466 29.295 177.759 28.195L181.884 12.465H186.834L178.639 41.945H172.974L167.914 25.335ZM223.898 6.525C221.808 6.525 219.92 6.89167 218.233 7.625C216.547 8.32167 215.117 9.36667 213.943 10.76C212.77 12.1167 211.872 13.785 211.248 15.765C210.625 17.7083 210.313 19.9083 210.313 22.365C210.313 25.5917 210.808 28.3967 211.798 30.78C212.825 33.1633 214.328 34.9967 216.308 36.28C218.325 37.5633 220.837 38.205 223.843 38.205C225.567 38.205 227.198 38.0583 228.738 37.765C230.278 37.4717 231.782 37.105 233.248 36.665V40.955C231.782 41.505 230.26 41.9083 228.683 42.165C227.143 42.4217 225.292 42.55 223.128 42.55C219.132 42.55 215.795 41.725 213.118 40.075C210.442 38.425 208.425 36.0783 207.068 33.035C205.748 29.9917 205.088 26.4167 205.088 22.31C205.088 19.34 205.492 16.6267 206.298 14.17C207.142 11.7133 208.352 9.58667 209.928 7.79C211.542 5.99333 213.522 4.61833 215.868 3.665C218.215 2.675 220.91 2.18 223.953 2.18C225.97 2.18 227.913 2.38166 229.783 2.785C231.653 3.18833 233.322 3.75667 234.788 4.49L232.808 8.67C231.598 8.12 230.242 7.625 228.738 7.185C227.272 6.745 225.658 6.525 223.898 6.525ZM245.999 12.465C245.999 13.1617 245.963 13.8767 245.889 14.61C245.853 15.3433 245.798 16.0033 245.724 16.59H246.054C246.678 15.5633 247.466 14.72 248.419 14.06C249.373 13.4 250.436 12.905 251.609 12.575C252.783 12.2083 253.993 12.025 255.239 12.025C257.623 12.025 259.603 12.41 261.179 13.18C262.793 13.9133 264.003 15.0683 264.809 16.645C265.616 18.2217 266.019 20.275 266.019 22.805V42H261.234V23.135C261.234 20.7517 260.703 18.9733 259.639 17.8C258.576 16.6267 256.908 16.04 254.634 16.04C252.434 16.04 250.711 16.4617 249.464 17.305C248.218 18.1117 247.319 19.3217 246.769 20.935C246.256 22.5117 245.999 24.455 245.999 26.765V42H241.159V0.199997H245.999V12.465ZM286.323 12.025C289.917 12.025 292.575 12.8133 294.298 14.39C296.022 15.9667 296.883 18.4783 296.883 21.925V42H293.363L292.428 37.82H292.208C291.365 38.8833 290.485 39.7817 289.568 40.515C288.688 41.2117 287.662 41.725 286.488 42.055C285.352 42.385 283.958 42.55 282.308 42.55C280.548 42.55 278.953 42.2383 277.523 41.615C276.13 40.9917 275.03 40.0383 274.223 38.755C273.417 37.435 273.013 35.785 273.013 33.805C273.013 30.8717 274.168 28.6167 276.478 27.04C278.788 25.4267 282.345 24.5467 287.148 24.4L292.153 24.235V22.475C292.153 20.0183 291.622 18.3133 290.558 17.36C289.495 16.4067 287.992 15.93 286.048 15.93C284.508 15.93 283.042 16.1683 281.648 16.645C280.255 17.085 278.953 17.5983 277.743 18.185L276.258 14.555C277.542 13.8583 279.063 13.2717 280.823 12.795C282.583 12.2817 284.417 12.025 286.323 12.025ZM287.753 27.755C284.087 27.9017 281.538 28.4883 280.108 29.515C278.715 30.5417 278.018 31.99 278.018 33.86C278.018 35.51 278.513 36.72 279.503 37.49C280.53 38.26 281.832 38.645 283.408 38.645C285.902 38.645 287.973 37.9667 289.623 36.61C291.273 35.2167 292.098 33.09 292.098 30.23V27.59L287.753 27.755ZM315.833 38.59C316.567 38.59 317.318 38.535 318.088 38.425C318.858 38.2783 319.482 38.1317 319.958 37.985V41.67C319.445 41.9267 318.712 42.1283 317.758 42.275C316.805 42.4583 315.888 42.55 315.008 42.55C313.468 42.55 312.038 42.2933 310.718 41.78C309.435 41.23 308.39 40.295 307.583 38.975C306.777 37.655 306.373 35.8033 306.373 33.42V16.26H302.193V13.95L306.428 12.025L308.353 5.755H311.213V12.52H319.738V16.26H311.213V33.31C311.213 35.1067 311.635 36.445 312.478 37.325C313.358 38.1683 314.477 38.59 315.833 38.59Z" fill="#00D1FF"/>
</g>
</svg>
